<?xml version="1.0" encoding="iso-8859-1"?>
<!-- Generator: Adobe Illustrator 16.0.0, SVG Export Plug-In . SVG Version: 6.00 Build 0)  -->
<!DOCTYPE svg PUBLIC "-//W3C//DTD SVG 1.1//EN" "http://www.w3.org/Graphics/SVG/1.1/DTD/svg11.dtd">
<svg version="1.1" id="Capa_1" xmlns="http://www.w3.org/2000/svg" xmlns:xlink="http://www.w3.org/1999/xlink" x="0px" y="0px"
	 width="370.001px" height="370.001px" viewBox="0 0 370.001 370.001" style="enable-background:new 0 0 370.001 370.001;"
	 xml:space="preserve">
<g>
	<g>
		<path d="M328.468,36.634h-7.938v-7.335C320.529,13.144,307.383,0,291.228,0H78.774c-16.154,0-29.3,13.144-29.3,29.299v7.335
			h-7.939c-9.739,0-17.658,7.921-17.658,17.657v84.811c0,9.737,7.919,17.657,17.658,17.657h7.939v151.136
			c0,13.391,9.035,24.703,21.325,28.187v25.377c0,4.718,3.825,8.543,8.543,8.543h35.543c4.719,0,8.543-3.825,8.543-8.543v-24.264
			h123.146v24.264c0,4.718,3.824,8.543,8.543,8.543h35.543c4.718,0,8.543-3.825,8.543-8.543V336.08
			c12.29-3.482,21.325-14.796,21.325-28.186V156.759h7.938c9.74,0,17.657-7.92,17.657-17.657V54.291
			C346.125,44.556,338.208,36.634,328.468,36.634z M85.587,51.934h198.828v108.451H85.587V51.934z M118.368,298.17
			c-16.985,0-30.755-13.77-30.755-30.753s13.77-30.753,30.755-30.753c16.986,0,30.757,13.77,30.757,30.753
			S135.355,298.17,118.368,298.17z M220.877,267.417c0-16.983,13.771-30.753,30.756-30.753c16.986,0,30.756,13.77,30.756,30.753
			s-13.77,30.753-30.756,30.753S220.877,284.4,220.877,267.417z"/>
	</g>
</g>
<g>
</g>
<g>
</g>
<g>
</g>
<g>
</g>
<g>
</g>
<g>
</g>
<g>
</g>
<g>
</g>
<g>
</g>
<g>
</g>
<g>
</g>
<g>
</g>
<g>
</g>
<g>
</g>
<g>
</g>
</svg>
