<?xml version="1.0" encoding="iso-8859-1"?>
<!-- Generator: Adobe Illustrator 16.0.0, SVG Export Plug-In . SVG Version: 6.00 Build 0)  -->
<!DOCTYPE svg PUBLIC "-//W3C//DTD SVG 1.1//EN" "http://www.w3.org/Graphics/SVG/1.1/DTD/svg11.dtd">
<svg version="1.1" id="Capa_1" xmlns="http://www.w3.org/2000/svg" xmlns:xlink="http://www.w3.org/1999/xlink" x="0px" y="0px"
	 width="390.003px" height="390.003px" viewBox="0 0 390.003 390.003" style="enable-background:new 0 0 390.003 390.003;"
	 xml:space="preserve">
<g>
	<g>
		<g>
			<path d="M133.16,53.28h10.967c-0.179,1.739-0.272,3.504-0.272,5.292c0,28.249,22.899,51.148,51.147,51.148
				c28.25,0,51.146-22.899,51.146-51.148c0-3.803-0.429-7.504-1.215-11.07l15.895-41.72c0.499-1.31,0.322-2.782-0.475-3.938
				C259.557,0.689,258.247,0,256.843,0H136.648c-1.402,0-2.715,0.689-3.511,1.844c-0.795,1.155-0.972,2.626-0.473,3.938
				l11.701,30.711l-13.559,8.97c-1.568,1.038-2.271,2.981-1.729,4.783C129.62,52.047,131.278,53.28,133.16,53.28z"/>
			<path d="M138.265,115.036c-4.862,0-9.505,2.028-12.809,5.597c-3.304,3.567-4.97,8.352-4.598,13.2l8.053,104.671
				c0.272,3.539,1.628,6.876,3.829,9.606l96.258-133.074H138.265L138.265,115.036z"/>
			<path d="M264.547,120.632c-1.878-2.029-4.198-3.539-6.736-4.482L150.524,264.472l2.465,2.226v105.848
				c0,9.642,7.816,17.458,17.458,17.458h7.64c8.142,0,14.981-5.573,16.913-13.11c1.932,7.538,8.771,13.11,16.912,13.11h7.641
				c9.642,0,17.458-7.816,17.458-17.458V266.696l18.368-16.568c3.324-2.999,5.37-7.16,5.713-11.625l8.053-104.671
				C269.519,128.984,267.853,124.2,264.547,120.632z M209.594,248.076h-29.187v-12.813h29.187V248.076z"/>
		</g>
	</g>
</g>
<g>
</g>
<g>
</g>
<g>
</g>
<g>
</g>
<g>
</g>
<g>
</g>
<g>
</g>
<g>
</g>
<g>
</g>
<g>
</g>
<g>
</g>
<g>
</g>
<g>
</g>
<g>
</g>
<g>
</g>
</svg>
