<?xml version="1.0" encoding="iso-8859-1"?>
<!-- Generator: Adobe Illustrator 16.0.0, SVG Export Plug-In . SVG Version: 6.00 Build 0)  -->
<!DOCTYPE svg PUBLIC "-//W3C//DTD SVG 1.1//EN" "http://www.w3.org/Graphics/SVG/1.1/DTD/svg11.dtd">
<svg version="1.1" id="Capa_1" xmlns="http://www.w3.org/2000/svg" xmlns:xlink="http://www.w3.org/1999/xlink" x="0px" y="0px"
	 width="350px" height="350px" viewBox="0 0 350 350" style="enable-background:new 0 0 350 350;" xml:space="preserve">
<g>
	<g>
		<g>
			<path d="M313.079,69.716H103.821V57.188c0-4.634-3.757-8.391-8.39-8.391H63.436c-4.633,0-8.39,3.757-8.39,8.391v12.528H36.92
				C16.53,69.716,0,86.245,0,106.638v157.645c0,20.393,16.53,36.921,36.921,36.921h276.158c20.391,0,36.921-16.529,36.921-36.921
				V106.638C350,86.245,333.47,69.716,313.079,69.716z M175,283.247c-53.92,0-97.787-43.867-97.787-97.787S121.08,87.672,175,87.672
				s97.787,43.867,97.787,97.787S228.92,283.247,175,283.247z"/>
			<path d="M175,114.256c-39.249,0-71.179,31.93-71.179,71.18c0,39.248,31.93,71.18,71.179,71.18s71.179-31.932,71.179-71.18
				C246.179,146.186,214.249,114.256,175,114.256z M136.781,178.059c-1.061,3.842-1.597,7.832-1.597,11.863
				c0,4.592-3.722,8.312-8.31,8.312c-4.591,0-8.313-3.721-8.313-8.312c0-5.523,0.741-11.004,2.198-16.286
				c1.221-4.425,5.799-7.018,10.222-5.799C135.407,169.057,138.004,173.634,136.781,178.059z M179.648,145.46
				c-12.79,0-24.965,5.512-33.414,15.127c-1.645,1.868-3.941,2.824-6.248,2.824c-1.948,0-3.903-0.682-5.483-2.068
				c-3.449-3.029-3.785-8.283-0.756-11.728c11.604-13.206,28.333-20.778,45.899-20.778c4.588,0,8.311,3.722,8.311,8.31
				C187.959,141.738,184.236,145.46,179.648,145.46z"/>
		</g>
	</g>
</g>
<g>
</g>
<g>
</g>
<g>
</g>
<g>
</g>
<g>
</g>
<g>
</g>
<g>
</g>
<g>
</g>
<g>
</g>
<g>
</g>
<g>
</g>
<g>
</g>
<g>
</g>
<g>
</g>
<g>
</g>
</svg>
