<?xml version="1.0" encoding="iso-8859-1"?>
<!-- Generator: Adobe Illustrator 16.0.0, SVG Export Plug-In . SVG Version: 6.00 Build 0)  -->
<!DOCTYPE svg PUBLIC "-//W3C//DTD SVG 1.1//EN" "http://www.w3.org/Graphics/SVG/1.1/DTD/svg11.dtd">
<svg version="1.1" id="Capa_1" xmlns="http://www.w3.org/2000/svg" xmlns:xlink="http://www.w3.org/1999/xlink" x="0px" y="0px"
	 width="375px" height="375px" viewBox="0 0 375 375" style="enable-background:new 0 0 375 375;" xml:space="preserve">
<g>
	<g>
		<g>
			<path d="M310,52.5h-82.5c-23.038,0-44.557,12.365-56.157,32.269L108.551,192.5h-7.064l2.934-38.123
				c0.166-2.143-0.572-4.258-2.031-5.835c-1.461-1.578-3.514-2.474-5.662-2.474h-50.16c-2.148,0-4.201,0.896-5.661,2.474
				c-1.461,1.577-2.197,3.692-2.032,5.835l3.252,42.29C17.539,205.943,0,229.707,0,257.5c0,35.841,29.159,65,65,65h80.9
				c23.038,0,44.557-12.365,56.157-32.27L264.85,182.5H310c35.841,0,65-29.159,65-65S345.841,52.5,310,52.5z M310,142.5h-56.643
				c-7.116,0-13.695,3.781-17.279,9.929l-68.58,117.66c-4.461,7.655-12.737,12.411-21.598,12.411H65c-13.785,0-25-11.215-25-25
				s11.215-25,25-25h55.043c7.116,0,13.696-3.781,17.279-9.93L205.9,104.911c4.463-7.656,12.739-12.411,21.6-12.411H310
				c13.785,0,25,11.215,25,25S323.785,142.5,310,142.5z"/>
			<circle cx="71.646" cy="121.109" r="22.609"/>
			<path d="M323.507,226.121c-1.628-6.282-7.294-10.669-13.778-10.669c-1.201,0-2.405,0.153-3.578,0.458l-34.78,9.015
				c-7.602,1.97-12.181,9.755-10.212,17.355c1.627,6.282,7.292,10.67,13.775,10.67c1.203,0,2.407-0.154,3.578-0.458l1.506-0.392
				l-27.792,47.239c-3.979,6.768-1.715,15.511,5.054,19.493c2.188,1.288,4.683,1.968,7.212,1.968c5.028,0,9.733-2.689,12.282-7.02
				l27.792-47.239l0.39,1.505c0.955,3.684,3.284,6.771,6.562,8.702c3.232,1.9,7.159,2.454,10.796,1.51
				c7.6-1.97,12.181-9.755,10.212-17.354L323.507,226.121z"/>
		</g>
	</g>
</g>
<g>
</g>
<g>
</g>
<g>
</g>
<g>
</g>
<g>
</g>
<g>
</g>
<g>
</g>
<g>
</g>
<g>
</g>
<g>
</g>
<g>
</g>
<g>
</g>
<g>
</g>
<g>
</g>
<g>
</g>
</svg>
