<?xml version="1.0" encoding="iso-8859-1"?>
<!-- Generator: Adobe Illustrator 16.0.0, SVG Export Plug-In . SVG Version: 6.00 Build 0)  -->
<!DOCTYPE svg PUBLIC "-//W3C//DTD SVG 1.1//EN" "http://www.w3.org/Graphics/SVG/1.1/DTD/svg11.dtd">
<svg version="1.1" id="Capa_1" xmlns="http://www.w3.org/2000/svg" xmlns:xlink="http://www.w3.org/1999/xlink" x="0px" y="0px"
	 width="395.842px" height="395.842px" viewBox="0 0 395.842 395.842" style="enable-background:new 0 0 395.842 395.842;"
	 xml:space="preserve">
<g>
	<g>
		<path d="M300.194,129.887L287.012,11.641C286.273,5.013,280.67,0,274.002,0H121.842c-6.668,0-12.271,5.013-13.01,11.641
			l-13.18,118.247c-3.534,31.716,4.55,59.603,23.378,80.646c16.427,18.358,38.085,28.334,57.075,32.606V352.21h-21.381
			c-12.048,0-21.815,9.769-21.815,21.815c0,12.049,9.768,21.816,21.815,21.816h86.395c12.049,0,21.814-9.769,21.814-21.816
			c0-12.049-9.768-21.815-21.814-21.815h-21.382V243.082c19.013-4.316,40.651-14.323,57.078-32.682
			C295.635,189.367,303.719,161.527,300.194,129.887z M150.15,189.529c-1.76,1.574-3.955,2.348-6.143,2.348
			c-2.531,0-5.052-1.037-6.872-3.071c-14.192-15.862-20.308-36.7-17.683-60.258c0.564-5.06,5.124-8.7,10.182-8.14
			c5.059,0.564,8.703,5.122,8.139,10.181c-2.027,18.201,2.502,34.082,13.1,45.926C154.266,180.308,153.943,186.135,150.15,189.529z
			 M190.57,206.15c-0.965,4.284-4.771,7.194-8.983,7.194c-0.67,0-1.352-0.073-2.032-0.227c-6.128-1.379-12.102-3.435-17.757-6.104
			c-4.603-2.174-6.568-7.668-4.396-12.271c2.175-4.602,7.668-6.57,12.271-4.396c4.435,2.095,9.119,3.705,13.932,4.788
			C188.568,196.253,191.689,201.186,190.57,206.15z"/>
	</g>
</g>
<g>
</g>
<g>
</g>
<g>
</g>
<g>
</g>
<g>
</g>
<g>
</g>
<g>
</g>
<g>
</g>
<g>
</g>
<g>
</g>
<g>
</g>
<g>
</g>
<g>
</g>
<g>
</g>
<g>
</g>
</svg>
