<?xml version="1.0" encoding="iso-8859-1"?>
<!-- Generator: Adobe Illustrator 16.0.0, SVG Export Plug-In . SVG Version: 6.00 Build 0)  -->
<!DOCTYPE svg PUBLIC "-//W3C//DTD SVG 1.1//EN" "http://www.w3.org/Graphics/SVG/1.1/DTD/svg11.dtd">
<svg version="1.1" id="Capa_1" xmlns="http://www.w3.org/2000/svg" xmlns:xlink="http://www.w3.org/1999/xlink" x="0px" y="0px"
	 width="439.241px" height="439.241px" viewBox="0 0 439.241 439.241" style="enable-background:new 0 0 439.241 439.241;"
	 xml:space="preserve">
<g>
	<g>
		<path d="M427.799,302.114c-5.247,0-9.5,4.253-9.5,9.5c0,4.503-3.664,8.167-8.167,8.167h-42.333v-15.548h20.09
			c17.931,0,34.562-9.352,43.875-24.67c9.316-15.317,9.97-34.388,1.722-50.307c-14.061-27.133-55.244-73.054-120.434-73.054h-26.395
			V121.27c28.457,3.715,92.219,11.569,95.365,11.957c0.385,0.047,0.771,0.071,1.159,0.071c9.054,0,16.418-7.365,16.418-16.417
			s-7.364-16.417-16.418-16.417h-212.31c-9.052,0-16.417,7.364-16.417,16.417c0,9.053,7.365,16.417,16.417,16.417
			c0.388,0,0.776-0.024,1.161-0.071c3.156-0.389,67.297-8.29,95.623-11.99v34.966h-49.691c-10.867,0-21.147,3.424-29.623,9.41
			H77.868L48.222,127.92c-7.115-9.045-19.181-12.588-30.054-8.823C7.293,122.861,0,133.104,0,144.612v48c0,14.912,12.088,27,27,27
			h141.059c2.52,10.428,8.289,20.053,16.895,27.274l54.004,45.326c9.249,7.764,20.938,12.018,33.013,12.018h17.496v15.548h-40.166
			c-5.248,0-9.5,4.254-9.5,9.5c0,5.247,4.252,9.5,9.5,9.5h160.832c14.98,0,27.167-12.188,27.167-27.166
			C437.299,306.367,433.046,302.114,427.799,302.114z M308.466,304.233h40.333v15.548h-40.333V304.233z"/>
	</g>
</g>
<g>
</g>
<g>
</g>
<g>
</g>
<g>
</g>
<g>
</g>
<g>
</g>
<g>
</g>
<g>
</g>
<g>
</g>
<g>
</g>
<g>
</g>
<g>
</g>
<g>
</g>
<g>
</g>
<g>
</g>
</svg>
