<?xml version="1.0" encoding="iso-8859-1"?>
<!-- Generator: Adobe Illustrator 16.0.0, SVG Export Plug-In . SVG Version: 6.00 Build 0)  -->
<!DOCTYPE svg PUBLIC "-//W3C//DTD SVG 1.1//EN" "http://www.w3.org/Graphics/SVG/1.1/DTD/svg11.dtd">
<svg version="1.1" id="Capa_1" xmlns="http://www.w3.org/2000/svg" xmlns:xlink="http://www.w3.org/1999/xlink" x="0px" y="0px"
	 width="372.34px" height="372.34px" viewBox="0 0 372.34 372.34" style="enable-background:new 0 0 372.34 372.34;"
	 xml:space="preserve">
<g>
	<g>
		<g>
			<path d="M116.307,311.386c-16.804,0-30.476,13.671-30.476,30.478c0,16.805,13.672,30.477,30.476,30.477
				c16.805,0,30.477-13.671,30.477-30.477C146.783,325.057,133.111,311.386,116.307,311.386z"/>
			<path d="M308.214,311.386c-16.804,0-30.476,13.671-30.476,30.478c0,16.805,13.672,30.477,30.476,30.477
				c16.805,0,30.476-13.671,30.476-30.477C338.689,325.057,325.019,311.386,308.214,311.386z"/>
			<path d="M333.181,264.992H90.651V46.303c0-5.296-2.333-10.322-6.377-13.74L50.772,4.25C43.184-2.164,31.834-1.21,25.42,6.377
				c-6.413,7.588-5.461,18.938,2.128,25.351l27.125,22.925V282.98c0,9.937,8.054,17.988,17.989,17.988h260.519
				c9.937,0,17.989-8.054,17.989-17.988C351.17,273.045,343.116,264.992,333.181,264.992z"/>
			<path d="M118.69,247.062h218.594c7.188,0,13.015-5.825,13.015-13.014v-57.062c0-7.188-5.826-13.016-13.015-13.016H118.69
				c-7.188,0-13.014,5.828-13.014,13.016v57.062C105.676,241.236,111.502,247.062,118.69,247.062z M199.663,198.911
				c0-1.665,1.349-3.015,3.013-3.015h50.622c1.665,0,3.014,1.35,3.014,3.015v13.214c0,1.665-1.35,3.014-3.014,3.014h-50.622
				c-1.664,0-3.013-1.349-3.013-3.014V198.911z"/>
			<path d="M118.69,151.721h218.594c7.188,0,13.015-5.826,13.015-13.015V81.645c0-7.188-5.826-13.015-13.015-13.015H118.69
				c-7.188,0-13.014,5.827-13.014,13.015v57.061C105.676,145.895,111.502,151.721,118.69,151.721z M199.663,103.568
				c0-1.664,1.349-3.014,3.013-3.014h50.622c1.665,0,3.014,1.35,3.014,3.014v13.214c0,1.664-1.35,3.014-3.014,3.014h-50.622
				c-1.664,0-3.013-1.35-3.013-3.014V103.568z"/>
		</g>
	</g>
</g>
<g>
</g>
<g>
</g>
<g>
</g>
<g>
</g>
<g>
</g>
<g>
</g>
<g>
</g>
<g>
</g>
<g>
</g>
<g>
</g>
<g>
</g>
<g>
</g>
<g>
</g>
<g>
</g>
<g>
</g>
</svg>
