<?xml version="1.0" encoding="iso-8859-1"?>
<!-- Generator: Adobe Illustrator 16.0.0, SVG Export Plug-In . SVG Version: 6.00 Build 0)  -->
<!DOCTYPE svg PUBLIC "-//W3C//DTD SVG 1.1//EN" "http://www.w3.org/Graphics/SVG/1.1/DTD/svg11.dtd">
<svg version="1.1" id="Capa_1" xmlns="http://www.w3.org/2000/svg" xmlns:xlink="http://www.w3.org/1999/xlink" x="0px" y="0px"
	 width="447.691px" height="447.691px" viewBox="0 0 447.691 447.691" style="enable-background:new 0 0 447.691 447.691;"
	 xml:space="preserve">
<g>
	<g>
		<g>
			<path d="M270.322,145.776c0-25.667-20.805-46.478-46.477-46.478c-25.668,0-46.475,20.812-46.475,46.478
				c0,25.669,20.807,46.477,46.475,46.477C249.517,192.253,270.322,171.446,270.322,145.776z"/>
			<path d="M275.402,197.083h-103.11c-4.418,0-8.637,1.844-11.639,5.085c-3.003,3.242-4.518,7.59-4.18,11.995l7.319,95.11
				c0.312,4.057,2.169,7.838,5.19,10.562l16.689,15.055v96.181c0,8.764,7.103,15.862,15.863,15.862h6.942
				c7.398,0,13.612-5.062,15.367-11.912c1.756,6.851,7.971,11.912,15.367,11.912h6.942c8.76,0,15.863-7.102,15.863-15.862v-96.179
				l16.688-15.057c3.021-2.725,4.881-6.506,5.19-10.562l7.317-95.11c0.339-4.405-1.175-8.753-4.178-11.995
				C284.038,198.927,279.82,197.083,275.402,197.083z"/>
			<path d="M362.672,24.107h-72.079V15c0-8.284-6.716-15-15-15H172.099c-8.284,0-15,6.716-15,15v9.107h-72.08
				c-8.284,0-15,6.716-15,15v393.584c0,8.284,6.716,15,15,15s15-6.716,15-15V54.107h57.08v3.338c0,8.284,6.716,15,15,15h103.494
				c8.284,0,15-6.716,15-15v-3.338h57.079v378.584c0,8.284,6.717,15,15,15c8.285,0,15-6.716,15-15V39.107
				C377.672,30.823,370.957,24.107,362.672,24.107z M237.68,56.454h-63.168v-40.5h63.168V56.454z M260.322,58.556
				c-5.521,0-10-4.477-10-10s4.479-10,10-10c5.522,0,10,4.477,10,10S265.844,58.556,260.322,58.556z M260.322,33.867
				c-5.521,0-10-4.477-10-10c0-5.523,4.479-10,10-10c5.522,0,10,4.477,10,10C270.322,29.389,265.844,33.867,260.322,33.867z"/>
		</g>
	</g>
</g>
<g>
</g>
<g>
</g>
<g>
</g>
<g>
</g>
<g>
</g>
<g>
</g>
<g>
</g>
<g>
</g>
<g>
</g>
<g>
</g>
<g>
</g>
<g>
</g>
<g>
</g>
<g>
</g>
<g>
</g>
</svg>
