<?xml version="1.0" encoding="iso-8859-1"?>
<!-- Generator: Adobe Illustrator 16.0.0, SVG Export Plug-In . SVG Version: 6.00 Build 0)  -->
<!DOCTYPE svg PUBLIC "-//W3C//DTD SVG 1.1//EN" "http://www.w3.org/Graphics/SVG/1.1/DTD/svg11.dtd">
<svg version="1.1" id="Capa_1" xmlns="http://www.w3.org/2000/svg" xmlns:xlink="http://www.w3.org/1999/xlink" x="0px" y="0px"
	 width="409.107px" height="409.107px" viewBox="0 0 409.107 409.107" style="enable-background:new 0 0 409.107 409.107;"
	 xml:space="preserve">
<g>
	<g>
		<path d="M272.052,117.961V30h0.836c8.284,0,15-6.716,15-15s-6.716-15-15-15h-15.836H152.056H136.22c-8.284,0-15,6.716-15,15
			s6.716,15,15,15h0.836v87.961c-26.107,6.784-45.383,30.509-45.383,58.738v154.147c0,28.363,19.457,52.175,45.75,58.832v5.095
			c0,7.903,6.43,14.334,14.334,14.334c7.902,0,14.332-6.431,14.332-14.334v-3.236h76.93v3.236c0,7.903,6.431,14.334,14.332,14.334
			c7.902,0,14.334-6.431,14.334-14.334v-5.095c26.293-6.655,45.75-30.469,45.75-58.832V176.7
			C317.435,148.47,298.157,124.745,272.052,117.961z M242.052,30v86.011h-74.996V30H242.052z M258.888,190.774H150.22
			c-7.363,0-13.332-5.97-13.332-13.333c0-7.364,5.969-13.333,13.332-13.333h108.668c7.363,0,13.332,5.97,13.332,13.333
			C272.22,184.804,266.251,190.774,258.888,190.774z"/>
	</g>
</g>
<g>
</g>
<g>
</g>
<g>
</g>
<g>
</g>
<g>
</g>
<g>
</g>
<g>
</g>
<g>
</g>
<g>
</g>
<g>
</g>
<g>
</g>
<g>
</g>
<g>
</g>
<g>
</g>
<g>
</g>
</svg>
