<svg id="Layer_1" data-name="Layer 1" xmlns="http://www.w3.org/2000/svg" viewBox="0 0 250 250"><defs><style>.cls-1{fill-rule:evenodd;}</style></defs><path class="cls-1" d="M125,0q34.92.41,63.1,17.17a125.88,125.88,0,0,1,44.84,45.11Q249.61,90.63,250,125.76q-1,48.08-30.33,82.12c-19.55,22.7-44.6,36.74-70.53,42.12V160.14h24.51l5.55-35.31H142.08V101.71a20.09,20.09,0,0,1,4.27-13.28q4.46-5.69,15.69-6h22.41V51.53q-.48-.15-9.15-1.23a183.87,183.87,0,0,0-19.76-1.23q-22.41.1-35.45,12.65T106.77,98v26.83H78.52v35.31h28.25V250c-31.84-5.38-56.89-19.42-76.45-42.12S.66,157.81,0,125.76Q.39,90.63,17.06,62.28A125.88,125.88,0,0,1,61.9,17.17Q90.09.4,125,0Z"/></svg>