<svg id="Layer_1" data-name="Layer 1" xmlns="http://www.w3.org/2000/svg" viewBox="0 0 249.99 250"><path d="M127.47,250H125c-19.6,0-37.71-.45-55.32-1.53-16.14-1-30.88-6.56-42.61-16.13-11.33-9.23-19.06-21.72-23-37.11C.64,181.83.46,168.68.29,156,.16,146.84,0,136,0,125s.16-21.86.29-31C.46,81.32.64,68.17,4.06,54.77,8,39.38,15.72,26.89,27.05,17.66,38.78,8.09,53.52,2.51,69.67,1.53,87.28.46,105.39,0,125,0s37.71.46,55.32,1.53c16.14,1,30.88,6.56,42.61,16.13,11.33,9.23,19.06,21.72,23,37.11,3.42,13.4,3.6,26.55,3.77,39.27.13,9.12.26,19.94.29,30.94v0c0,11-.16,21.82-.29,30.94-.17,12.72-.35,25.87-3.77,39.27-3.93,15.39-11.66,27.88-23,37.11-11.73,9.57-26.47,15.15-42.61,16.13C163.47,249.5,146.15,250,127.47,250ZM125,230.46c19.27,0,37-.44,54.17-1.48,12.21-.74,22.79-4.7,31.46-11.78,8-6.53,13.54-15.55,16.41-26.8s3-23.13,3.16-34.71c.13-9.06.26-19.8.28-30.69s-.15-21.63-.28-30.7c-.15-11.57-.32-23.55-3.16-34.7s-8.39-20.27-16.41-26.81c-8.67-7.07-19.25-11-31.46-11.77C162,20,144.25,19.49,125,19.53S88.05,20,70.85,21c-12.21.74-22.79,4.7-31.46,11.77C31.37,39.33,25.85,48.35,23,59.6s-3,23.12-3.16,34.7c-.13,9.08-.26,19.82-.28,30.72s.15,21.6.28,30.67c.15,11.58.32,23.56,3.16,34.71s8.39,20.27,16.41,26.8c8.67,7.07,19.25,11,31.46,11.78C88.05,230,105.75,230.51,125,230.46ZM124.51,186a61,61,0,1,1,61-61A61.1,61.1,0,0,1,124.51,186Zm0-102.53A41.5,41.5,0,1,0,166,125,41.55,41.55,0,0,0,124.51,83.5Zm67.87-39.07A14.65,14.65,0,1,0,207,59.08,14.65,14.65,0,0,0,192.38,44.43Z" transform="translate(0)"/></svg>