<svg id="Layer_1" data-name="Layer 1" xmlns="http://www.w3.org/2000/svg" viewBox="0 0 250 189.35"><path d="M163.48,113.82,108.25,83.6a10.15,10.15,0,0,0-15,8.9v59.92a10.13,10.13,0,0,0,15,8.93l55.24-29.7a10.14,10.14,0,0,0,.06-17.83Zm-55.6,31.06V100.09l41.28,22.59Z" transform="translate(0 -30.32)"/><path d="M248.16,75V74.9c-.21-2-2.32-19.91-11-29-10.06-10.71-21.46-12-26.95-12.64l-1.24-.15-.43,0c-33-2.4-83-2.73-83.47-2.73H125c-.5,0-50.42.33-83.77,2.73l-.44,0-1.17.15c-5.42.62-16.7,1.92-26.78,13-8.29,9-10.69,26.52-10.93,28.49l0,.25C1.76,75.85,0,95.79,0,115.8v18.7c0,20,1.76,39.95,1.84,40.79v.12c.21,2,2.32,19.55,11,28.66,9.46,10.35,21.41,11.72,27.85,12.46,1,.11,1.89.21,2.48.32l.58.08c19.09,1.81,78.92,2.71,81.45,2.74h.16c.5,0,50.41-.33,83.46-2.73l.43,0c.42-.06.89-.11,1.41-.16C216,216.16,227.26,215,237.2,204c8.29-9,10.69-26.52,10.93-28.49l0-.25c.07-.84,1.84-20.77,1.84-40.79V115.8C250,95.79,248.23,75.85,248.16,75ZM235.35,134.5c0,18.53-1.62,37.6-1.77,39.35-.62,4.83-3.15,15.91-7.19,20.3-6.22,6.85-12.62,7.52-17.29,8l-1.56.17c-32,2.32-80,2.67-82.21,2.68-2.48,0-61.43-.93-79.94-2.65-.94-.16-2-.28-3-.4-5.47-.63-13-1.48-18.73-7.82l-.14-.15c-4-4.13-6.42-14.49-7-20.09-.12-1.32-1.78-20.62-1.78-39.41V115.8c0-18.5,1.61-37.56,1.77-39.35.74-5.68,3.32-16.09,7.19-20.3,6.41-7,13.18-7.83,17.65-8.35l1.2-.14C74.89,45.33,123.26,45,125,45s50.09.36,82.24,2.69l1.29.15c4.6.52,11.55,1.32,17.94,8.13l.06.06c4,4.13,6.42,14.68,7,20.38.11,1.25,1.78,20.6,1.78,39.42Z" transform="translate(0 -30.32)"/></svg>