<svg id="Layer_1" data-name="Layer 1" xmlns="http://www.w3.org/2000/svg" viewBox="0 0 150 144.65"><defs><style>.cls-1{fill:#dd1842;}</style></defs><path class="cls-1" d="M75,0C33.58,0,0,31.37,0,70.06,0,104,25.84,132.3,60.15,138.74c6.72,1.38,10.77,3,12.81,5.91,5-8.16,4.37-33.8,4.37-42,0-7,4.37-4.66,8.16-2.62l16,8.45c.87-4.37,6.41-4.66,9.91-3.2l6.7,1.74-3.21-6.7c-2.33-4.37-1.17-7.87,1.45-9.32l-5.53-4.37c-4.37-2.92-1.76-5.84,4.37-8.17l9.91-4.65c-5.83-4.08-1.76-8.75.87-12.24l5.54-7.29L119,54c-6.12-.58-7.57-2.62-7.57-6.41L98.89,56.07c-5.83,3.79-9.62,0-9-6.7l2-15.74c-5.82,3.21-9.61-.87-11.06-5,0,0-4.38-8.45-5.83-12.82a129.64,129.64,0,0,1-5.83,12.82c-1.45,4.08-5.24,8.16-11.07,5l2,15.74c.58,6.7-3.2,10.49-9,6.7L38.58,47.62c0,3.79-1.46,5.83-7.58,6.41l-12.53.29L24,61.61c2.62,3.49,6.7,8.16.87,12.24l9.91,4.65c6.12,2.33,8.74,5.25,4.37,8.17L33.62,91c2.63,1.45,3.79,4.95,1.46,9.32l-3.21,6.7,6.71-1.74c3.49-1.46,9-1.17,9.9,3.2l16-8.45c3.79-2,8.16-4.37,8.16,2.62,0,7.28,1.21,24-4,28.89-33.42-3-59.56-29.41-59.56-61.52C9.06,35.92,38.59,8.24,75,8.24s65.93,27.68,65.93,61.82c0,31.83-25.37,58-58.36,61.44l.09,8.26c37.83-3.59,67.34-33.43,67.34-69.7C150,31.37,116.42,0,75,0Z"/></svg>