<?xml version="1.0" encoding="iso-8859-1"?>
<!-- Generator: Adobe Illustrator 16.0.0, SVG Export Plug-In . SVG Version: 6.00 Build 0)  -->
<!DOCTYPE svg PUBLIC "-//W3C//DTD SVG 1.1//EN" "http://www.w3.org/Graphics/SVG/1.1/DTD/svg11.dtd">
<svg version="1.1" id="Capa_1" xmlns="http://www.w3.org/2000/svg" xmlns:xlink="http://www.w3.org/1999/xlink" x="0px" y="0px"
	 width="432.243px" height="432.243px" viewBox="0 0 432.243 432.243" style="enable-background:new 0 0 432.243 432.243;"
	 xml:space="preserve">
<g>
	<g>
		<path d="M396.132,225.557l-29.051-16.144v-13.14c0-8.836-7.164-16-16-16c-7.342,0-13.515,4.952-15.396,11.693l-24.446-13.585
			v-12.108c0-8.836-7.164-16-16-16c-7.021,0-12.968,4.526-15.125,10.813l-21.689-12.053c-1.607-31.051-4.521-59.535-8.582-83.175
			c-3.221-18.753-7.029-33.617-11.318-44.179C236.346,16.317,229.72,0,216.123,0c-13.598,0-20.224,16.317-22.402,21.679
			c-4.289,10.562-8.097,25.426-11.318,44.179c-4.06,23.64-6.975,52.124-8.582,83.175l-21.69,12.053
			c-2.157-6.287-8.106-10.813-15.124-10.813c-8.837,0-16,7.164-16,16v12.108l-24.448,13.585
			c-1.882-6.742-8.055-11.693-15.396-11.693c-8.837,0-16,7.164-16,16v13.14L36.11,225.557c-3.174,1.766-5.143,5.11-5.143,8.741
			v41.718c0,3.237,1.568,6.275,4.208,8.151s6.024,2.356,9.083,1.291l128.616-44.829c1.189,40.082,4.47,77.047,9.528,106.496
			c0.917,5.342,1.884,10.357,2.895,15.059l-66.969,37.215c-1.725,0.958-2.794,2.774-2.794,4.749v22.661
			c0,1.761,0.852,3.41,2.286,4.431c1.434,1.018,3.272,1.278,4.935,0.701l78.279-27.284c3.598,4.531,8.53,8.329,15.088,8.329
			c6.558,0,11.49-3.798,15.087-8.329l78.279,27.284c0.584,0.201,1.188,0.303,1.788,0.303c1.113,0,2.216-0.342,3.146-1.004
			c1.434-1.021,2.285-2.669,2.285-4.431v-22.662c0-1.974-1.068-3.791-2.793-4.748l-66.969-37.215c1.01-4.7,1.977-9.715,2.895-15.059
			c5.059-29.447,8.339-66.414,9.527-106.496l128.617,44.829c1.071,0.374,2.184,0.558,3.29,0.558c2.05,0,4.078-0.631,5.791-1.849
			c2.642-1.875,4.209-4.914,4.209-8.151v-41.718C401.275,230.667,399.308,227.321,396.132,225.557z"/>
	</g>
</g>
<g>
</g>
<g>
</g>
<g>
</g>
<g>
</g>
<g>
</g>
<g>
</g>
<g>
</g>
<g>
</g>
<g>
</g>
<g>
</g>
<g>
</g>
<g>
</g>
<g>
</g>
<g>
</g>
<g>
</g>
</svg>
