<?xml version="1.0" encoding="iso-8859-1"?>
<!-- Generator: Adobe Illustrator 16.0.0, SVG Export Plug-In . SVG Version: 6.00 Build 0)  -->
<!DOCTYPE svg PUBLIC "-//W3C//DTD SVG 1.1//EN" "http://www.w3.org/Graphics/SVG/1.1/DTD/svg11.dtd">
<svg version="1.1" id="Capa_1" xmlns="http://www.w3.org/2000/svg" xmlns:xlink="http://www.w3.org/1999/xlink" x="0px" y="0px"
	 width="410px" height="410px" viewBox="0 0 410 410" style="enable-background:new 0 0 410 410;" xml:space="preserve">
<g>
	<g>
		<path d="M399.188,277.127L163.252,41.189c-6.921-6.922-16.313-10.812-26.101-10.812H68.244c-20.387,0-36.913,16.527-36.913,36.913
			c0,20.387,16.526,36.914,36.913,36.914h53.617l36.679,36.68H57.112c-3.309,0-6.365,1.773-8.01,4.647L1.217,229.256
			C0.419,230.651,0,232.23,0,233.838v33.098h0.001c9.259,0,16.764,7.507,16.764,16.766S9.26,300.466,0.001,300.466l0,0v30.654
			c0,5.096,4.132,9.229,9.228,9.229l39.371-0.006c2.824,22.121,21.758,39.28,44.634,39.28c22.882,0,41.815-17.167,44.635-39.295
			l134.262-0.021c2.812,22.139,21.75,39.316,44.639,39.316c22.896,0,41.839-17.187,44.642-39.332l11.172-0.001
			c7.267,0,19.4-3.748,26.608-10.956C413.604,314.916,413.604,291.543,399.188,277.127z M93.233,358.845
			c-13.363,0-24.237-10.873-24.237-24.236s10.874-24.235,24.237-24.235c13.365,0,24.236,10.872,24.236,24.235
			C117.47,347.973,106.599,358.845,93.233,358.845z M140.425,226.764l-87.521-0.071v-12.041l23.397-40.908h64.123L140.425,226.764
			L140.425,226.764z M176.255,158.599l110.37,110.37h-110.37V158.599z M316.769,358.845c-13.361,0-24.233-10.873-24.233-24.236
			s10.872-24.235,24.233-24.235c13.365,0,24.236,10.872,24.236,24.235C341.005,347.973,330.134,358.845,316.769,358.845z"/>
	</g>
</g>
<g>
</g>
<g>
</g>
<g>
</g>
<g>
</g>
<g>
</g>
<g>
</g>
<g>
</g>
<g>
</g>
<g>
</g>
<g>
</g>
<g>
</g>
<g>
</g>
<g>
</g>
<g>
</g>
<g>
</g>
</svg>
