<?xml version="1.0" encoding="iso-8859-1"?>
<!-- Generator: Adobe Illustrator 16.0.0, SVG Export Plug-In . SVG Version: 6.00 Build 0)  -->
<!DOCTYPE svg PUBLIC "-//W3C//DTD SVG 1.1//EN" "http://www.w3.org/Graphics/SVG/1.1/DTD/svg11.dtd">
<svg version="1.1" id="Capa_1" xmlns="http://www.w3.org/2000/svg" xmlns:xlink="http://www.w3.org/1999/xlink" x="0px" y="0px"
	 width="418.725px" height="418.725px" viewBox="0 0 418.725 418.725" style="enable-background:new 0 0 418.725 418.725;"
	 xml:space="preserve">
<g>
	<g>
		<g>
			<path d="M266.85,228.537H151.875c-9.129,0-16.528,7.399-16.528,16.527c0,9.129,7.399,16.527,16.528,16.527h6.05v81.406
				c0,9.784,7.961,17.745,17.746,17.745h67.382c9.786,0,17.746-7.959,17.746-17.745v-81.406h6.051
				c9.128,0,16.526-7.398,16.526-16.527C283.378,235.938,275.978,228.537,266.85,228.537z M212.999,343.395h-37.328
				c-0.218,0-0.396-0.178-0.396-0.396v-81.406h37.726v81.802H212.999z M243.45,343c0,0.218-0.178,0.396-0.396,0.396H230.35v-81.804
				h13.103L243.45,343L243.45,343z"/>
			<path d="M327.822,0H90.902c-11.896,0-21.54,9.645-21.54,21.541v375.643c0,11.896,9.644,21.541,21.54,21.541h236.92
				c11.896,0,21.54-9.646,21.54-21.541V21.541C349.362,9.645,339.719,0,327.822,0z M314.897,384.26h-211.07V34.465h211.07V384.26z"
				/>
			<path d="M203.037,99.992l-1.368,0.505c-3.988,1.471-6.011,3.813-6.011,6.958c0,4.14,1.649,6.633,5.882,8.896l1.496,0.799
				L203.037,99.992L203.037,99.992z"/>
			<path d="M226.96,148.662c0.043-5.027-2.049-7.816-7.717-10.302l-1.426-0.625v20.24l1.334-0.438
				C224.333,155.836,226.96,152.849,226.96,148.662z"/>
			<path d="M209.362,205.162c41.695,0,75.495-33.8,75.495-75.495s-33.8-75.495-75.495-75.495c-41.695,0-75.495,33.8-75.495,75.495
				S167.667,205.162,209.362,205.162z M179.036,151.67l0.535-0.534c1.321-1.32,3.077-2.047,4.944-2.047
				c1.867,0,3.622,0.726,4.943,2.045c3.051,3.049,7.419,5.453,12.297,6.766l1.281,0.346v-25.231l-0.688-0.234
				c-14.446-4.896-21.469-13.18-21.469-25.326c0-11.347,7.979-19.729,21.342-22.426l0.815-0.165v-5.363
				c0-3.857,3.138-6.995,6.995-6.995h0.792c3.855,0,6.993,3.138,6.993,6.995v4.993l0.862,0.132
				c6.004,0.918,11.765,2.91,16.222,5.606c1.591,0.964,2.751,2.555,3.183,4.363c0.431,1.806,0.113,3.748-0.873,5.325l-0.354,0.568
				c-1.287,2.059-3.506,3.288-5.938,3.288c-1.262,0-2.502-0.344-3.591-0.996c-2.21-1.327-5.07-2.398-8.277-3.099l-1.233-0.27v22.67
				l0.708,0.226c10.874,3.472,23.339,9.616,23.212,26.446c0,12.376-8.632,21.414-23.093,24.167l-0.827,0.157v6.756
				c0,3.856-3.138,6.994-6.993,6.994h-0.792c-3.857,0-6.995-3.138-6.995-6.994v-6.603l-0.844-0.146
				c-8.711-1.503-17.124-5.674-23.079-11.442c-1.338-1.297-2.114-3.108-2.128-4.97C176.972,154.809,177.719,152.986,179.036,151.67z
				"/>
		</g>
	</g>
</g>
<g>
</g>
<g>
</g>
<g>
</g>
<g>
</g>
<g>
</g>
<g>
</g>
<g>
</g>
<g>
</g>
<g>
</g>
<g>
</g>
<g>
</g>
<g>
</g>
<g>
</g>
<g>
</g>
<g>
</g>
</svg>
