<?xml version="1.0" encoding="iso-8859-1"?>
<!-- Generator: Adobe Illustrator 16.0.0, SVG Export Plug-In . SVG Version: 6.00 Build 0)  -->
<!DOCTYPE svg PUBLIC "-//W3C//DTD SVG 1.1//EN" "http://www.w3.org/Graphics/SVG/1.1/DTD/svg11.dtd">
<svg version="1.1" id="Capa_1" xmlns="http://www.w3.org/2000/svg" xmlns:xlink="http://www.w3.org/1999/xlink" x="0px" y="0px"
	 width="399.998px" height="399.998px" viewBox="0 0 399.998 399.998" style="enable-background:new 0 0 399.998 399.998;"
	 xml:space="preserve">
<g>
	<g>
		<path d="M387.243,268.165v-42.676c0-13.358-5.347-26.164-14.847-35.557l-17.768-17.563l-17.124-85.926
			c-4.661-23.387-25.188-40.228-49.036-40.228H273.73v-9.242c0-12.083-9.798-21.879-21.881-21.879H148.148
			c-12.084,0-21.879,9.796-21.879,21.879v9.242h-14.74c-23.847,0-44.375,16.841-49.036,40.228L45.369,172.37l-17.766,17.563
			c-9.5,9.393-14.847,22.197-14.847,35.556v42.683C5.004,274.188,0,283.588,0,294.14v21.189c0,18.123,14.744,32.866,32.868,32.866
			h9.446v26.83c0,5.455,4.423,9.878,9.878,9.878h41.616c5.454,0,9.877-4.423,9.877-9.878v-26.83h192.629v26.83
			c0,5.455,4.423,9.878,9.878,9.878h41.614c5.454,0,9.877-4.423,9.877-9.878v-26.83h9.445c18.125,0,32.869-14.743,32.869-32.866
			V294.14C400,283.72,395.066,274.239,387.243,268.165z M330,245.551c0,11.38-7.181,21.08-17.258,24.823h-18.438
			c-10.075-3.743-17.258-13.443-17.258-24.823c0-14.622,11.855-26.476,26.479-26.476C318.146,219.075,330,230.929,330,245.551z
			 M160,43.028c0-1.523,1.235-2.759,2.759-2.759h12.138V28.132c0-1.523,1.234-2.758,2.758-2.758h14.896
			c1.524,0,2.76,1.234,2.76,2.758V40.27h9.378V28.132c0-1.523,1.234-2.758,2.761-2.758h14.896c1.522,0,2.758,1.234,2.758,2.758
			V40.27h12.14c1.521,0,2.759,1.235,2.759,2.759v14.896c0,1.522-1.235,2.758-2.759,2.758h-14.896c-1.524,0-2.761-1.235-2.761-2.758
			V45.787h-9.378v12.138c0,1.523-1.234,2.758-2.758,2.758h-14.898c-1.523,0-2.758-1.234-2.758-2.758V45.787h-9.379v12.138
			c0,1.522-1.234,2.758-2.76,2.758h-14.896c-1.523,0-2.759-1.235-2.759-2.758V43.028L160,43.028z M102.911,102.027
			c2.804-14.088,15.176-24.234,29.54-24.234h135.098c14.364,0,26.734,10.146,29.54,24.234l10.316,51.766H92.595L102.911,102.027z
			 M246.918,252.181c0,8.092-4.814,15.045-11.729,18.193H164.81c-6.914-3.148-11.729-10.103-11.729-18.193c0-11.046,8.954-20,20-20
			h53.836C237.963,232.181,246.918,241.135,246.918,252.181z M96.477,219.075c14.622,0,26.477,11.854,26.477,26.476
			c0,11.38-7.181,21.08-17.258,24.823H87.258C77.18,266.631,70,256.931,70,245.551C70,230.929,81.854,219.075,96.477,219.075z
			 M367.375,315.329c0,0.131-0.111,0.241-0.244,0.241H32.868c-0.132,0-0.243-0.11-0.243-0.241V294.14
			c0-0.132,0.111-0.242,0.243-0.242h334.263c0.133,0,0.244,0.11,0.244,0.242V315.329L367.375,315.329z"/>
	</g>
</g>
<g>
</g>
<g>
</g>
<g>
</g>
<g>
</g>
<g>
</g>
<g>
</g>
<g>
</g>
<g>
</g>
<g>
</g>
<g>
</g>
<g>
</g>
<g>
</g>
<g>
</g>
<g>
</g>
<g>
</g>
</svg>
