<?xml version="1.0" encoding="iso-8859-1"?>
<!-- Generator: Adobe Illustrator 16.0.0, SVG Export Plug-In . SVG Version: 6.00 Build 0)  -->
<!DOCTYPE svg PUBLIC "-//W3C//DTD SVG 1.1//EN" "http://www.w3.org/Graphics/SVG/1.1/DTD/svg11.dtd">
<svg version="1.1" id="Capa_1" xmlns="http://www.w3.org/2000/svg" xmlns:xlink="http://www.w3.org/1999/xlink" x="0px" y="0px"
	 width="403.54px" height="403.54px" viewBox="0 0 403.54 403.54" style="enable-background:new 0 0 403.54 403.54;"
	 xml:space="preserve">
<g>
	<g>
		<g>
			<path d="M389.846,184.741c-13.562-16.091-38.631-24.508-67.555-24.508c-2.129-3.538-5.994-5.912-10.424-5.912H12.171
				C5.449,154.321,0,159.77,0,166.491c0,54.27,16.494,105.413,46.445,144.009c30.659,39.512,71.705,61.27,115.574,61.27
				c42.159,0,81.704-20.104,111.934-56.736c12.207-0.015,23.221-0.026,26.352-0.026c20.976,0,43.142-6.082,60.813-16.69
				c22.721-13.638,36.906-33.525,41.026-57.513C407.033,212.329,398.154,194.6,389.846,184.741z M37.514,206.095
				c-0.909-4.791-1.806-11.533-1.603-16.089c0.342-7.659,6.605-13.66,14.258-13.66c0.218,0,0.437,0.005,0.661,0.016
				c7.865,0.351,13.986,7.034,13.646,14.899l-0.004,0.112c-0.039,1.994,0.645,6.823,1.134,9.399
				c0.711,3.751-0.082,7.555-2.232,10.711c-2.15,3.155-5.4,5.285-9.152,5.996c-0.887,0.169-1.79,0.253-2.684,0.253
				C44.689,217.733,38.791,212.838,37.514,206.095z M101.194,304.072c-2.648,2.448-6.093,3.798-9.698,3.798
				c-4.035,0-7.766-1.632-10.503-4.594c-12.766-13.812-23.187-30.765-30.974-50.388c-1.409-3.55-1.351-7.436,0.163-10.938
				c1.514-3.507,4.303-6.214,7.851-7.621c1.694-0.672,3.466-1.015,5.268-1.015c5.899,0,11.117,3.544,13.293,9.028
				c6.483,16.338,15.027,30.31,25.396,41.526c2.592,2.806,3.937,6.45,3.786,10.268C105.626,297.952,103.999,301.479,101.194,304.072
				z M364.57,234.349c-5.322,30.987-42.244,42.535-64.267,42.535c-0.397,0-0.934,0-1.571,0
				c11.977-23.757,19.909-50.348,23.348-78.356c0,0,2.096-0.129,2.9-0.129c16.778,0,29.801,3.895,35.715,10.911
				C365.203,214.657,366.508,223.081,364.57,234.349z"/>
			<path d="M97.616,121.841c2.818,1.558,6.002,2.38,9.206,2.38c6.942,0,13.34-3.772,16.696-9.844l30.02-54.324
				c2.464-4.456,3.044-9.604,1.634-14.496c-1.409-4.894-4.64-8.944-9.096-11.405c-2.819-1.558-6.002-2.382-9.207-2.382
				c-6.943,0-13.341,3.772-16.696,9.844L90.152,95.938c-2.462,4.456-3.042,9.604-1.633,14.498
				C89.929,115.328,93.159,119.378,97.616,121.841z"/>
			<path d="M177.962,121.841c2.818,1.558,6.002,2.38,9.207,2.38c6.941,0,13.339-3.772,16.696-9.844l30.02-54.324
				c2.463-4.456,3.043-9.604,1.633-14.496c-1.407-4.894-4.639-8.944-9.096-11.405c-2.818-1.558-6.002-2.382-9.207-2.382
				c-6.943,0-13.341,3.772-16.696,9.844l-30.021,54.324c-2.463,4.456-3.042,9.604-1.634,14.498
				C170.275,115.328,173.506,119.378,177.962,121.841z"/>
		</g>
	</g>
</g>
<g>
</g>
<g>
</g>
<g>
</g>
<g>
</g>
<g>
</g>
<g>
</g>
<g>
</g>
<g>
</g>
<g>
</g>
<g>
</g>
<g>
</g>
<g>
</g>
<g>
</g>
<g>
</g>
<g>
</g>
</svg>
