<?xml version="1.0" encoding="iso-8859-1"?>
<!-- Generator: Adobe Illustrator 16.0.0, SVG Export Plug-In . SVG Version: 6.00 Build 0)  -->
<!DOCTYPE svg PUBLIC "-//W3C//DTD SVG 1.1//EN" "http://www.w3.org/Graphics/SVG/1.1/DTD/svg11.dtd">
<svg version="1.1" id="Capa_1" xmlns="http://www.w3.org/2000/svg" xmlns:xlink="http://www.w3.org/1999/xlink" x="0px" y="0px"
	 width="374.999px" height="375px" viewBox="0 0 374.999 375" style="enable-background:new 0 0 374.999 375;" xml:space="preserve"
	>
<g>
	<g>
		<g>
			<path d="M310,93.962h-8.098l2.082-27.049c0.166-2.144-0.572-4.258-2.032-5.835c-1.461-1.578-3.516-2.474-5.663-2.474H246.13
				c-2.146,0-4.201,0.896-5.661,2.474c-1.461,1.577-2.196,3.691-2.031,5.835l2.08,27.049H227.5
				c-23.038,0-44.557,12.365-56.158,32.269l-62.791,107.731H65c-35.841,0-65,29.159-65,65c0,35.842,29.159,65,65,65h80.9
				c23.038,0,44.557-12.365,56.157-32.27l62.792-107.73h45.15c35.841,0,65-29.159,65-65S345.841,93.962,310,93.962z M310,183.962
				h-56.643c-7.117,0-13.695,3.781-17.279,9.931l-68.579,117.658c-4.462,7.655-12.739,12.411-21.599,12.411H65
				c-13.785,0-25-11.215-25-25s11.215-25,25-25h55.043c7.116,0,13.696-3.781,17.279-9.93L205.9,146.374
				c4.463-7.656,12.737-12.411,21.6-12.411H310c13.785,0,25,11.215,25,25C335,172.748,323.785,183.962,310,183.962z"/>
			<circle cx="271.209" cy="33.646" r="22.609"/>
			<path d="M325.963,258.881c-2.188-1.287-4.683-1.968-7.212-1.968c-5.029,0-9.735,2.689-12.282,7.021l-27.792,47.236l-0.39-1.505
				c-0.954-3.682-3.284-6.771-6.563-8.702c-3.23-1.898-7.157-2.453-10.794-1.51c-7.6,1.97-12.181,9.755-10.212,17.354l9.018,34.783
				c1.627,6.281,7.293,10.67,13.775,10.67c1.203,0,2.407-0.153,3.578-0.459l34.782-9.016c7.6-1.969,12.181-9.754,10.212-17.354
				c-1.627-6.283-7.292-10.671-13.777-10.671c-1.203,0-2.404,0.153-3.58,0.457l-1.504,0.392l27.792-47.238
				C334.994,271.607,332.729,262.863,325.963,258.881z"/>
		</g>
	</g>
</g>
<g>
</g>
<g>
</g>
<g>
</g>
<g>
</g>
<g>
</g>
<g>
</g>
<g>
</g>
<g>
</g>
<g>
</g>
<g>
</g>
<g>
</g>
<g>
</g>
<g>
</g>
<g>
</g>
<g>
</g>
</svg>
