<?xml version="1.0" encoding="iso-8859-1"?>
<!-- Generator: Adobe Illustrator 16.0.0, SVG Export Plug-In . SVG Version: 6.00 Build 0)  -->
<!DOCTYPE svg PUBLIC "-//W3C//DTD SVG 1.1//EN" "http://www.w3.org/Graphics/SVG/1.1/DTD/svg11.dtd">
<svg version="1.1" id="Capa_1" xmlns="http://www.w3.org/2000/svg" xmlns:xlink="http://www.w3.org/1999/xlink" x="0px" y="0px"
	 width="370px" height="370.001px" viewBox="0 0 370 370.001" style="enable-background:new 0 0 370 370.001;" xml:space="preserve"
	>
<g>
	<g>
		<g>
			<polygon points="152.555,293.018 175.832,293.018 164.078,267.616 			"/>
			<path d="M352.586,0H17.415C8.643,0,1.53,7.111,1.53,15.888v338.224c0,8.775,7.113,15.889,15.885,15.889h335.171
				c8.771,0,15.886-7.112,15.886-15.889V15.888C368.471,7.111,361.358,0,352.586,0z M137.676,85.21l36.059-36.06
				c6.222-6.221,16.311-6.221,22.532,0l36.056,36.054c6.223,6.225,6.223,16.314,0.002,22.536c-6.228,6.223-16.311,6.223-22.537,0
				l-8.853-8.854v55.279c0,8.801-7.134,15.933-15.936,15.933c-8.801,0-15.932-7.132-15.932-15.933V98.886l-8.854,8.854
				c-3.112,3.11-7.191,4.668-11.268,4.668c-4.08,0-8.157-1.558-11.271-4.668C131.455,101.519,131.455,91.43,137.676,85.21z
				 M200.935,191.079v11.771c0,8.798-7.134,15.935-15.937,15.935c-8.801,0-15.932-7.135-15.932-15.935v-11.771
				c0-8.801,7.13-15.932,15.932-15.932C193.801,175.147,200.935,182.278,200.935,191.079z M116.414,311.52
				c0,1.777-0.779,3.466-2.125,4.623c-7.509,6.442-17.059,9.993-26.882,9.993c-22.387,0-40.597-17.814-40.597-39.714
				c0-21.845,18.21-39.613,40.597-39.613c9.626,0,18.989,3.388,26.361,9.539c1.312,1.095,2.103,2.693,2.182,4.4
				c0.074,1.708-0.57,3.374-1.779,4.583l-0.194,0.19c-2.238,2.239-5.821,2.39-8.238,0.349c-4.989-4.218-11.496-6.537-18.331-6.537
				c-15.479,0-28.074,12.153-28.074,27.089c0,14.99,12.595,27.191,28.074,27.191c5.941,0,11.674-1.813,16.381-5.14v-14.235H88.838
				c-3.362,0-6.087-2.729-6.087-6.092v-0.272c0-3.364,2.725-6.093,6.087-6.093h21.486c3.362,0,6.091,2.729,6.091,6.093
				L116.414,311.52L116.414,311.52z M200.881,323.325c-1.118,1.75-3.051,2.81-5.131,2.81h-0.582c-2.375,0-4.535-1.385-5.531-3.545
				l-7.996-17.38h-34.814l-7.903,17.356c-0.989,2.176-3.155,3.567-5.541,3.567h-0.685c-2.074,0-4.003-1.055-5.123-2.799
				c-1.122-1.748-1.276-3.938-0.414-5.826l30.74-67.149c0.995-2.161,3.156-3.552,5.538-3.552h0.435c0.053,0,0.103,0,0.153,0
				c0.05,0,0.098,0,0.15,0h0.45c2.372,0,4.529,1.378,5.525,3.529l31.123,67.146C202.15,319.37,202.002,321.572,200.881,323.325z
				 M256.397,253.338c0,3.364-2.729,6.094-6.094,6.094h-17.488v60.614c0,3.363-2.726,6.09-6.087,6.09h-0.44
				c-3.365,0-6.094-2.727-6.094-6.09v-60.614h-17.488c-3.365,0-6.086-2.729-6.086-6.094v-0.44c0-3.363,2.721-6.089,6.086-6.089
				h47.601c3.362,0,6.092,2.726,6.092,6.089L256.397,253.338L256.397,253.338z M323.192,320.045c0,3.363-2.726,6.09-6.088,6.09
				h-42.783c-3.365,0-6.094-2.727-6.094-6.09v-67.148c0-3.362,2.729-6.088,6.094-6.088h41.406c3.362,0,6.094,2.726,6.094,6.088
				v0.441c0,3.364-2.73,6.094-6.094,6.094H280.85v19.695h30.356c3.365,0,6.088,2.729,6.088,6.091v0.442
				c0,3.363-2.723,6.091-6.088,6.091H280.85v21.761h36.254c3.363,0,6.088,2.728,6.088,6.092V320.045L323.192,320.045z"/>
		</g>
	</g>
</g>
<g>
</g>
<g>
</g>
<g>
</g>
<g>
</g>
<g>
</g>
<g>
</g>
<g>
</g>
<g>
</g>
<g>
</g>
<g>
</g>
<g>
</g>
<g>
</g>
<g>
</g>
<g>
</g>
<g>
</g>
</svg>
