<?xml version="1.0" encoding="iso-8859-1"?>
<!-- Generator: Adobe Illustrator 16.0.0, SVG Export Plug-In . SVG Version: 6.00 Build 0)  -->
<!DOCTYPE svg PUBLIC "-//W3C//DTD SVG 1.1//EN" "http://www.w3.org/Graphics/SVG/1.1/DTD/svg11.dtd">
<svg version="1.1" id="Capa_1" xmlns="http://www.w3.org/2000/svg" xmlns:xlink="http://www.w3.org/1999/xlink" x="0px" y="0px"
	 width="383.859px" height="383.859px" viewBox="0 0 383.859 383.859" style="enable-background:new 0 0 383.859 383.859;"
	 xml:space="preserve">
<g>
	<g>
		<g>
			<path d="M191.93,212.678c20.195,0,36.562-16.371,36.562-36.563c0-20.193-16.366-36.568-36.562-36.568
				c-20.196,0-36.564,16.375-36.564,36.568C155.366,196.307,171.734,212.678,191.93,212.678z"/>
			<path d="M278.344,45.901H221.51V9.86c0-5.446-4.415-9.86-9.861-9.86h-39.439c-5.445,0-9.86,4.414-9.86,9.86v36.042h-56.834
				c-21.313,0-38.586,17.276-38.586,38.588v260.781c0,21.312,17.273,38.588,38.586,38.588h172.828
				c21.312,0,38.586-17.277,38.586-38.588V84.49C316.93,63.177,299.656,45.901,278.344,45.901z M179.152,14.307h25.557
				c3.47,0,6.282,2.813,6.282,6.285c0,3.472-2.812,6.286-6.282,6.286h-25.557c-3.47,0-6.284-2.814-6.284-6.286
				C172.868,17.12,175.682,14.307,179.152,14.307z M159.49,58.997h2.86v2.571c0,5.446,4.415,9.86,9.86,9.86h39.438
				c5.446,0,9.861-4.414,9.861-9.86v-2.571h2.859c5.919,0,10.714,4.797,10.714,10.714s-4.795,10.714-10.714,10.714H159.49
				c-5.918,0-10.714-4.798-10.714-10.714C148.776,63.794,153.572,58.997,159.49,58.997z M125.638,130.059h132.584V255.59h-15.263
				l1.976-25.674c0.269-3.466-0.924-6.886-3.286-9.438c-2.362-2.551-5.683-4-9.156-4h-81.124c-3.476,0-6.794,1.449-9.157,4
				c-2.362,2.553-3.553,5.973-3.286,9.438l1.975,25.674h-15.262L125.638,130.059L125.638,130.059z M256.664,328.641H127.196
				c-6.655,0-12.052-5.396-12.052-12.055c0-6.656,5.396-12.053,12.052-12.053h129.469c6.653,0,12.052,5.396,12.052,12.053
				C268.716,323.243,263.319,328.641,256.664,328.641z"/>
		</g>
	</g>
</g>
<g>
</g>
<g>
</g>
<g>
</g>
<g>
</g>
<g>
</g>
<g>
</g>
<g>
</g>
<g>
</g>
<g>
</g>
<g>
</g>
<g>
</g>
<g>
</g>
<g>
</g>
<g>
</g>
<g>
</g>
</svg>
