<?xml version="1.0" encoding="iso-8859-1"?>
<!-- Generator: Adobe Illustrator 16.0.0, SVG Export Plug-In . SVG Version: 6.00 Build 0)  -->
<!DOCTYPE svg PUBLIC "-//W3C//DTD SVG 1.1//EN" "http://www.w3.org/Graphics/SVG/1.1/DTD/svg11.dtd">
<svg version="1.1" id="Capa_1" xmlns="http://www.w3.org/2000/svg" xmlns:xlink="http://www.w3.org/1999/xlink" x="0px" y="0px"
	 width="378.515px" height="378.515px" viewBox="0 0 378.515 378.515" style="enable-background:new 0 0 378.515 378.515;"
	 xml:space="preserve">
<g>
	<g>
		<g>
			<path d="M117.51,148.617c3.65-2.385,7.895-4.574,12.698-6.528c4.708-1.912,9.867-3.568,15.359-4.957
				c1.994-8.735,4.727-16.82,8.125-23.918c1.698-3.537,3.528-6.767,5.482-9.684C139.696,111.986,124.438,128.383,117.51,148.617z"/>
			<path d="M137.054,158.938c-12,4.873-17.373,10.629-17.373,14.17c0,3.539,5.373,9.297,17.373,14.171
				c1.719,0.698,3.514,1.359,5.377,1.978c-0.495-5.274-0.748-10.676-0.748-16.149s0.253-10.874,0.748-16.15
				C140.568,157.577,138.773,158.24,137.054,158.938z"/>
			<path d="M167.021,212.923c1.291,4.129,2.786,7.996,4.485,11.544c5.23,10.918,11.869,17.437,17.752,17.437
				s12.521-6.519,17.752-17.437c1.699-3.548,3.193-7.416,4.484-11.544c-7.166,0.812-14.633,1.231-22.236,1.231
				C181.654,214.154,174.187,213.734,167.021,212.923z"/>
			<path d="M211.494,133.294c-1.291-4.129-2.785-7.998-4.484-11.543c-5.23-10.918-11.869-17.435-17.752-17.435
				s-12.521,6.517-17.752,17.435c-1.699,3.546-3.194,7.414-4.485,11.543c7.166-0.811,14.634-1.231,22.237-1.231
				C196.861,132.063,204.328,132.483,211.494,133.294z"/>
			<path d="M145.568,209.085c-5.492-1.39-10.651-3.047-15.359-4.958c-4.804-1.954-9.048-4.145-12.698-6.528
				c6.928,20.234,22.187,36.63,41.665,45.086c-1.954-2.917-3.784-6.146-5.482-9.682C150.294,225.904,147.562,217.82,145.568,209.085
				z"/>
			<path d="M232.945,209.085c-1.991,8.735-4.726,16.819-8.122,23.918c-1.698,3.537-3.528,6.767-5.482,9.683
				c19.479-8.457,34.737-24.853,41.665-45.087c-3.65,2.385-7.896,4.574-12.698,6.528
				C243.598,206.038,238.441,207.695,232.945,209.085z"/>
			<path d="M286.04,0H92.474C68.604,0,49.257,19.35,49.257,43.219v292.077c0,23.869,19.346,43.219,43.217,43.219H286.04
				c23.872,0,43.218-19.35,43.218-43.219V43.218C329.257,19.35,309.912,0,286.04,0z M266.678,315.345H111.836
				c-7.706,0-13.952-6.248-13.952-13.954s6.246-13.953,13.952-13.953h154.842c7.706,0,13.951,6.248,13.951,13.953
				C280.629,309.097,274.384,315.345,266.678,315.345z M189.257,267.632c-52.124,0-94.525-42.398-94.525-94.524
				c0-52.122,42.401-94.524,94.525-94.524s94.525,42.402,94.525,94.524C283.783,225.232,241.381,267.632,189.257,267.632z"/>
			<path d="M189.257,150.248c-9.198,0-18.104,0.665-26.394,1.929c-0.938,6.683-1.429,13.717-1.429,20.931s0.491,14.247,1.429,20.93
				c8.289,1.267,17.195,1.931,26.394,1.931s18.104-0.664,26.393-1.931c0.938-6.683,1.432-13.716,1.432-20.93
				s-0.491-14.249-1.432-20.931C207.361,150.912,198.456,150.248,189.257,150.248z"/>
			<path d="M219.339,103.53c1.954,2.917,3.784,6.147,5.482,9.684c3.396,7.098,6.131,15.183,8.122,23.918
				c5.494,1.389,10.652,3.045,15.36,4.957c4.804,1.954,9.048,4.144,12.698,6.528C254.077,128.383,238.818,111.986,219.339,103.53z"
				/>
			<path d="M241.461,187.279c11.999-4.875,17.372-10.632,17.372-14.171c0-3.541-5.373-9.297-17.372-14.17
				c-1.72-0.698-3.515-1.361-5.378-1.98c0.494,5.276,0.748,10.677,0.748,16.15s-0.254,10.875-0.748,16.149
				C237.947,188.639,239.742,187.977,241.461,187.279z"/>
		</g>
	</g>
</g>
<g>
</g>
<g>
</g>
<g>
</g>
<g>
</g>
<g>
</g>
<g>
</g>
<g>
</g>
<g>
</g>
<g>
</g>
<g>
</g>
<g>
</g>
<g>
</g>
<g>
</g>
<g>
</g>
<g>
</g>
</svg>
