<?xml version="1.0" encoding="iso-8859-1"?>
<!-- Generator: Adobe Illustrator 16.0.0, SVG Export Plug-In . SVG Version: 6.00 Build 0)  -->
<!DOCTYPE svg PUBLIC "-//W3C//DTD SVG 1.1//EN" "http://www.w3.org/Graphics/SVG/1.1/DTD/svg11.dtd">
<svg version="1.1" id="Capa_1" xmlns="http://www.w3.org/2000/svg" xmlns:xlink="http://www.w3.org/1999/xlink" x="0px" y="0px"
	 width="430px" height="430px" viewBox="0 0 430 430" style="enable-background:new 0 0 430 430;" xml:space="preserve">
<g>
	<g>
		<g>
			<circle cx="159.302" cy="158.884" r="31.189"/>
			<path d="M193.898,193.315h-69.192c-2.965,0-5.796,1.237-7.811,3.412c-2.016,2.177-3.031,5.094-2.805,8.05l4.911,63.825
				c0.209,2.723,1.456,5.261,3.483,7.089l11.2,10.102v64.543c0,5.879,4.766,10.646,10.645,10.646h4.659
				c4.965,0,9.135-3.396,10.313-7.994c1.178,4.597,5.348,7.994,10.313,7.994h4.66c5.878,0,10.646-4.767,10.646-10.646v-64.542
				l11.198-10.103c2.028-1.828,3.275-4.366,3.484-7.089l4.911-63.825c0.228-2.956-0.788-5.874-2.803-8.05
				C199.694,194.552,196.864,193.315,193.898,193.315z"/>
			<path d="M270.697,190.073c17.228,0,31.188-13.962,31.188-31.188c0-17.225-13.961-31.19-31.188-31.19
				c-17.225,0-31.188,13.965-31.188,31.19C239.51,176.11,253.473,190.073,270.697,190.073z"/>
			<path d="M228.291,196.727c-2.016,2.177-3.031,5.094-2.805,8.05l4.912,63.825c0.209,2.723,1.455,5.261,3.483,7.089l11.197,10.102
				v64.543c0,5.879,4.768,10.646,10.646,10.646h4.658c4.966,0,9.137-3.396,10.313-7.994c1.179,4.597,5.349,7.994,10.313,7.994h4.66
				c5.877,0,10.646-4.767,10.646-10.646v-64.542l11.199-10.103c2.027-1.828,3.273-4.366,3.484-7.089l4.909-63.825
				c0.228-2.956-0.789-5.874-2.805-8.05c-2.016-2.174-4.846-3.412-7.811-3.412H236.1
				C233.137,193.315,230.306,194.552,228.291,196.727z"/>
			<path d="M349.572,58.674h-90.383c4.868-10.026,3.152-22.47-5.161-30.785L234.02,7.88C228.939,2.799,222.185,0,215,0
				c-7.186,0-13.94,2.799-19.019,7.879L175.969,27.89c-8.313,8.314-10.027,20.759-5.16,30.784H80.428
				c-7.661,0-13.871,6.211-13.871,13.872v343.583c0,7.661,6.21,13.871,13.871,13.871h269.145c7.662,0,13.871-6.21,13.871-13.871
				V72.546C363.443,64.886,357.232,58.674,349.572,58.674z M189.048,40.967l20.011-20.011c3.281-3.282,8.602-3.282,11.882,0
				l20.011,20.011c3.281,3.282,3.281,8.6,0,11.881c-1.642,1.641-3.791,2.462-5.94,2.462c-2.151,0-4.301-0.821-5.941-2.462
				l-5.667-5.667v36.65c0,4.641-3.762,8.402-8.402,8.402s-8.402-3.762-8.402-8.402v-36.65l-5.667,5.667
				c-3.281,3.282-8.601,3.282-11.882,0C185.767,49.567,185.767,44.249,189.048,40.967z M335.699,402.257H94.3V86.417h93.929
				c1.306,13.622,12.812,24.311,26.771,24.311c13.959,0,25.465-10.689,26.771-24.311h93.929V402.257z"/>
		</g>
	</g>
</g>
<g>
</g>
<g>
</g>
<g>
</g>
<g>
</g>
<g>
</g>
<g>
</g>
<g>
</g>
<g>
</g>
<g>
</g>
<g>
</g>
<g>
</g>
<g>
</g>
<g>
</g>
<g>
</g>
<g>
</g>
</svg>
