<?xml version="1.0" encoding="iso-8859-1"?>
<!-- Generator: Adobe Illustrator 16.0.0, SVG Export Plug-In . SVG Version: 6.00 Build 0)  -->
<!DOCTYPE svg PUBLIC "-//W3C//DTD SVG 1.1//EN" "http://www.w3.org/Graphics/SVG/1.1/DTD/svg11.dtd">
<svg version="1.1" id="Capa_1" xmlns="http://www.w3.org/2000/svg" xmlns:xlink="http://www.w3.org/1999/xlink" x="0px" y="0px"
	 width="421.073px" height="421.073px" viewBox="0 0 421.073 421.073" style="enable-background:new 0 0 421.073 421.073;"
	 xml:space="preserve">
<g>
	<g>
		<g>
			<path d="M141.473,262.383c0-28.162,11.857-53.606,30.84-71.608H78.176c-7.363,0-13.332-5.97-13.332-13.333
				c0-7.363,5.969-13.333,13.332-13.333h108.668c5.642,0,10.454,3.51,12.401,8.462c12.479-5.711,26.345-8.899,40.939-8.899
				c1.278,0,2.552,0.032,3.817,0.081c-4.854-22.331-21.999-40.074-43.996-45.79V30h0.836c8.284,0,15-6.716,15-15s-6.717-15-15-15
				h-15.836H80.012H64.176c-8.284,0-15,6.716-15,15s6.716,15,15,15h0.836v87.961c-26.107,6.783-45.383,30.509-45.383,58.738v154.147
				c0,28.361,19.457,52.175,45.75,58.83v5.098c0,7.901,6.43,14.333,14.334,14.333c7.902,0,14.332-6.432,14.332-14.333v-3.237h76.93
				v3.237c0,7.901,6.43,14.333,14.332,14.333c7.902,0,14.334-6.432,14.334-14.333v-5.098c16.096-4.073,29.621-14.586,37.696-28.627
				C184.219,359.538,141.473,315.86,141.473,262.383z M95.012,30h74.996v86.011H95.012V30z"/>
			<path d="M396.343,391.344l-83.395-83.396c8.547-13.121,13.521-28.771,13.521-45.563c0-46.16-37.554-83.714-83.713-83.714
				s-83.713,37.554-83.713,83.714c0,46.158,37.554,83.713,83.713,83.713c16.793,0,32.444-4.976,45.565-13.521l83.395,83.396
				c3.401,3.399,7.856,5.101,12.313,5.101c4.456,0,8.914-1.7,12.312-5.101C403.144,409.17,403.144,398.145,396.343,391.344z
				 M242.756,319.975c-31.757,0-57.593-25.836-57.593-57.592c0-31.758,25.836-57.593,57.593-57.593s57.593,25.835,57.593,57.593
				C300.349,294.139,274.513,319.975,242.756,319.975z"/>
			<path d="M269.304,236.939c-1.552-1.554-4.066-1.554-5.62,0l-28.515,28.518l-10.845-10.846c-1.554-1.554-4.068-1.554-5.62,0
				l-8.035,8.03c-1.554,1.554-1.554,4.07,0,5.623l21.687,21.688c1.554,1.553,4.076,1.553,5.629,0l39.354-39.357
				c1.554-1.554,1.554-4.069,0-5.623L269.304,236.939z"/>
		</g>
	</g>
</g>
<g>
</g>
<g>
</g>
<g>
</g>
<g>
</g>
<g>
</g>
<g>
</g>
<g>
</g>
<g>
</g>
<g>
</g>
<g>
</g>
<g>
</g>
<g>
</g>
<g>
</g>
<g>
</g>
<g>
</g>
</svg>
