<?xml version="1.0" encoding="iso-8859-1"?>
<!-- Generator: Adobe Illustrator 16.0.0, SVG Export Plug-In . SVG Version: 6.00 Build 0)  -->
<!DOCTYPE svg PUBLIC "-//W3C//DTD SVG 1.1//EN" "http://www.w3.org/Graphics/SVG/1.1/DTD/svg11.dtd">
<svg version="1.1" id="Capa_1" xmlns="http://www.w3.org/2000/svg" xmlns:xlink="http://www.w3.org/1999/xlink" x="0px" y="0px"
	 width="431.308px" height="431.308px" viewBox="0 0 431.308 431.308" style="enable-background:new 0 0 431.308 431.308;"
	 xml:space="preserve">
<g>
	<g>
		<g>
			<circle cx="249.448" cy="371.121" r="26.5"/>
			<circle cx="351.448" cy="371.121" r="26.5"/>
			<path d="M426.426,100.409c-3.801-4.386-9.313-6.905-15.116-6.905c-0.005,0-0.011,0-0.015,0L99.618,93.672L68.574,43.208
				c-3.641-5.917-10.089-9.521-17.035-9.521c-0.01,0-0.021,0-0.031,0l-31.539,0.05C8.923,33.755-0.017,42.723,0,53.769
				c0.018,11.035,8.969,19.968,19.999,19.968c0.011,0,0.021,0,0.032,0l20.341-0.032l151.431,245.338
				c3.653,5.854,10.066,9.41,16.967,9.41h179c11.047,0,20-8.954,20-20s-8.953-20-20-20H219.863l-10.499-16.818h181.943
				c9.938,0,18.37-7.299,19.794-17.136l19.999-138.13C431.934,110.622,430.227,104.798,426.426,100.409z M392.409,199.784
				l-1.717,10.732c-0.983,6.146-6.294,10.527-12.327,10.527c-0.657,0-1.321-0.053-1.99-0.158
				c-6.815-1.092-11.459-7.501-10.368-14.318l1.718-10.732c1.091-6.817,7.509-11.458,14.316-10.369
				C388.857,186.557,393.5,192.967,392.409,199.784z M403.39,131.162l-5.577,34.858c-0.983,6.148-6.295,10.527-12.327,10.527
				c-0.657,0-1.322-0.052-1.991-0.159c-6.815-1.091-11.458-7.501-10.367-14.318l5.578-34.858
				c1.091-6.817,7.513-11.464,14.318-10.368C399.839,117.935,404.48,124.345,403.39,131.162z"/>
		</g>
	</g>
</g>
<g>
</g>
<g>
</g>
<g>
</g>
<g>
</g>
<g>
</g>
<g>
</g>
<g>
</g>
<g>
</g>
<g>
</g>
<g>
</g>
<g>
</g>
<g>
</g>
<g>
</g>
<g>
</g>
<g>
</g>
</svg>
