<?xml version="1.0" encoding="iso-8859-1"?>
<!-- Generator: Adobe Illustrator 16.0.0, SVG Export Plug-In . SVG Version: 6.00 Build 0)  -->
<!DOCTYPE svg PUBLIC "-//W3C//DTD SVG 1.1//EN" "http://www.w3.org/Graphics/SVG/1.1/DTD/svg11.dtd">
<svg version="1.1" id="Capa_1" xmlns="http://www.w3.org/2000/svg" xmlns:xlink="http://www.w3.org/1999/xlink" x="0px" y="0px"
	 width="430px" height="430px" viewBox="0 0 430 430" style="enable-background:new 0 0 430 430;" xml:space="preserve">
<g>
	<g>
		<g>
			<path d="M215.004,0c-8.038,0-14.554,6.516-14.554,14.554v400.892c0,8.038,6.516,14.554,14.554,14.554s14.555-6.516,14.555-14.554
				V14.554C229.558,6.516,223.042,0,215.004,0z"/>
			<path d="M84.783,134.137c25.672,0,46.477-20.807,46.477-46.477c0-25.667-20.805-46.478-46.477-46.478
				c-25.668,0-46.475,20.812-46.475,46.478C38.31,113.33,59.116,134.137,84.783,134.137z"/>
			<path d="M136.341,138.967H33.229c-4.417,0-8.637,1.844-11.638,5.085c-3.003,3.242-4.517,7.589-4.179,11.995l7.318,95.11
				c0.312,4.057,2.169,7.837,5.19,10.562l16.69,15.056v96.181c0,8.761,7.102,15.863,15.862,15.863h6.942
				c7.398,0,13.613-5.063,15.367-11.913c1.756,6.85,7.971,11.913,15.367,11.913h6.944c8.76,0,15.863-7.104,15.863-15.863v-96.179
				l16.689-15.058c3.021-2.724,4.88-6.506,5.191-10.562l7.317-95.11c0.338-4.406-1.174-8.753-4.178-11.995
				C144.977,140.811,140.759,138.967,136.341,138.967z"/>
			<circle cx="334.278" cy="87.659" r="46.477"/>
			<path d="M412.442,318.085l-16.007-94.284l5.214-67.754c0.339-4.406-1.176-8.753-4.18-11.995
				c-3.003-3.242-7.221-5.085-11.639-5.085H282.72c-4.415,0-8.635,1.844-11.638,5.085c-3.002,3.242-4.518,7.589-4.178,11.995
				l5.214,67.769l-16.095,94.891c-0.38,2.688,0.428,5.406,2.207,7.455c1.778,2.048,4.359,3.224,7.072,3.224h30.799v43.571
				c0,8.761,7.104,15.863,15.862,15.863h6.942c7.396,0,13.611-5.063,15.369-11.913c1.754,6.85,7.968,11.913,15.365,11.913h6.94
				c8.761,0,15.865-7.104,15.865-15.863v-43.571h30.799c0,0,0.013,0.001,0.021,0c5.175,0,9.368-4.195,9.368-9.372
				C412.639,319.352,412.572,318.707,412.442,318.085z"/>
		</g>
	</g>
</g>
<g>
</g>
<g>
</g>
<g>
</g>
<g>
</g>
<g>
</g>
<g>
</g>
<g>
</g>
<g>
</g>
<g>
</g>
<g>
</g>
<g>
</g>
<g>
</g>
<g>
</g>
<g>
</g>
<g>
</g>
</svg>
