<?xml version="1.0" encoding="iso-8859-1"?>
<!-- Generator: Adobe Illustrator 16.0.0, SVG Export Plug-In . SVG Version: 6.00 Build 0)  -->
<!DOCTYPE svg PUBLIC "-//W3C//DTD SVG 1.1//EN" "http://www.w3.org/Graphics/SVG/1.1/DTD/svg11.dtd">
<svg version="1.1" id="Capa_1" xmlns="http://www.w3.org/2000/svg" xmlns:xlink="http://www.w3.org/1999/xlink" x="0px" y="0px"
	 width="408.95px" height="408.95px" viewBox="0 0 408.95 408.95" style="enable-background:new 0 0 408.95 408.95;"
	 xml:space="preserve">
<g>
	<g>
		<g>
			<path d="M354.679,8.865c-7.473-8.134-20.125-8.669-28.259-1.195l-29.651,27.245c-25.583-12.018-53.71-18.363-82.816-18.363
				c-52.087,0-101.055,20.284-137.886,57.114s-57.114,85.798-57.114,137.887c0,23.441,4.123,46.248,12.003,67.604L6.469,301.656
				c-8.134,7.476-8.669,20.125-1.195,28.259c3.944,4.292,9.329,6.469,14.732,6.469c4.835,0,9.685-1.742,13.526-5.271L353.483,37.125
				C361.616,29.649,362.151,17,354.679,8.865z M59.785,252.666c-3.505-13.121-5.379-26.901-5.379-41.112
				c0-87.974,71.573-159.546,159.545-159.546c18.938,0,37.105,3.329,53.973,9.413L59.785,252.666z"/>
			<path d="M210.264,207.52l-44.172,40.588h76.865c2.11,0,3.828-1.715,3.828-3.829v-32.931c0-2.115-1.717-3.828-3.828-3.828H210.264
				L210.264,207.52z"/>
			<path d="M264.784,248.107h29.062c2.114,0,3.829-1.715,3.829-3.829v-32.931c0-2.115-1.715-3.828-3.829-3.828h-29.062
				c-2.116,0-3.833,1.713-3.833,3.828v32.931C260.952,246.393,262.668,248.107,264.784,248.107z"/>
			<path d="M263.81,190.262c0.975,0.592,2.047,0.872,3.108,0.872c2.025,0,4.006-1.027,5.136-2.887l14.593-24.044
				c1.505-2.475,1.022-5.673-1.143-7.599l-10.077-8.958l-8.885,8.164l7.245,6.442l-11.995,19.764
				C260.072,184.851,260.977,188.541,263.81,190.262z"/>
			<path d="M304.852,188.247l14.592-24.044c1.503-2.475,1.023-5.673-1.144-7.599l-17.278-15.363l11.997-19.766
				c1.49-2.455,1.007-5.555-0.992-7.457l-19.27,17.706l-4.594,7.569c-1.503,2.475-1.021,5.674,1.144,7.598l17.281,15.362
				l-11.997,19.764c-1.721,2.835-0.817,6.525,2.019,8.246c0.973,0.592,2.045,0.872,3.105,0.872
				C301.743,191.133,303.723,190.105,304.852,188.247z"/>
			<path d="M353.776,75.654l-26.173,24.047c28.362,28.815,45.894,68.322,45.894,111.852c0,87.973-71.573,159.545-159.547,159.545
				c-48.366,0-91.77-21.638-121.053-55.736l-26.179,24.054c2.987,3.432,6.099,6.776,9.346,10.022
				c36.831,36.832,85.798,57.115,137.886,57.115c52.088,0,101.056-20.285,137.887-57.115s57.113-85.797,57.113-137.885
				C408.951,160.392,389.372,112.25,353.776,75.654z"/>
		</g>
	</g>
</g>
<g>
</g>
<g>
</g>
<g>
</g>
<g>
</g>
<g>
</g>
<g>
</g>
<g>
</g>
<g>
</g>
<g>
</g>
<g>
</g>
<g>
</g>
<g>
</g>
<g>
</g>
<g>
</g>
<g>
</g>
</svg>
