<?xml version="1.0" encoding="iso-8859-1"?>
<!-- Generator: Adobe Illustrator 16.0.0, SVG Export Plug-In . SVG Version: 6.00 Build 0)  -->
<!DOCTYPE svg PUBLIC "-//W3C//DTD SVG 1.1//EN" "http://www.w3.org/Graphics/SVG/1.1/DTD/svg11.dtd">
<svg version="1.1" id="Capa_1" xmlns="http://www.w3.org/2000/svg" xmlns:xlink="http://www.w3.org/1999/xlink" x="0px" y="0px"
	 width="330px" height="330px" viewBox="0 0 330 330" style="enable-background:new 0 0 330 330;" xml:space="preserve">
<g>
	<g>
		<path d="M329.308,258.85c-3.018-16.771-11.092-32.112-23.348-44.368c-25.51-25.511-68.92-36.271-102.533-7.479
			c-22.498,19.271-49.544-7.777-61.094-19.326c-11.558-11.559-38.605-38.604-19.335-61.102
			c28.791-33.613,18.031-77.024-7.479-102.535C103.264,11.783,87.921,3.709,71.15,0.692C56.043-2.028,41.283,3.306,28.47,16.12
			C6.887,37.699,1.906,52.765,0.261,73.018c-1.594,19.656,4.421,37.485,9.749,48.979c0,0,23.239,51.002,85.108,112.872
			c61.869,61.87,112.885,85.121,112.885,85.121c11.494,5.328,29.322,11.344,48.98,9.748c20.252-1.646,35.316-6.626,56.896-28.207
			C326.692,288.717,332.028,273.957,329.308,258.85z"/>
	</g>
</g>
<g>
</g>
<g>
</g>
<g>
</g>
<g>
</g>
<g>
</g>
<g>
</g>
<g>
</g>
<g>
</g>
<g>
</g>
<g>
</g>
<g>
</g>
<g>
</g>
<g>
</g>
<g>
</g>
<g>
</g>
</svg>
