<?xml version="1.0" encoding="iso-8859-1"?>
<!-- Generator: Adobe Illustrator 16.0.0, SVG Export Plug-In . SVG Version: 6.00 Build 0)  -->
<!DOCTYPE svg PUBLIC "-//W3C//DTD SVG 1.1//EN" "http://www.w3.org/Graphics/SVG/1.1/DTD/svg11.dtd">
<svg version="1.1" id="Capa_1" xmlns="http://www.w3.org/2000/svg" xmlns:xlink="http://www.w3.org/1999/xlink" x="0px" y="0px"
	 width="385.987px" height="385.987px" viewBox="0 0 385.987 385.987" style="enable-background:new 0 0 385.987 385.987;"
	 xml:space="preserve">
<g>
	<g>
		<g>
			<path d="M193.446,286.723c-0.51-0.511-1.26-0.705-1.955-0.506l-27,7.713c-0.955-1.481-2.004-3.033-3.15-4.654
				c-6.32-8.943-15.051-19.373-25.131-30.068l44.949-21.715c0.375-0.182,0.711-0.422,0.998-0.709
				c0.531-0.529,0.893-1.221,1.021-1.979c0.201-1.172-0.182-2.367-1.02-3.205l-10.813-10.813c-0.941-0.94-2.32-1.295-3.6-0.932
				l-11.711,3.345l-3.406-3.404c-2.289-2.289-6.002-2.291-8.295,0c-1.902,1.902-2.217,4.784-0.959,7.021l-9.855,2.816l-3.139-3.14
				c-2.291-2.291-6.002-2.293-8.291-0.003c-1.82,1.819-2.189,4.534-1.119,6.725l-8.744,2.5c-8.465-7.634-16.602-14.26-23.781-19.332
				c-5.695-4.025-10.533-6.894-14.381-8.518c-1.957-0.826-7.9-3.339-11.424,0.188c-3.523,3.521-1.014,9.469-0.189,11.426
				c1.627,3.847,4.492,8.688,8.518,14.382c5.074,7.179,11.703,15.313,19.332,23.78l-2.5,8.744c-2.186-1.074-4.9-0.703-6.719,1.113
				c-2.291,2.292-2.291,6.006,0,8.296l3.137,3.138l-2.816,9.856c-2.234-1.26-5.119-0.942-7.02,0.959
				c-2.291,2.291-2.291,6.005,0,8.296l3.404,3.403l-3.346,11.713c-0.363,1.28-0.008,2.657,0.934,3.601l10.811,10.812
				c0.84,0.839,2.035,1.22,3.205,1.022c1.168-0.199,2.17-0.951,2.689-2.022l21.711-44.947c10.697,10.078,21.129,18.809,30.07,25.131
				c1.623,1.146,3.172,2.194,4.652,3.151l-7.711,26.999c-0.199,0.695-0.006,1.445,0.504,1.955l5.873,5.873
				c0.457,0.457,1.107,0.662,1.742,0.555c0.637-0.105,1.182-0.516,1.463-1.098l13.215-27.355c2.107,0.24,4.367-0.053,6.068-1.754
				c1.699-1.697,1.994-3.961,1.752-6.064l27.357-13.217c0.204-0.101,0.387-0.229,0.543-0.388c0.289-0.288,0.48-0.659,0.555-1.073
				c0.106-0.638-0.101-1.285-0.557-1.742L193.446,286.723z"/>
			<path d="M187.747,83.104c-0.203,0.099-0.385,0.229-0.541,0.384c-0.287,0.289-0.486,0.662-0.555,1.076
				c-0.109,0.638,0.098,1.284,0.555,1.741l5.873,5.873c0.512,0.511,1.26,0.705,1.955,0.505l27.002-7.713
				c0.955,1.482,2.004,3.031,3.148,4.653c6.32,8.944,15.053,19.375,25.131,30.07l-44.949,21.715
				c-0.375,0.181-0.711,0.422-0.998,0.709c-0.531,0.532-0.895,1.22-1.021,1.979c-0.2,1.17,0.182,2.365,1.021,3.204l10.811,10.812
				c0.941,0.941,2.318,1.297,3.602,0.932l11.713-3.347l3.406,3.405c2.29,2.291,6.002,2.292,8.291,0.003
				c1.902-1.905,2.219-4.786,0.961-7.02l9.857-2.819l3.139,3.137c2.291,2.291,6,2.294,8.291,0.003
				c1.818-1.82,2.188-4.535,1.118-6.721l8.743-2.5c8.466,7.63,16.604,14.257,23.781,19.331c5.693,4.025,10.529,6.893,14.383,8.516
				c1.953,0.826,7.898,3.339,11.422-0.184c3.525-3.524,1.014-9.471,0.188-11.427c-1.629-3.847-4.49-8.688-8.517-14.383
				c-5.073-7.178-11.7-15.315-19.329-23.78l2.497-8.744c2.187,1.072,4.897,0.703,6.72-1.117c2.291-2.289,2.291-6.003,0-8.294
				l-3.138-3.137l2.815-9.854c2.234,1.257,5.117,0.939,7.019-0.961c2.291-2.29,2.294-6.005,0.003-8.296l-3.404-3.405l3.344-11.71
				c0.365-1.281,0.01-2.658-0.932-3.6l-10.813-10.812c-0.838-0.839-2.032-1.221-3.2-1.022c-1.173,0.199-2.175,0.95-2.69,2.021
				l-21.715,44.949c-10.695-10.079-21.125-18.809-30.066-25.132c-1.623-1.146-3.174-2.193-4.652-3.152l7.71-26.999
				c0.198-0.693,0.007-1.442-0.507-1.953l-5.873-5.873c-0.457-0.457-1.104-0.662-1.741-0.555c-0.634,0.106-1.179,0.515-1.459,1.096
				l-13.214,27.356c-2.109-0.24-4.371,0.055-6.07,1.755c-1.697,1.698-1.994,3.961-1.75,6.066L187.747,83.104z"/>
			<g>
				<path d="M186.88,15.128c-4.804,0-8.735,3.908-8.764,8.712l-0.06,10.142c-19.044-17.734-44.197-27.16-71.024-26.467
					C79.139,8.237,52.659,19.754,32.468,39.947C12.276,60.141,0.758,86.623,0.036,114.512c-0.725,28.064,9.545,54.189,28.919,73.562
					c1.655,1.656,3.856,2.567,6.198,2.567c2.34,0,4.541-0.911,6.197-2.567c3.416-3.416,3.417-8.976,0-12.394
					c-15.942-15.942-24.392-37.506-23.792-60.716c0.605-23.383,10.303-45.623,27.304-62.624c17-17.002,39.24-26.698,62.622-27.304
					c22.297-0.572,43.099,7.24,58.788,21.925l-9.91,1.729c-2.306,0.402-4.317,1.679-5.664,3.594
					c-1.346,1.916-1.865,4.24-1.462,6.546c0.733,4.206,4.36,7.259,8.624,7.259c0.5,0,1.009-0.044,1.516-0.132l28.842-5.033
					c4.181-0.729,7.232-4.338,7.255-8.581l0.17-28.397c0.017-2.341-0.884-4.547-2.527-6.213
					C191.468,16.068,189.274,15.144,186.88,15.128z"/>
				<path d="M357.03,197.963c-1.656-1.654-3.856-2.566-6.197-2.566s-4.541,0.912-6.197,2.567c-3.416,3.417-3.416,8.978,0,12.395
					c15.942,15.942,24.395,37.506,23.792,60.716c-0.604,23.382-10.302,45.622-27.304,62.624
					c-17.601,17.602-40.646,27.293-64.899,27.294c-21.43-0.002-41.39-7.764-56.512-21.916l9.911-1.729
					c4.76-0.83,7.957-5.378,7.126-10.141c-0.733-4.206-4.36-7.259-8.623-7.259c-0.505,0-1.016,0.044-1.517,0.132l-28.843,5.033
					c-4.181,0.729-7.231,4.337-7.257,8.581l-0.167,28.398c-0.015,2.342,0.885,4.549,2.529,6.214c1.646,1.665,3.842,2.59,6.233,2.604
					c4.805,0,8.734-3.908,8.765-8.711l0.06-10.144c18.354,17.085,42.464,26.45,68.286,26.451h0.01
					c28.94-0.002,56.394-11.516,77.295-32.416c20.19-20.192,31.71-46.676,32.431-74.564
					C386.675,243.465,376.405,217.34,357.03,197.963z M276.216,377.007L276.216,377.007L276.216,377.007L276.216,377.007z"/>
			</g>
		</g>
	</g>
</g>
<g>
</g>
<g>
</g>
<g>
</g>
<g>
</g>
<g>
</g>
<g>
</g>
<g>
</g>
<g>
</g>
<g>
</g>
<g>
</g>
<g>
</g>
<g>
</g>
<g>
</g>
<g>
</g>
<g>
</g>
</svg>
