<?xml version="1.0" encoding="iso-8859-1"?>
<!-- Generator: Adobe Illustrator 16.0.0, SVG Export Plug-In . SVG Version: 6.00 Build 0)  -->
<!DOCTYPE svg PUBLIC "-//W3C//DTD SVG 1.1//EN" "http://www.w3.org/Graphics/SVG/1.1/DTD/svg11.dtd">
<svg version="1.1" id="Capa_1" xmlns="http://www.w3.org/2000/svg" xmlns:xlink="http://www.w3.org/1999/xlink" x="0px" y="0px"
	 width="390px" height="390px" viewBox="0 0 390 390" style="enable-background:new 0 0 390 390;" xml:space="preserve">
<g>
	<g>
		<g>
			<g>
				<path d="M258.076,42.954c-6.3,0-12.472,1.185-18.345,3.521c-2.664,1.06-4.754,3.092-5.889,5.725
					c-1.133,2.632-1.174,5.548-0.115,8.211c1.636,4.109,5.552,6.764,9.975,6.764c1.355,0,2.688-0.255,3.962-0.762
					c3.333-1.325,6.836-1.998,10.409-1.998c7.51,0,14.57,2.929,19.888,8.244c7.951,7.951,10.4,19.843,6.245,30.295
					c-1.586,3.985-0.651,8.522,2.383,11.557c1.033,1.033,2.251,1.833,3.619,2.378c1.271,0.505,2.604,0.762,3.963,0.762
					c4.422,0,8.337-2.657,9.973-6.766c7.329-18.422,3.009-39.384-11.01-53.4C283.762,48.114,271.312,42.954,258.076,42.954z"/>
				<path d="M326.886,23.731C311.584,8.427,291.271,0,269.695,0c-5.564,0-11.164,0.578-16.643,1.718
					c-5.791,1.205-9.521,6.899-8.318,12.689c0.43,2.054,1.436,3.919,2.91,5.396c2.522,2.522,6.28,3.652,9.78,2.923
					c4.032-0.839,8.153-1.265,12.248-1.265c15.863,0,30.793,6.194,42.041,17.441c14.24,14.24,20.289,34.536,16.179,54.289
					c-0.585,2.806-0.04,5.67,1.529,8.068c1.572,2.397,3.982,4.038,6.789,4.623c0.722,0.15,1.46,0.226,2.194,0.226l0,0
					c5.051,0,9.465-3.593,10.494-8.545C354.488,70.704,346.259,43.104,326.886,23.731z"/>
			</g>
			<path d="M102.608,58.112c-5.545-5.543-14.534-5.543-20.078,0c-27.825,27.824-43.147,64.819-43.147,104.167
				c0,39.35,15.323,76.343,43.146,104.168c27.824,27.824,64.818,43.146,104.168,43.146c39.35,0.001,76.343-15.321,104.167-43.146
				c5.545-5.545,5.544-14.533,0-20.079L102.608,58.112z M100.75,210.003c-1.679,3.111-4.471,5.38-7.859,6.392
				c-3.2,0.955-6.613,0.673-9.609-0.8c-3.355-1.644-5.79-4.521-6.858-8.098c-4.981-16.685-6.732-35.026-5.205-54.514
				c0.276-3.523,1.91-6.729,4.597-9.027c2.688-2.296,6.109-3.41,9.632-3.132c1.683,0.132,3.295,0.569,4.792,1.304
				c4.905,2.405,7.797,7.479,7.369,12.926c-1.271,16.223,0.134,31.32,4.18,44.871C102.801,203.312,102.433,206.893,100.75,210.003z
				 M108.364,107.653l-0.05,0.091c-0.845,1.642-2.246,5.933-2.889,8.275c-0.939,3.408-3.149,6.247-6.223,7.994
				c-3.074,1.746-6.643,2.191-10.052,1.252c-0.806-0.221-1.592-0.519-2.335-0.884c-5.691-2.791-8.598-9.264-6.911-15.39
				c1.197-4.353,3.201-10.322,5.229-14.028c3.407-6.227,11.058-8.661,17.421-5.541c0.18,0.089,0.361,0.183,0.542,0.282
				C109.489,93.203,111.852,101.254,108.364,107.653z"/>
			<path d="M235.943,158.094c14.533-4.593,25.071-18.181,25.071-34.234c0-19.826-16.073-35.898-35.897-35.898
				c-16.053,0-29.641,10.539-34.233,25.073H168.63l67.313,67.313V158.094z"/>
			<path d="M190.38,330.273c-3.013,0.17-6.038,0.268-9.079,0.268c-0.003,0,0,0-0.002,0c-31.937,0.001-62.408-9.505-88.199-27.163
				v72.734c0,7.67,6.217,13.888,13.887,13.888h81.082c0.006,0,0.014,0,0.019,0c7.67,0,16.352-7.319,13.217-18.163L190.38,330.273z"
				/>
		</g>
	</g>
</g>
<g>
</g>
<g>
</g>
<g>
</g>
<g>
</g>
<g>
</g>
<g>
</g>
<g>
</g>
<g>
</g>
<g>
</g>
<g>
</g>
<g>
</g>
<g>
</g>
<g>
</g>
<g>
</g>
<g>
</g>
</svg>
