<?xml version="1.0" encoding="iso-8859-1"?>
<!-- Generator: Adobe Illustrator 16.0.0, SVG Export Plug-In . SVG Version: 6.00 Build 0)  -->
<!DOCTYPE svg PUBLIC "-//W3C//DTD SVG 1.1//EN" "http://www.w3.org/Graphics/SVG/1.1/DTD/svg11.dtd">
<svg version="1.1" id="Capa_1" xmlns="http://www.w3.org/2000/svg" xmlns:xlink="http://www.w3.org/1999/xlink" x="0px" y="0px"
	 width="379.999px" height="379.999px" viewBox="0 0 379.999 379.999" style="enable-background:new 0 0 379.999 379.999;"
	 xml:space="preserve">
<g>
	<g>
		<path d="M336.018,93.397H265.87V51.458c0-13.389-10.854-24.243-24.24-24.243H138.371c-13.389,0-24.24,10.854-24.24,24.243v41.939
			H43.983C19.69,93.397,0,113.09,0,137.382V308.8c0,24.291,19.69,43.984,43.982,43.984h292.035
			c24.292,0,43.982-19.694,43.982-43.984V137.382C380,113.09,360.31,93.397,336.018,93.397z M150.492,63.581h79.016v29.093h-79.016
			V63.581z M306.674,290.502H73.326c-6.693,0-12.121-5.426-12.121-12.121c0-6.697,5.428-12.123,12.121-12.123h233.348
			c6.693,0,12.121,5.426,12.121,12.123C318.795,285.076,313.367,290.502,306.674,290.502z"/>
	</g>
</g>
<g>
</g>
<g>
</g>
<g>
</g>
<g>
</g>
<g>
</g>
<g>
</g>
<g>
</g>
<g>
</g>
<g>
</g>
<g>
</g>
<g>
</g>
<g>
</g>
<g>
</g>
<g>
</g>
<g>
</g>
</svg>
