<?xml version="1.0" encoding="utf-8"?>
<!-- Generator: Adobe Illustrator 26.0.3, SVG Export Plug-In . SVG Version: 6.00 Build 0)  -->
<svg version="1.1" id="Layer_1" xmlns="http://www.w3.org/2000/svg" xmlns:xlink="http://www.w3.org/1999/xlink" x="0px" y="0px"
	 viewBox="0 0 300 206.5" style="enable-background:new 0 0 300 206.5;" xml:space="preserve">
<style type="text/css">
	.st0{fill-rule:evenodd;clip-rule:evenodd;fill:#9CA3AF;}
	.st1{fill:#9CA3AF;}
</style>
<path class="st0" d="M179,74.3c0,4.3-1.3,8.6-3.8,12.1h7.7V25.8H158v24.8C171.6,54.8,179,63.5,179,74.3z"/>
<path class="st1" d="M135.6,48.4c5.1,0.1,10.1,0.9,15,2.4c-8.6-1.5-21.8,0.7-28.7,6.1v29.6H147V52.8c4.3,0.8,8.4,2.5,12.1,4.9v28.8
	h5.4c-5.9,6.2-14.5,9.2-23,8.1v1.2l0,0c23.9,1.9,34-9.4,34-22.2c0-15-14.1-23.8-28.5-25.6V25.8h-25.2v22.4
	c-16.3,3.3-32.2,13-32.2,29c0,24.7,34.5,39.9,64.5,39.9c45.6,0,80.5-22,80.5-53C234.7,26.7,184,0,144.2,0C98.6,0,65.1,29,65.1,59.9
	l0,0c0,16,9,29.5,20.3,38.8l0.8-0.6C75.6,89.6,69.5,76.7,69.5,63c2.4-33.9,44.1-52.9,81.2-52.9c26.3,0,73.4,6.1,73.4,49.9
	c0,23-24.5,52.7-75.9,52.7c-26.3,0-46.8-14.1-46.8-34.5C101.4,60.9,115.1,48.4,135.6,48.4z"/>
<path class="st1" d="M38.2,205.2v-3.5H47v-29.9H23.5v29.9h9.1v3.5H0v-3.5h8.1v-60.9H0v-3.5h32.5v3.5h-9v26.8H47v-26.8h-8.8v-3.5
	h32.1v3.5H62v60.9h8.2v3.5L38.2,205.2z"/>
<path class="st1" d="M82.8,145.5v-8.1h14.7v8.1H82.8z M75.5,205.2v-3.5h7.9v-41.7h-7.9v-3.5h22.5v45.2h7.4v3.5L75.5,205.2z"/>
<path class="st1" d="M108.6,205.2v-3.5h8.1v-69.9h-8.1v-3.5h23v73.4h7.7v3.5L108.6,205.2z"/>
<path class="st1" d="M162.1,205.2c-8.1,0-12.4-4.1-12.4-10.5v-34.5h-7.9v-3.5h7.9v-19.2c4.4,0,9.1,0,13.7,0v19.2h11.5v3.5h-11.5
	v41.5h11.5v3.5L162.1,205.2z"/>
<path class="st1" d="M230.2,190.6c-4.3,10.1-14.4,16.5-25.4,15.8c-18.8,0-28.3-12.8-28.3-25.9c0-18.1,16.1-25.5,28-25.5
	c10.6,0,26,6.4,27.2,24.8C232,183.5,231.5,187.2,230.2,190.6z M214.3,164.4c-1.7-4-5.6-6.4-9.9-6.1c-11.5,0-11.5,11.8-11.5,22.1
	c0,13.8,1.2,16.3,2.1,18c1.9,3.5,5.7,5.6,9.7,5.4c11.5,0,11.5-12.4,11.5-23.8C215.7,167.5,215,166,214.3,164.4z"/>
<path class="st1" d="M271,205.2v-3.5h6.5v-28.7c0-6.5,0-12.8-7.1-12.8c-5.9,0.7-10.7,4.9-12.2,10.6c-0.5,3.1-0.7,6.3-0.5,9.5v21.4
	h7.3v3.5h-29.9v-3.5h7.9v-41.7h-7.9v-3.5h22.5v7.4c2.3-3.3,5.5-5.9,9.3-7.2c2.8-1.2,5.8-1.8,8.8-1.8c2.3,0,4.5,0.3,6.7,0.9
	c9.4,2.8,9.8,9.9,9.8,15.1v30.9h7.7v3.5H271z"/>
<path class="st1" d="M220,108.4h-2.4v-0.9h5.9v0.9h-2.4v8.6H220V108.4z M230.2,115.4L230.2,115.4l2.9-7.7h1.5v9.5h-1.1v-7.2l0,0
	l-2.8,7.1h-1.1l-3-7.1l0,0v7.1h-1.1v-9.5h1.6L230.2,115.4z"/>
</svg>
