<?xml version="1.0" encoding="utf-8"?>
<!-- Generator: Adobe Illustrator 26.0.3, SVG Export Plug-In . SVG Version: 6.00 Build 0)  -->
<svg version="1.1" id="Layer_1" xmlns="http://www.w3.org/2000/svg" xmlns:xlink="http://www.w3.org/1999/xlink" x="0px" y="0px"
	 viewBox="0 0 273.5 102.1" style="enable-background:new 0 0 273.5 102.1;" xml:space="preserve">
<style type="text/css">
	.st0{fill-rule:evenodd;clip-rule:evenodd;fill:#9CA3AF;}
</style>
<g>
	<path class="st0" d="M152.2,17c0.3-2.4-1.2-4.5-3.2-4.7c-2-0.2-3.8,1.4-4.1,3.7c-0.2,1-0.2,1.7-0.3,2.8c-0.1,0.9-1.2,4.2-0.2,4.5
		c1,0.3,4.2-1.7,5.8-2.9C151.3,19.7,152.1,18.5,152.2,17L152.2,17z"/>
	<path class="st0" d="M38.5,88.1c0.4-0.5,0.9-1.4,3.2-1.9c0,0,77.8-26.4,181.4-21.1c0,0,5.9-0.2,4.3,2.4c-0.9,1.5-2.7,1.6-6,1.8
		c0,0-1.1,0.2-5.5,0.1c0,0,10.6,4.1-31.2,3.3c0,0,3.7,3.8-11.7,2.7c0,0-42.9-2-129.5,13.8C43.4,89,36.6,90.5,38.5,88.1L38.5,88.1z"
		/>
	<path class="st0" d="M166.1,31.7c-2.6-5.5-4.3-0.8-4.3-0.8c-1.7,4.7-12.4,16.8-14.5,18.9c-8.9,7.8-5.9,2.9-6.6-0.6
		c0,0,0.4-6.3,2.2-7.7c0,0,0.9,0.4,1.7-3.4c0,0,2.2-5-3.6-5.9c0,0-3.9-2.7-5.7,4.9c0,0-3.4,14.4,1.2,21c0,0,2.4,4.3,14.5-7.5l0,0
		C155,46.5,161.4,39,161.4,39c6.8,12.4-3.6,15.7-3.6,15.7c-3.9,2.5,0.1,3.1,0.1,3.1c15.9,0.3,17.1-9.3,17.1-9.3
		C175.4,41.6,166.1,31.7,166.1,31.7L166.1,31.7z M126.4,2.6c0,0-5.2-6.5-4.3,1c0,0,0.7,15.6-1.9,35.1c-0.3-0.8-0.7-1.6-1.2-2.3
		c0,0-4.5-6-9.5-4.3c0,0-6.4,2-10.2,11.7c0,0-2.6,6.7-1.9,11.8c0,0-0.2,13.3,15.9,3.9c0,0,1.7-1,3.7-3.1c-0.4,1.7-1,2.7-1.1,4.4
		c0,0-0.6,3.5,1,4.4c0.6,0.3,1.3-0.1,2.7-3.5c0,0,11.5-29.5,12.1-41.6C131.8,20.1,135.8,14,126.4,2.6L126.4,2.6z M106.4,55.6
		c0,0-1.2-0.8-1.1-4.3c0,0,0.3-6.2,4.5-11.1c0,0,1.2-1.5,2.1-1.7c0.3-0.1,0.8,0.4,1.1,2.3c0.1,0.5-1.3,0.6-0.8,2
		c0,0,2.2,5.7,6.9,3.1c-0.2,1.2-0.4,2.3-0.6,3.5C116.1,52.8,110.9,58.7,106.4,55.6z M218.1,29.9c0,0-11,16.4-11,21.8
		c0,0-0.5,5,5.3,4.8c0,0,5.8-0.3,9.9-3.8c0,0,2.7-2.6,4.2-2.9c0,0,3.7,0.4,2.5-4.6c0,0-1.2-5.6-2.7-7.8c0,0-1.3-2.5-2.8-1.6
		c0,0-1.5,0.7-1,3.3c0,0-0.1,0.1,0.6,2.3c0,0,1.8,5.5,0.7,5.6c0,0-0.5,0.1-1.1,0.6c-0.3,0.3-1,1-1.7,1.6c0,0-5,3.4-3.9-1.4
		c0,0,0.7-2.9,1.4-4.6c0,0,2.8-7.9,5.9-12.1c0,0,3-3.6-0.7-3.3c-0.2,0-0.8,0.2-1,0C222.8,27.9,220.9,26.2,218.1,29.9L218.1,29.9z
		 M195.1,37c-1.9-1.2-4.2-5.8-2.4-7.9c0.8-0.9,2.3-1.8,2.1-3.1c-0.5-2.9-5.6,0-6.6,3.5c-1.9,5.3-7.7,8.7-7.7,8.7
		c-0.9,0.8-1.1,3-1.1,3c-0.2,3.9,2.3,1.2,2.3,1.2l6.1-4.8c6.8,12.4-3.6,15.7-3.6,15.7c-1.4,0.5-1.7,1.1-1.7,1.9
		c0,1.1,1.8,1.2,1.8,1.2c15.9,0.3,17.1-9.3,17.1-9.3C202.1,43,197.7,38.9,195.1,37L195.1,37z M92.9,56.2c0,0,0-0.2-0.2-0.3
		c-0.4-0.3-2.5,0.7-4.6,1.9c-0.3,0.2-0.6,0.4-0.9,0.5c-0.8,0.5-1.5,0.9-1.8,1.2c0,0-1.3,1.1-1.2-1.3l0-0.1h0c0-0.5,0.1-1.2,0.2-1.9
		c0,0,1.8-7.3,2.6-9.4c0,0,0.4-1.9,1.1-4.1c0,0,3.1-3.3-2.6-4.3c0,0-2.7-6.7-5.7,3.9l0,0c-0.2-1.1-1.2-2.8-2.8-3.4
		c-0.3-0.2-0.7-0.3-1.4-0.4c-0.2,0-0.4,0-0.9,0c0,0-2.8-0.9-5.7,2.7c-3.1,3.5-12.3,14.4-10.2,23.6c0,0,1.1,4.8,5.4,4.7
		c0,0,5.6,0.1,9.8-3.9c0,0,1.3-1.1,2.6-2.8c0.1,0.6,0.1,1.2,0.3,1.8c0,0.1,0.1,0.2,0.1,0.4c0,0,0.2,1.1,1,1.9c0.6,0.6,1.7,1,3.3,0.8
		c0.2,0,0.3-0.1,0.5-0.1c0,0,5.9-1.4,5.8-3.9c-0.1-1.2,0.4-1.5,0.4-1.5s0.4-0.2,0.2-0.6C88.3,61.3,93,58.2,92.9,56.2L92.9,56.2z
		 M75.8,59.7c-0.5,0.8-1,1.7-2.2,2.5c0,0-6.5,4-6.2-1.6c0,0,0.2-3.1,1.3-6c0,0,3-7.6,7.6-12c0.4-0.4,0.8-0.5,1-0.1
		c0.6,0.9,0.8,1.9,1.2,2.7c0.1,0.2,0.3,0.4,0.4,0.7c-0.6,2.8-2,8.2-2.2,12.3C76.6,58.6,76.2,59.1,75.8,59.7z M30.7,29
		c-0.4-0.8-1.4-0.3-3.7,3.4c0,0-19.6,33.1-23.5,48.7c0,0-4.3,10.8,1.5,14.7c0,0,1.3,2,2.9,2.4c0.4,2.4,1.3,4.5,2.9,3.8
		c0.6-0.3,0.6-2.2,0.6-4.1l0,0c0-1.3,0.1-2.7,0.3-4c0.1-0.4,0.3-0.9,0.4-1.4l0.2-1c0-0.1,0.1-0.2,0.1-0.3l0,0
		c1.8-7.1,10.8-41.7,17.9-56.4C30.3,34.8,32,31.2,30.7,29L30.7,29z"/>
	<path class="st0" d="M60.5,84.4c0,0-16.9-25.3-18.6-30.7c0,0-0.8-2-1.8-3.2c1.2,0,2.5,0,3.7-0.1c0,0,8.9-0.2,12.7-7.1
		c1-1.9,3-8.4-4.7-16.6c0,0-9.7-11.6-31.9-13c0,0-6-2.8-17.4,6.6c0,0-4.3,3.4-1.9,4.2c1.1,0.4,1.9,0.4,2.9,0.1
		c0,0,18.5-6.3,41.5,6.9c0,0,9.1,5.7,3.4,11.4c0,0-2.2,2.5-7.9,3.4c0,0-1.4,0.3-4,0.5c0,0-1.3,0.1-3.2,0.2c0,0-2.3,0-2.6,0.7
		c-0.1,0.4,0.3,0.6,1.5,1.2c0,0,0,0,0,0c-2.4,0.3-3.3,0.6-3.9,1.2c0,0-0.5,0.6-0.2,1.2c1.6,4.2,8.9,21.7,25.4,35.4
		c0,0,9.5,7.4,11.6,5.6C65.9,91.8,63.6,88.7,60.5,84.4L60.5,84.4z M267.7,52.7c-2.6-1.6-10-16.3-10-16.3c-1.7-2.5-4.6,0.5-4.6,0.5
		c-2,1.5-4.7,6.2-6.1,9.1c-1.9,3.2-1.4-1-1.4-1c0.1-1.1,0.4-2.9,1.7-3.8c0,0,1,0.8,2.1-2.9c0,0,2.1-4.9-3-6.2c0,0-3.7-3.1-6.2,4.4
		c0,0-3.4,10.8-2.1,17.5c0,0,0.6,7.9,7.3,1.7c0.7-0.6,1.4-1.6,2.1-2.6c1.4-2.1,1.7-2.9,2.7-5.1c1.6-3.8,4.5-7.3,5-7.8
		c-0.4,4.5,4.8,16.3,4.8,16.3c1.8,6,4.7,5.8,4.7,5.8C279.8,62.7,267.7,52.7,267.7,52.7L267.7,52.7z M270.1,36.6
		c1.6,0,2.9,1.3,2.9,2.9c0,1.6-1.3,2.9-2.9,2.9c0,0,0,0,0,0c-1.6,0-2.9-1.3-2.9-2.9c0,0,0,0,0,0C267.2,37.9,268.5,36.6,270.1,36.6z
		 M270.1,42.9c1.9,0,3.4-1.5,3.5-3.4c0,0,0,0,0,0c0-1.9-1.5-3.4-3.4-3.4c0,0,0,0,0,0c-1.9,0-3.4,1.5-3.5,3.4c0,0,0,0,0,0
		C266.6,41.4,268.1,42.9,270.1,42.9C270,42.9,270.1,42.9,270.1,42.9z M270.7,39.7c0.5,0,1-0.3,1-1.1c0-0.8-0.6-1-1.3-1h-1.6v3.9h0.6
		v-1.8h0.7l1,1.8h0.6L270.7,39.7z M270.3,38.2c0.5,0,0.9,0,0.9,0.5c0,0.5-0.7,0.4-1.2,0.4h-0.6v-1L270.3,38.2L270.3,38.2z"/>
	<path class="st0" d="M234.4,65.6c3.2,0.2,6.7,0.2,11.7,0.7c2.6,0.2,6.5,0.2,7.1,1.9c0.5,1.5-1.4,3.1-4.9,3.8
		c-1.7,0.3-2.8,0.6-4.4,0.6c-1.9-0.1-5.9,0.1-6-2.1c-0.1-1.3-2.7-1.3-4.4-1.4c-3.5-0.1-3.1-1.1-2.4-2.3
		C231.5,66.1,232.5,65.6,234.4,65.6L234.4,65.6z"/>
</g>
</svg>
