<?xml version="1.0" encoding="utf-8"?>
<!-- Generator: Adobe Illustrator 26.0.3, SVG Export Plug-In . SVG Version: 6.00 Build 0)  -->
<svg version="1.1" id="Layer_1" xmlns="http://www.w3.org/2000/svg" xmlns:xlink="http://www.w3.org/1999/xlink" x="0px" y="0px"
	 viewBox="0 0 291.2 237.1" style="enable-background:new 0 0 291.2 237.1;" xml:space="preserve">
<style type="text/css">
	.st0{fill-rule:evenodd;clip-rule:evenodd;fill:#9CA3AF;}
</style>
<g>
	<path class="st0" d="M274,232.9v-10.6c0-5.8-3.5-4.2-3.5-5.3c0-0.2,0.2-0.2,0.4-0.2h2.7c0.2,0,0.5,0.4,0.7,0.5l13.5,15.1
		c0.2,0.2,0.2,0.4,0.4,0.4v-12.2c0-3.8-3.1-2.7-3.1-3.6c0-0.2,0.2-0.2,0.4-0.2h5.3c0.2,0,0.4,0,0.4,0.2c0,0.7-1.6,0.2-1.6,2.4v16.4
		c0,0.7,0,1.1-0.4,1.1c-0.2,0-0.4,0-0.9-0.7L276,222.5c-0.2-0.2-0.4-0.5-0.7-0.5c0,0-0.2,0-0.2,0.5v11.7c0,2.6,2.6,1.6,2.6,2.4
		c0,0.2,0,0.4-0.4,0.4c-0.5,0-1.5-0.2-2.7-0.2c-1.1,0-2.6,0.2-2.7,0.2c-0.4,0-0.4-0.2-0.4-0.4C271.5,235.6,274,236.7,274,232.9z
		 M258.9,237.1c-6,0-9.9-4.4-9.9-10.4c0-5.8,4.6-10.2,10.4-10.2c5.8,0,10.2,4.2,10.2,10C269.6,232.9,265.3,237.1,258.9,237.1z
		 M258.5,217.4c-4.7,0-7.5,4-7.5,8.6c0,5.1,3.5,10.2,9.1,10.2c4.2,0,7.5-3.3,7.5-8.6C267.6,222.5,264.2,217.4,258.5,217.4
		L258.5,217.4z M237.7,234.4v-14.8c0-0.2,0-1.3-0.4-1.3h-4.6c-1.8,0-1.8,0.5-2.4,2c0,0.4,0,0.7-0.4,0.7c-0.2,0-0.4-0.2-0.4-0.4
		l0.4-2.7c0-0.4,0-1.1,0.4-1.1h16.4c0.7,0,0.7,0.2,0.9,0.7v2.4c0.2,0.2,0.2,0.6-0.2,0.6c-1.1,0,0.4-2.2-2.6-2.2h-4
		c-1.3,0-1.1,0-1.1,1.5v14.4c0,2.4,2.4,1.5,2.4,2.4c0,0,0,0.4-0.4,0.4c-0.6,0-1.5-0.2-2.2-0.2c-3.3,0-3.8,0.2-4,0.2
		s-0.2-0.2-0.2-0.4C235.5,235.8,237.7,236.2,237.7,234.4L237.7,234.4z M221.7,219.6v13.9c0,1.6-0.2,2.4,2.2,2.4
		c6.6,0,7.5-2.9,7.8-2.9c0.2,0,0.2,0.2,0.2,0.2c0,1.1-0.7,2-1.5,2.7c-0.9,1.1-1.5,1.1-2.7,1.1c-2.2,0-4.4-0.2-6.4-0.2
		c-1.3,0-2.4,0.2-3.5,0.2c-0.4,0-0.5-0.2-0.5-0.4c0.2-0.4,0.4-0.2,1.3-0.7c0.7-0.4,0.9-1.1,0.9-2.4V219c0-1.5-2.4-1.3-2.4-1.8
		c0-0.4,0.2-0.4,0.5-0.4h5.5c0.4,0,0.5,0,0.5,0.4C223.7,217.7,221.7,217.2,221.7,219.6L221.7,219.6z M208,226.5l4.7,7.3
		c2.2,3.1,3.5,2,3.5,2.7c0,0.4-1.6,0.4-1.8,0.4c-2,0-3.1-1.5-4.2-3.1l-3.3-4.9c-0.9-1.6-0.6-1.5-3.7-1.5c-0.9,0-0.7,0.4-0.7,0.7v6
		c0,2.4,2.9,1.5,2.9,2.6c0,0.2-0.2,0.2-0.6,0.2c-0.2,0-0.9-0.2-3.3-0.2c-0.9,0-2,0.2-3.1,0.2c-0.2,0-0.4-0.2-0.4-0.4
		c0-0.7,2.2-0.4,2.2-2.4v-14.6c0-2.7-2.6-1.5-2.6-2.4c0-0.2,0.2-0.4,0.5-0.4h6.6c0.6,0,6.8-0.5,6.8,4.9
		C211.6,224,210,225.8,208,226.5L208,226.5z M202.5,218.8v7.1c0,0.5,1.6,0.4,3.1,0.4c1.1,0,3.8-0.5,3.8-4c0-3.5-2.6-4.6-5.3-4.6
		C203.1,217.7,202.5,217.7,202.5,218.8L202.5,218.8z M191,232.3l-0.9-2.2c-0.4-0.7-0.5-1.1-1.3-1.1h-6.2c-0.5,0-1.1,0-1.5,0.5
		l-1.8,4c0,0.2-0.2,0.5-0.2,0.9c0,2,2,1.1,2,1.8c0,0.5-0.4,0.5-0.7,0.5c-0.7,0-1.6-0.2-2.4-0.2c-0.7,0-1.5,0.2-2.2,0.2
		c-0.2,0-0.4-0.2-0.4-0.4c0-0.5,1.5-0.2,2.2-1.6l6.7-14.6c1.6-3.5,1.6-4,2-4c0.4,0,0.5,0.9,0.7,1.1L193,232c0.4,1.1,0.7,2.2,1.5,3.3
		c0.7,1.3,2.4,0.6,2.4,1.3c0,0.4-0.2,0.4-0.4,0.4c-1.1,0-2.2-0.2-3.5-0.2c-0.7,0-1.5,0.2-2.2,0.2c-0.2,0-0.7,0-0.7-0.4
		c0-0.7,1.8-0.4,1.8-1.5C191.9,234.5,191.2,233.3,191,232.3z M185.5,220.3l-3.1,6.9c-0.2,0.4,0,0.5,0.4,0.5h5.7
		c0.5,0,0.5-0.2,0.4-0.5l-2.7-6.9C185.9,219.9,185.7,219.9,185.5,220.3L185.5,220.3z M150.1,224.9c0-7.5,5.3-13.3,12.8-13.3
		c6.6,0,8.6,2.7,9.5,2.7c0.4,0,0.5-0.4,0.9-0.4c0.4,0,0.4,0.5,0.5,2.7c0,2,0.4,3.1-0.4,3.1c-0.4,0-0.6-0.9-0.7-1.1
		c-2.2-3.8-4.7-6.2-9.3-6.2c-6.9,0-10.2,4.6-10.2,11.3c0,6,3.5,12.2,10.4,12.2c5.5,0,8.9-3.5,9.5-5.1c0-0.2,0.4-0.5,0.6-0.5
		c0.2,0,0.4,0.4,0.2,0.4l-0.7,3.7c0,0.2-2.6,2.7-10.6,2.7C155.4,237.1,150.1,232.2,150.1,224.9L150.1,224.9z M140.8,228.9l5.3-2
		c0.5-0.2,1.1-0.4,1.3-0.4c0.4,0,0.4,0.5,0.4,0.9c0,1.3,0,1.1-1.1,1.5l-5.3,2c-0.5,0.2-0.9,0.4-1.3,0.4s-0.2-0.5-0.2-0.7
		C139.9,229.2,139.7,229.2,140.8,228.9z M135.9,218.1l-9.5,16.1c-0.4,0.5-0.4,0.9-0.4,1.1c0,0.2,0.4,0.4,1.1,0.4h5.3
		c3.6,0,3.5-2,4.6-2c0.2,0,0.2,0.4,0.2,0.5l-1.1,1.8c-0.4,0.7-0.7,0.7-1.3,0.7h-11.7c-0.2,0-0.4-0.2-0.4-0.4s0-0.4,0.2-0.5l9.9-16.8
		c0.4-0.2,0.5-0.7,0.5-0.7c0-0.2-0.2-0.2-0.2-0.2h-6c-3.8,0-2.9,2.9-3.8,2.9c-0.2,0-0.4-0.2-0.4-0.4l0.4-2.9
		c0.2-0.7,0.2-0.9,1.1-0.9h10.9c0.7,0,0.9,0.2,0.9,0.5C136.3,217.8,136.1,217.9,135.9,218.1L135.9,218.1z M111.7,234.4v-14.8
		c0-0.2,0-1.3-0.4-1.3h-4.6c-1.8,0-1.8,0.5-2.4,2c0,0.4-0.2,0.7-0.5,0.7c-0.2,0-0.2-0.2-0.2-0.4l0.2-2.7c0.2-0.4,0-1.1,0.5-1.1h16.4
		c0.7,0,0.7,0.2,0.7,0.7l0.2,2.4c0,0.2,0.2,0.6-0.2,0.6c-1.1,0,0.4-2.2-2.6-2.2h-4c-1.3,0-1.1,0-1.1,1.5v14.4c0,2.4,2.2,1.5,2.2,2.4
		c0,0,0.2,0.4-0.2,0.4c-0.7,0-1.5-0.2-2.4-0.2c-3.1,0-3.6,0.2-3.8,0.2c-0.2,0-0.4-0.2-0.4-0.4C109.3,235.8,111.7,236.2,111.7,234.4
		L111.7,234.4z M97.1,233.8v-14.6c0-2-2.2-1.5-2.2-2.2c0-0.2,0-0.2,0.2-0.2h5.8c0.4,0,0.6,0,0.6,0.2c0,0.7-2.2,0-2.2,2.2v15.3
		c0,1.8,2.6,1.3,2.6,2c0,0.2,0,0.4-0.5,0.4c-0.5,0-1.8-0.2-3.1-0.2c-1.6,0-2.2,0.2-2.7,0.2c-0.4,0-0.5-0.2-0.5-0.5
		C94.9,235.6,97.1,236.5,97.1,233.8L97.1,233.8z M83.2,224.1l5.8,8.9c2.6,3.8,4.4,2.6,4.4,3.5c0,0.4-2,0.4-2.4,0.4
		c-2.6,0-4-1.8-5.3-3.8l-3.8-6.2c-1.3-2-0.9-1.8-4.7-1.8c-1.3,0-0.9,0.5-0.9,0.9v7.5c0,3.1,3.6,2,3.6,3.1c0,0.4-0.4,0.4-0.5,0.4
		c-0.4,0-1.3-0.2-4.2-0.2c-1.3,0-2.7,0.2-4,0.2c-0.2,0-0.4-0.2-0.4-0.4c0-0.9,2.6-0.4,2.6-3.1v-18.1c0-3.5-2.9-2-2.9-3.1
		c0-0.2,0.2-0.5,0.6-0.5c0.7,0,0.5,0.2,2.4,0.2c2,0,4-0.2,5.8-0.2c0.5,0,8.4-0.7,8.4,6.2C87.6,220.7,85.7,223,83.2,224.1L83.2,224.1
		z M76.3,214.3v8.9c0,0.7,2.2,0.6,3.8,0.6c1.5,0,4.9-0.6,4.9-5.1c0-4.2-3.3-5.7-6.7-5.7C77,213,76.3,212.8,76.3,214.3L76.3,214.3z
		 M50.7,219.8v5.3c0,0.9,0,0.9,1.1,0.9h3.1c2.9,0,2.2-2.2,2.7-2.2c0.4,0,0.4,0.2,0.4,0.5v5.1c0,0.2-0.2,0.4-0.4,0.4
		c-0.9,0,0.2-2.6-2.2-2.6h-4.2c-0.7,0-0.5,0.5-0.5,0.9v5.3c0,1.6-0.2,2.4,2.2,2.4c6.6,0,7.5-2.9,7.8-2.9c0.2,0,0.2,0.2,0.2,0.2
		c0,1.1-0.7,2-1.5,2.7c-0.9,1.1-1.5,1.1-2.7,1.1c-2.2,0-4.2-0.2-6.4-0.2c-1.3,0-2.4,0.2-3.5,0.2c-0.4,0-0.5-0.2-0.5-0.4
		c0.2-0.4,0.4-0.2,1.3-0.7c0.7-0.4,0.9-1.1,0.9-2.4v-13c0-1.3,0-2.7-1.6-2.9c-0.2,0-0.7-0.2-0.7-0.4c0-0.4,0-0.4,0.9-0.4h12
		c0.2,0,0.4,0.2,0.4,0.5c0,3.1-0.4,3.5-0.5,3.5c-0.7,0-0.4-1.5-0.7-2c-0.7-1.1-3.6-0.9-4.9-0.9C50.7,217.9,50.7,217.9,50.7,219.8
		L50.7,219.8z M26.5,233.8v-14.6c0-2-2.4-1.5-2.4-2.2c0-0.2,0.2-0.2,0.4-0.2h5.8c0.4,0,0.5,0.2,0.5,0.2c0,0.5-2.2,0-2.2,2.2v6.2
		c0,0.4,0,0.4,0.5,0.4h10.4c0.2,0,0.2-0.5,0.2-0.7v-5.8c0-2-2.2-1.5-2.2-2.2c0-0.2,0.2-0.2,0.5-0.2h4.9c0.7,0,0.9,0.2,0.9,0.4
		c0,0.5-2,0-2,2v15c0,2.2,2.6,1.6,2.6,2.4c0,0,0,0.4-0.2,0.4c-0.9,0-1.6-0.2-2.7-0.2c-1.8,0-2.6,0.2-3.1,0.2c-0.4,0-0.7,0-0.7-0.4
		c0-0.7,2-0.4,2-2.2v-6.8c0-0.4,0.2-0.7-0.2-0.7H29c-0.4,0-0.4,0.2-0.4,0.5v7.1c0,1.8,2.7,1.3,2.7,2.2c0,0-0.2,0.2-0.4,0.2
		c-0.4,0-2.6-0.2-4-0.2c-2,0-2.4,0.2-2.4,0.2c-0.2,0-0.4-0.2-0.4-0.5C24.3,235.6,26.5,236.5,26.5,233.8L26.5,233.8z M10,233.8v-18.4
		c0-0.2,0.2-1.6-0.4-1.6H3.8c-2.2,0-2.2,0.6-2.9,2.6c0,0.4-0.2,0.7-0.5,0.7c-0.2,0-0.4-0.2-0.4-0.4l0.4-3.5c0-0.4,0-1.5,0.7-1.5
		c2.7,0,5.5,0.2,10,0.2c6.4,0,9.7-0.2,10.4-0.2c0.7,0,0.9,0.4,0.9,1.1l0.2,2.9c0.2,0.2,0.2,0.7-0.4,0.7c-1.3,0,0.5-2.7-2.9-2.7h-5.1
		c-1.6,0-1.5-0.2-1.5,1.8v18.1c0,2.9,2.9,1.8,2.9,2.9c0,0,0,0.4-0.4,0.4c-0.9,0-1.8-0.2-2.9-0.2c-3.8,0-4.6,0.2-4.7,0.2
		c-0.4,0-0.5-0.2-0.5-0.5C7.1,235.6,10,236,10,233.8L10,233.8z M144.3,3.9c5.3-0.2,10.6,0.7,11.3,0.4c2.7-0.9,5.3-1.6,7.1-3.3
		c2.4-2,5.1-0.5,6.4,0.5l2.4,1.6c1.5,1.5,4.2,4.9,4.9,5.7c1.3,0.7,1.6,0.7,2.7,0.7c4.7-0.2,10.9,3.6,12,8c0.7,2.7,2.4,12.2,2.6,12.8
		c1.1,1.8,3.1,4.4,3.3,5.1c0.9,1.6-1.5,0.5-1.1,2.4c0.4,2.6,2.2,4,3.3,4.2c3.8,4.4,3.8,8.6,3.5,8.8c-0.2,0.2-3.1-0.5-3.3-0.4v0.9
		c2.7,8.2,5.5,13.5-0.9,23.9c-1.3,1.8-2,3.5-2.4,5.7c0,0.9,0.5,3.5,0.5,5.1c0.2,3.6-1.8,6.2-3.8,9.1c-4.6,6.9-7.3,13.9-1.3,21.3
		c3.3,4,6.4,5.7,11.1,2.7c1.5-1.5,1.6-2.7,2.7-2.7c2.2,1.6,2.7,5.8,2.4,8.9c-0.4,5.3-4.7,8.9-9.9,10.2c-13.7,3.3-19.9-3.3-21.9-3.6
		c-3.8-0.5-18.1-0.7-25.5-6.2c-3.5-2.9-5.1-4.9-6.2-4.7c-4.7,1.1-5.8,7.5-17.5,9.1c-3.5,0.4-7.3,0.2-10.2,1.5
		c-7.5,4.7-15.9,8.4-27.6,4.6c-6.2-2.4-15-13.1-7.3-20.1c1.1,2,3.3,4,6.4,6c2,0.9,8.8,1.6,13.3-2.6c2.6-2.4,4-4.9,4.6-8.2l0.9-17.9
		c0.5-4.9,2-9.1,4.4-13.5c0.9-1.5,3.5-4,2.9-5.7c-0.4-1.3-1.5-1.3-2.4-1.8c-1.1-0.9-1.5-2.4-1.8-3.5c-0.7-2-1.5-4.2-1.8-4.7
		c-1.6-2.4-6.9-3.6-10-3.5c-1.8,0.7-2.2,1.8-3.5,0.7c-1.5-1.6-1.3-3.1-0.5-4c1.5-2.2,2.2-2.9,8.2-3.3c2.4,0.2,5.5,2,6.2,1.3
		c1.1-1.3-2.6-4.9-3.3-5.3c-1.8-0.7-2.9-0.9-4-3.3c-1.1-2.4-2.9-8.4-3.3-8.8c-1.1-1.1-1.8-2.2-2.4-3.8c-0.4-1.6,0-3.5,1.3-4.7
		l0.9-0.5c1.1-0.7,2.7-1.5,3.8-2.4l1.3-0.9c0.7-0.7,6.9-3.6,10.4-5.3l1.3-0.7c2-1.6,1.8-2.4,3.1-5.1c0.4-0.9,1.1-1.3,1.5-1.6
		c2-0.9,3.8-1.5,6-2c0.9,0,9.5-0.4,12.2-1.6C139.7,8.3,141.8,3.9,144.3,3.9L144.3,3.9z M168.8,26.2c-0.5-0.5-1.5-2,0.7-1.3
		c6.4,2.6,10.8,5.8,15,13.5c4.4,7.7,3.5,12.4-0.7,19.2c-1.1,1.8-6.8,7.8-7.5,9.3c-2,2-5.3,5.1-6,8c-0.4,0.7,0.4,1.1,1.1,0.7
		c6.2-2.9,14.4-9.3,17.2-12.4c3.1-4,4.7-8.4,2.4-15.3c-0.4-1.1-2-3.6-2.9-5.7c-0.7-1.5-1.5-4.6-2.2-6.8c-1.1-3.3-2.9-5.7-5.7-7.7
		c-2.6-2-7.3-4.7-9.3-7.5c-1.3-1.8-0.2-2.9,0.9-5.1c2.7-3.8-3.5-13.5-7.7-12.4c-2.7,1.1-0.7,0.9-7.1,4.2c-3.1,1.6-4.2,5.3-2.2,7.7
		c1.3,1.3,3.5,3.1,4,3.6c0,0.2,0.4,0.7-0.4,0.9c-1.1,0.5-1.1,0.9-1.8,0.4c-0.4-0.2-1.5-1.1-2.2-1.8c-1.3-1.1-5.7-4.2-6.2-4.6
		c-4.2-1.6-16.8-1.5-21.5-0.7c-2.2,0.4-5.1,1.3-5.7,1.8c-0.2,0.2-2,2.6-1.6,2.7h0.5c0.7-0.2,2.6-1.3,3.5-1.6
		c1.1-0.2,5.1,0.4,5.8,1.6c-0.2,0-2-0.2-3.1-0.2c-3.1,0.7-1.1,3.8-0.2,3.6h2.2v0.7l-0.2,0.5l-1.1,1.3c-0.4,0.4-0.2,0.4,0.5,0.4
		c1.5-0.2,2.2-0.4,2.2,0.4c-0.9,1.1-3.3,2.6-4.4,2.7c-1.6,0.5-1.1-0.4-2.6-1.6c-0.4-0.4-2.4-0.9-2.9-1.3l-0.7-0.7
		c-0.7-2-0.2-2.9-1.5-2.4c-0.4,0.2-14.8,6.6-17.3,8.6c-0.4,0.4-0.7,0.5-1.1,1.1c-0.7,1.3-1.3,2.2-1.1,2.9c0.4,0.5,0.4,1.1,0.9,1.5
		c0.9,0.7,2.2-0.9,3.5-1.5c0.5-0.4,0.9-0.2,1.1,0.4c0.2,0.9-1.5,2.6-1.8,3.3c-1.5,2.7,0,6,1.5,8.8c0.9,1.6,1.5,0.4,2.7-0.7
		c1.8-2,7.5-2.4,9.5-3.5c0.5-0.4,2.9-2.4,4.2-2.7c1.8-0.4,4,1.1,4.9,3.1c1.3,2,5.5,5.3,6.7,6.2c1.6,1.1,2.6,2.7,2.2,4.2
		c-0.2,0.4-5.5,0.9-8,2c-2.4,0.9-3.5,2.6-4.9,4.2c-6.9,5.7-7.8,3.8-9.1,5.3c-1.6,1.6,1.3,7.5,3.8,7.5c3.3-0.2,3.1,1.1,6.4-0.5
		c1.1-0.9,1.8-2,2.6-3.5c1.3-2.7,1.3-3.3,2.7-5.3c2.7-3.6,6.4-5.5,11.1-6.4c1.6-0.4,10.4,1.1,13-0.4c3.3-2.6,1.8-5.1-0.7-5.3
		c-0.7-0.2-2-0.2-2.7,0l-2,0.2c0,0,0-1.1,0.2-1.5c2-4.9,7.1-7.7,13.1-8.6c0.5,0,0.5-0.2,1.5,0.5c0.4,0.2,0.4,0.7,0.2,1.1
		c-1.1,2-1.3,1.8-1.8,4.4c-1.1,5.8-0.2,5.3-2.7,9.1c-2.4,1.8-4.7,2.9-7.7,3.3c-8,2.4-15,5.7-21.5,10.2c-3.6,2.7-8.6,7.3-10,9.1
		c-6.8,9.1-7.8,20.1-6.8,27.2c0.5,6-0.5,15.3-3.6,18.8c-5.8,6.2-15.1,4.7-17.3,3.6c-0.5-0.5-1.3-0.9-1.6-0.9
		c-0.9-0.2-1.5,0.5-1.5,0.9c0.5,3.1,5.5,6.4,10.6,7.1c2.2,0.2,6.9-0.4,9.7-2.2l2.2-1.6l-0.5-2.2c0,0,6-3.1,6.9-14.8
		c0.2-3.1,0.4-10.6,0.2-11.7l-0.5-2.7c-0.4-1.8,0.4-16.8,2.9-20.3c1.3-1.8,3.1-4,6-5.7c10.6-6.4,24.1-7.5,33.6-15
		c8.4-6.4,10.4-10.8,9.7-17c-1.6-7.7-6.4-8.2-9.8-9.9c-0.9-0.4-0.7-1.6-1.5-2.9c-0.2-0.4-2.4-2.6-3.1-3.1c-0.4-0.2-0.7-0.5-0.9-0.7
		c-1.1-1.1,1.6-1.5,1.5-1.5c0.5,0,0.9-0.2,1.6,0c4.9,0.5,12,2.2,15.3,6.2c3.5,3.8,4.7,8.4,4,13.3c-1.6,6.7-5.5,11.7-11.5,15
		c-7.8,5.1-15,8.6-23.9,11.9c-3.1,1.5-5.7,2.7-8.8,4.2c-2.6,1.5-5.3,3.5-7.1,7.3c-2.4,5.1-3.8,14.6-2.4,19.7
		c0.2,2.6-0.7,4.2,0.4,5.7c0.2,0.5,0.5,0.7,1.3,0.9c1.8-5.7-0.2-13.7,7.1-21.9c4.4-5.3,8.4-7.8,14.6-11.1c0.5-0.4,1.2-0.6,1.8-0.5
		l-0.2,1.8c-0.2,0.9-1.6,3.7-2.6,5.7c-0.9,2.4-3.5,12.2-2.4,16.1c1.5,8.2,2.2,13.9,9.7,20.3c5.7,4.9,13,4.2,15.5,3.3
		c0.7-0.4,1.1-0.9,0.4-1.8c-0.5-0.5-1.3-0.7-2.2-1.1c-7.1-3.8-12.8-10-14.4-17.7c-0.9-3.1-1.1-4.9-1.8-6.4c-0.2-0.5-0.7-0.5-0.9,0.2
		c-0.4,1.3-0.2,3.3-0.5,3.6c-1.3,0.9-2.4-4.9-2.4-5.1c-1.8-12,7.5-21.9,10.2-25c1.6-1.8,4.6-4.4,6-5.1c0.9-0.4,1.8,0,1.6,0.4
		c-0.4,0.9-4.7,7.3-5.7,9.3c-0.5,0.9-2.4,7.8-2.9,10.6c0.4,2,1.3,4.2,2.7,0c1.5-4.4,6.2-12.4,9.3-16.4c7.7-9.7,6.6-10.4,10.2-15
		c0.2-0.4,0.7-0.2,0.9,0.4c0.2,0.5,0.5,0.9,0.4,2c0,0.7-0.4,3.1,0.4,3.3c0.7,0,0.7,0,1.6-2.6c0.4-1.3,1.1-4.2,1.3-7.3
		c0-1.5-0.2-3.5-0.4-4.6C178.1,35.7,174.4,31.6,168.8,26.2L168.8,26.2z M169.5,106.6c0.9,8.8,11.9,25.7,24.4,22.3
		c1.6-0.4,2.2,0,3.8-1.5c0.4-0.2,1.5-1.1,0.7-1.6l-4-0.9c-5.3,0.5-11.5-5.7-12.8-10.2l-1.5-4c-0.4-1.1-0.9-4.4-1.8-4.7h-0.4
		c-0.2,0-0.5,1.1-0.9,1.6c-5.3-2-4.2-12-2-15.1l4-5.5c3.6-3.5,10.8-9.9,11.1-10.6c0,0,1.5-2.7,1.8-3.5c0-0.4,0.2-0.9-0.2-1.1
		l-10.6,6.9c-3.6,2.4-14.2,6.9-14.2,6.9c-4.2,2-8.8,11.5-3.1,19c0.4,0.4,0.7,0.7,1.3-0.2c0.2-0.5,0.9-5.5,1.5-8.2
		c0.2-1.1,2-5.7,3.8-5.3l0.2,0.4c0.2,0.2-0.7,3.3-1.3,5.8C168.9,99.5,169.5,105.4,169.5,106.6L169.5,106.6z M130.6,119.4
		c-0.4-0.4-0.2-0.7,0.2-1.6c0.7-1.1,1.6-2.2,2.2-3.1c2.7-4,3.6-8.4,3.1-13.3c-0.2-2.6-1.3-5.8-1.5-8c-0.4-3.3,0-5.7-1.5-4.9
		c-3.1,2.4-4.7,7.8-4.9,11.3c-0.2,3.6,0.4,11.9,0.2,13.5c-0.5,2.9-0.4,3.1-1.8,6.6c-0.5,1.3-1.8,2.7-2,3.3c-0.5,1.3,0.7,1.3,2.4,0.9
		c2.4-0.5,4.2-1.5,6.2-3.1c0,0,1.3-1.1,0.5-1.6C133.5,119.2,131.4,119.8,130.6,119.4L130.6,119.4z M96.3,59.4c1.3,0,1.3,0,2.4-0.2
		c1.6,0,5.1,0.7,6.6,1.5c1.6,0.7,2.6,0.5,3.1,0.4c0.7,0,0.7,0,1.6-0.4c1.6-1.1,0.2-2.2,0-2.2c-0.5-0.4-5.7-2-6.4-2.2
		c-2.4-0.7-2.7-0.7-3.1-0.7c-2.7,0.5-3.8,1.5-4.2,2.2C96,58.5,96.3,59.4,96.3,59.4z M114,56.6c-0.7-0.2-1.3,0.2-1.5,0.5
		c-0.4,0.2-0.2,0.4-0.2,0.9c0.2,0.5,1.3,2.4,1.8,2.6c0.4,0.4,0.7,0.4,0.9,0.2c0.2,0,1.3-0.9,1.1-1.5C116.2,58.3,114.8,56.8,114,56.6
		z M115.1,53.9c-0.2,0.5,0.9,2.2,1.6,1.8c0.5-0.2,2.6-2,2.9-2.6c0.2-0.5,0.5-1.3,0.4-1.5c-0.9-0.5-1.6-0.5-2.2-0.4
		C117.3,51.4,115.7,52.6,115.1,53.9z M109.8,50.8v-2.7c0-0.2,0-0.7-0.2-1.1c-0.2-0.2-0.7-0.9-0.7-1.1c-0.2-0.2-0.4-0.2-0.4-0.2
		c-0.4-0.2-0.5,0-0.9,0.2c-0.4,0.2-0.9,0.9-0.9,0.9c-0.2,0-0.4,0.4-0.4,0.7c0.2,0.4,0.4,1.6,1.1,2.4c0.4,0.2,0.5,0.4,0.7,0.5
		C108.9,50.8,109.3,50.8,109.8,50.8L109.8,50.8z M186.1,30c0.6,0.5,2.2,1.3,2.7,0.9c0.5-0.2,0.4-2.4,0.2-3.1c-0.2-1.6-1.1-4-2.6-6
		c-0.5-0.7-3.6-2.9-4.7-3.1c-3.5,0-2.2,2.6-2.2,2.6S182.6,26.7,186.1,30L186.1,30z M147.8,9.9c0.5-0.4,1.6-1.3,1.1-2.6
		c-0.5-0.2-0.7-0.4-1.5-0.4c-0.7-0.2-1.6,0.7-1.6,1.6C145.8,9.4,146.3,10.5,147.8,9.9L147.8,9.9z M135.2,48.4
		c-2-0.9-2.2-1.1-3.5-2.9c-0.4-0.5-4.6-6-6.4-6.4c-1.1-0.2-1.3,0-1.8-0.7c-1.8-2.9-2-5.5-5.3-7.3c-0.4-0.2-1.1-1.1-0.5-1.6
		c0.2-0.2,0.9-0.2,1.5,0c2.9,0.7,5.3,2,7.1,4.4c1.1,1.6,1.3,2.9,2.6,4c0.7,0.4,1.1,0.7,1.6,1.1c0.9,0.5,2,2.4,2.6,3.3
		c0.9,1.8,1.6,3.5,2.6,5.7C135.7,48.4,135.6,48.6,135.2,48.4L135.2,48.4z M106,32.4c-0.5,0-0.9,0-1.5-0.4c0,0-0.2-0.2-0.2-0.9
		s0.7-1.3,1.1-1.5c0.2,0,0.7-0.5,1.3-0.5h1.8c0.2,0,0,0.4-0.2,0.5c0,0.2-1.6,2.2-1.6,2.2C106.7,32,106.4,32.4,106,32.4z M162.4,17.8
		c-1.5-0.2-6.2-2.9-6.4-4.2c-0.2-0.4-0.4-1.6,0-2.6c0-0.9,3.1-3.8,5.3-4.4c0.9-0.2,0.9,0.4,0.9,0.5c0,0.9-0.6,2.6-0.4,3.6
		c0,1.1,1.3,3.5,2.4,3.5c0.4,0,0.7-0.2,1.1-0.4c1.3-0.7,1.5-1.1,2.4-2.4c0.4-1.1,0.5-1.3,0.9-2.2c0.2-0.5,0.7-0.4,1.3,0.5
		c0.5,0.9,0.4,2.2,0,3.3c-0.7,1.8-1.6,2.7-3.3,3.5c-0.9,0.5-2,0.9-2.4,0.9C163.6,17.8,162.7,18,162.4,17.8L162.4,17.8z M144.1,124.5
		c0.4,0.2,1.6,0.7,3.6,2.9c0.9,0.9,4.4,4.6,5.7,4.7c0.7,0,1.6,1.3,1.6,1.3s-0.2,0.9-1.6,1.3c-0.7,0.2-4.6,0.4-4.4,4.7
		c0.4,3.8,4.6,3.8,5.1,3.6c4.6-0.5,4.6-1.3,6.6-3.1c1.1-1.1,1.6-0.2,1.6-0.2s1.5,1.6,3.1,4c0.2,0.2,1.3,1.3-0.4,2.7
		c-1.5,1.5-3.1,2.7-3.5,3.1c-0.5,0.2-1.3,1.1-2.2-0.2c-1.3-1.8-4.6-4.6-8.6-1.5c-3.8,3.1-3.3,9.1,3.1,11.3c6.8,2.4,14,0.7,17-1.6
		c0,0,1.3-0.5,2.2-2.9c0.9-2.2,1.1-4.7,0.6-6c-0.4-0.7-1.1-2-1.1-2s-0.9-1.3-0.2-2c1.1-1.3,3.5-3.1,3.5-3.1s2.2-1.5,3.3,0.2
		c0.9,1.6,2,3.7,2,3.7s0.5,0.9-0.6,2.6c-0.9,1.4-1.8,2.8-2.7,4.2c0,0-0.9,2.2-0.2,4c0.4,0.9,0.5,1.8,1.8,4c1.1,1.3,2.9,2.6,6,2.7
		c3.8,0.2,7.5-2.7,8-3.3c0.4-0.6,3.3-5.5-2.6-6.7c-2-0.2-3.1,0.2-3.8,0c0,0-2.2-2-2.4-3.7c-0.2-1.6,0.7-2,0.7-2s1.8-2,3.3-2.2
		c1.3-0.2,1.5,0,2.4,0.9c0.7,0.9,2.2,2.2,2.2,2.2c2,1.6,4.9-0.4,3.8-2.7c-1.3-2.4-1.5-2.4-2-3.5c4.7-1.5,9.5-5.8,13-8
		c-0.4,0.9-12,25.9-12.4,26.8c-0.4,1.1-1.3,4.6-0.4,6.2c0.5,1.3,0.9,3.1-0.5,4.9c-0.9,1.3-3.8,13-3.8,14c0.2,0.7,0.2,1.3,1.1,1.5
		v3.1c-0.4,0.7-2.2,2.9-3.5,2.7H99.4c-1.3,0.2-3.3-2-3.5-2.7v-3.1c0.7-0.2,0.9-0.7,0.9-1.5c0.2-1.1-2.7-12.8-3.6-14
		c-1.5-1.8-1.1-3.7-0.5-4.9c0.9-1.6,0-5.1-0.5-6.2c-0.4-0.9-12.2-26.8-12.2-26.8c1.1,0.7,7.1,5.8,13.1,8c0,0-1.5,2.2-2.2,3.5
		c-1.1,2.4,1.8,4.4,3.6,2.7c0,0,1.5-1.3,2.4-2.2c0.9-0.9,1.1-1.1,2.4-0.9c1.5,0.2,3.3,2.2,3.3,2.2s0.9,0.4,0.7,2
		c-0.2,1.6-2.4,3.7-2.4,3.7c-0.9,0.2-1.8-0.2-3.8,0c-5.8,1.3-2.9,6.2-2.6,6.7c0.5,0.5,4,3.5,8,3.3c3.1-0.2,4.9-1.5,6-2.7
		c1.3-2.2,1.5-3.1,1.6-4c0.9-1.8-0.2-4-0.2-4c-0.4-0.7-1.8-2.9-2.7-4.2c-1.1-1.6-0.4-2.6-0.4-2.6s0.9-2,2-3.7
		c0.9-1.6,3.3-0.2,3.3-0.2s2.4,1.8,3.3,3.1c0.7,0.7,0,2,0,2s-0.7,1.3-1.1,2c-0.5,1.3-0.4,3.8,0.4,6c1.1,2.4,2.2,2.9,2.4,2.9
		c2.9,2.4,10.2,4,16.8,1.6c6.7-2.2,7.3-8.2,3.1-11.3c-4-3.1-7.1-0.4-8.4,1.5c-1.1,1.3-1.8,0.4-2.2,0.2c-0.4-0.4-2-1.6-3.5-3.1
		c-1.6-1.5-0.5-2.6-0.4-2.7c1.6-2.4,3.1-4,3.1-4s0.5-0.9,1.5,0.2c2.2,1.8,2.2,2.6,6.7,3.1c0.5,0.2,4.7,0.2,4.9-3.6
		c0.4-4.4-3.5-4.6-4.2-4.7c-1.5-0.4-1.8-1.3-1.8-1.3s1.1-1.3,1.6-1.3c1.3-0.2,4.9-3.8,5.8-4.7C142.5,125.2,143.8,124.7,144.1,124.5
		L144.1,124.5z M186.8,186.2c0.2-0.2,0-2,0-2c-0.2-0.7-1.1-2.7-1.3-3.8c-0.4-0.9,0-5.3,1.3-6.4c2.4-1.1,2.7,0.9,2.4-2H98.9
		c-0.2,2.9,0,0.9,2.6,2c1.1,1.1,1.5,5.5,1.3,6.4c-0.4,1.1-1.3,3.1-1.3,3.8c0,0-0.4,1.8-0.2,2C101.3,186.4,186.8,186.4,186.8,186.2z
		 M98.2,179.6h1.1v-2.2h-1.1V179.6z M188.3,179.6h1.1v-2.2h-1.1V179.6z M96.7,169.9H191c0.4,0,0.5-0.2,0.5-0.4V167
		c0-0.2-0.2-0.4-0.5-0.4H96.7c-0.4,0-0.4,0.2-0.4,0.4v2.6C96.3,169.8,96.3,169.9,96.7,169.9L96.7,169.9z M100.9,190.6h86.3
		c0.2,0,0.4-0.2,0.4-0.4v-1.5c0-0.2-0.2-0.4-0.4-0.4h-86.3c-0.2,0-0.4,0.2-0.4,0.4v1.5C100.5,190.4,100.7,190.6,100.9,190.6
		L100.9,190.6z M165.7,184c-2.4,0-4-1.8-4-4v-1.8c0-2.4,1.6-4,4-4h8.6c2.2,0,4,1.8,4,4v1.8c0,2.2-1.8,4-4,4H165.7z M169.9,182
		c2.2,0,4-1.3,4-2.9c0-1.6-1.8-2.9-4-2.9c-2.2,0-4,1.3-4,2.9C165.8,180.7,167.7,182,169.9,182z M114.2,184c-2.2,0-4-1.8-4-4v-2
		c0-2.2,1.8-4,4-4h8.6c2.2,0,4,1.8,4,4v2c0,2.2-1.8,4-4,4H114.2z M118.6,181.8c2.2,0,3.8-1.3,3.8-2.9c0-1.5-1.6-2.9-3.8-2.9
		c-2.2,0-4,1.5-4,2.9C114.6,180.5,116.4,181.8,118.6,181.8z M140.7,184c-2.4,0-4-1.8-4-4v-2c0-2.2,1.6-4,4-4h8.4c2.2,0,4,1.8,4,4v2
		c0,2.2-1.8,4-4,4H140.7z M144.9,181.8c2.2,0,3.8-1.3,3.8-2.9c0-1.5-1.6-2.9-3.8-2.9c-2.2,0-4,1.5-4,2.9
		C140.8,180.5,142.7,181.8,144.9,181.8z M106.7,180.9c-0.7,0-1.3-0.5-1.3-1.2c0,0,0,0,0-0.1c0-0.7,0.5-1.3,1.2-1.3c0,0,0,0,0.1,0
		c0.7,0,1.3,0.5,1.3,1.3C108,180.3,107.5,180.9,106.7,180.9C106.8,180.9,106.7,180.9,106.7,180.9z M131.7,180.9
		c-0.7,0-1.3-0.5-1.3-1.2c0,0,0,0,0-0.1c0-0.7,0.5-1.3,1.3-1.3c0.7,0,1.3,0.5,1.3,1.3C133,180.3,132.5,180.9,131.7,180.9
		C131.8,180.9,131.7,180.9,131.7,180.9z M181.9,180.9c-0.7,0-1.3-0.5-1.3-1.2c0,0,0,0,0-0.1c0-0.7,0.6-1.3,1.3-1.3
		c0.7,0,1.3,0.5,1.3,1.3C183.2,180.3,182.6,180.9,181.9,180.9C181.9,180.9,181.9,180.9,181.9,180.9z M157.4,180.9
		c-0.7,0-1.3-0.5-1.3-1.2c0,0,0,0,0-0.1c0-0.7,0.6-1.3,1.3-1.3c0.7,0,1.3,0.5,1.3,1.3C158.7,180.3,158.2,180.9,157.4,180.9
		C157.5,180.9,157.5,180.9,157.4,180.9z"/>
</g>
</svg>
