<?xml version="1.0" encoding="utf-8"?>
<!-- Generator: Adobe Illustrator 26.0.3, SVG Export Plug-In . SVG Version: 6.00 Build 0)  -->
<svg version="1.1"
	 id="svg19545" xmlns:cc="http://creativecommons.org/ns#" xmlns:dc="http://purl.org/dc/elements/1.1/" xmlns:rdf="http://www.w3.org/1999/02/22-rdf-syntax-ns#" xmlns:svg="http://www.w3.org/2000/svg"
	 xmlns="http://www.w3.org/2000/svg" xmlns:xlink="http://www.w3.org/1999/xlink" x="0px" y="0px" viewBox="0 0 300 95"
	 style="enable-background:new 0 0 300 95;" xml:space="preserve">
<style type="text/css">
	.st0{fill:#9CA3AF;}
</style>
<g id="layer1" transform="translate(-225.00002,-484.83968)">
	<g id="g19490" transform="matrix(2.0622951,0,0,2.0622951,1233.9528,285.53995)">
		<path id="path7555" class="st0" d="M-444.7,96.6h-8.2c0.9,0.4,1.4,1.5,1.4,2.7c0,1.1-0.3,2.5-0.9,4.2l-4.1,11.4l-7.4-18.2h-6.6
			c1.9,1.4,2.7,4.3,1.4,7.5l-4.9,11.3l-7.4-18.7h-7.8c1.2,0.8,2.2,2.8,3.3,5.5l7.6,19c1,2.6,2.2,3.9,4.6,5.1l7.9-17.8l5.4,12.7
			c1.1,2.5,2.2,3.9,4.7,5.1L-444.7,96.6L-444.7,96.6z"/>
		<path id="path7559" class="st0" d="M-427.1,120.7c-1.9,1.4-3.9,2-6.7,2c-1.5,0-2.8-0.1-3.8-0.4v-7.3h2c2.5,0,3.3,0.2,4,0.9v-4.3
			h-6v-6c0,0,0.9-0.1,2.8-0.1c2.2,0,3.8,0.4,4.7,1.3v-4.4h-14.4c1.2,0.6,1.3,1.6,1.3,5.4v12.4c0,3.9-0.2,4.8-1.3,5.4h15.8
			L-427.1,120.7L-427.1,120.7z"/>
		<path id="path7563" class="st0" d="M-408.4,118.6c0-7.1-10.8-6.6-10.8-10.9c0-1.3,1.2-2.4,3.1-2.4c2.1,0,3.9,0.8,5.9,2.7v-5.1
			c-2-0.5-3.7-0.8-5.7-0.8c-4.4,0-9,2.7-9,7c0,8,10.8,6.8,10.8,11.3c0,1.6-1.4,2.7-3.9,2.7c-2.7,0-5.4-1.1-8.2-3.5l1.5,5.5
			c2.2,0.8,4.1,1.2,6.1,1.2C-412.8,126.4-408.4,123.3-408.4,118.6"/>
		<path id="path7567" class="st0" d="M-387.9,102.6h-18.9l-1.3,4.4c1.4-1,2.7-1.3,5-1.3h2.3v14.7c0,3.9-0.2,4.8-1.4,5.4h8.3
			c-1.2-0.6-1.3-1.6-1.3-5.4v-14.7h2c2.1,0,3.5,0.3,4.2,1.3L-387.9,102.6z"/>
		<path id="path7571" class="st0" d="M-377,125.8c-1.2-0.6-1.3-1.6-1.3-5.4V108c0-3.9,0.2-4.8,1.3-5.4h-8.3c1.2,0.6,1.3,1.6,1.3,5.4
			v12.4c0,3.9-0.2,4.8-1.3,5.4H-377z"/>
		<path id="path7575" class="st0" d="M-349.5,102.6h-7.6c1.5,0.8,1.7,2.5,1.7,5.1v9.4l-9.7-11.5c-1-1.2-1.6-2.1-2.3-2.9h-6.7
			c1.4,0.8,2,2.3,2,5.4v12.7c0,2.6-0.2,4.3-1.7,5.1h7.6c-1.5-0.8-1.7-2.5-1.7-5.1v-9.6l10,11.9c1.4,1.7,3.2,2.4,6.6,2.9v-18.3
			C-351.2,105.1-351,103.4-349.5,102.6"/>
		<path id="path7579" class="st0" d="M-476.5,138.9v2c0,0.5,0.1,1.3-0.5,1.5v0h2.2v0c-0.6-0.2-0.5-1-0.5-1.5v-4.3
			c0-0.5-0.1-1.3,0.5-1.5v0h-2.2v0c0.6,0.2,0.5,1,0.5,1.6v1.4h-4.1v-1.4c0-0.5-0.1-1.3,0.5-1.6v0h-2.1v0c0.6,0.2,0.5,1,0.5,1.5v4.3
			c0,0.5,0.1,1.3-0.5,1.5v0h2.1v0c-0.6-0.2-0.5-1-0.5-1.5v-2H-476.5z"/>
		<path id="path7583" class="st0" d="M-467.6,135.7c1.8,0,2.8,1.6,2.8,3.2c0,1.7-1.1,2.9-2.8,2.9c-1.8,0-2.9-1.6-2.9-3.2
			C-470.4,137-469.3,135.7-467.6,135.7 M-467.5,134.9c-2.4-0.1-4.2,1.7-4.2,3.9c0,2.3,1.9,3.9,4.1,3.9c2.2,0,4.1-1.7,4.1-4
			C-463.5,136.7-465.1,134.9-467.5,134.9"/>
		<path id="path7587" class="st0" d="M-457.9,135.9h1c0.4,0,0.8,0.1,1,0.5h0l0.4-1.3h0c-0.1,0.1-0.3,0.1-0.5,0.1h-4.2h-0.3
			c-0.1,0-0.3,0-0.4-0.1h0l-0.4,1.3h0c0.4-0.3,0.9-0.5,1.3-0.5h1v5c0,0.5,0.1,1.3-0.5,1.5v0h2.2v0c-0.6-0.4-0.6-0.8-0.6-1.4
			L-457.9,135.9L-457.9,135.9z"/>
		<path id="path7591" class="st0" d="M-450.8,138.9h0.8c0.3,0,0.8,0,1,0.3h0V138h0c-0.1,0.1-0.3,0.1-0.5,0.1h-1.3V136
			c0.4-0.1,0.8-0.1,1.1-0.1c0.5,0,1,0,1.3,0.5h0v-1.3h0c-0.1,0.1-0.3,0.1-0.5,0.1h-3.6v0c0.6,0.2,0.5,1,0.5,1.6v4.3
			c0,0.5,0.1,1.3-0.5,1.5v0h4.7l0.5-1.5h0c-0.6,0.5-1.3,0.7-2.1,0.7l-1.4-0.1L-450.8,138.9L-450.8,138.9z"/>
		<path id="path7595" class="st0" d="M-442.6,141.6v-4.9c0-0.5-0.1-1.3,0.5-1.6v0h-2.2v0c0.6,0.2,0.5,1,0.5,1.6v4.3
			c0,0.5,0.1,1.3-0.5,1.5v0h4.6l0.6-1.5h0c-0.6,0.5-1.2,0.7-2,0.7L-442.6,141.6L-442.6,141.6z"/>
		<path id="path7599" class="st0" d="M-431.7,135.2c-0.5-0.2-1.1-0.2-1.7-0.2c-1.4,0-2.8,0.5-2.8,2c0,2.4,3.9,2.1,3.9,3.8
			c0,0.8-1,1.2-1.6,1.2c-0.9,0-1.8-0.4-2.5-0.9l0.3,1.4c0.6,0.2,1.3,0.3,2,0.3c1.8,0,3-1.1,3-2.3c0-2.1-3.9-2.1-3.9-3.6
			c0-0.8,0.8-1,1.5-1c0.6,0,1.3,0.3,1.8,0.7V135.2L-431.7,135.2z"/>
		<path id="path7603" class="st0" d="M-419,141c-0.4,0.5-1,1-1.7,1c-0.9,0-1.6-0.6-1.6-1.5c0-0.7,0.5-1.3,1-1.7L-419,141L-419,141z
			 M-421,137.5c-0.3-0.3-0.8-0.7-0.8-1.2c0-0.4,0.3-0.6,0.7-0.6c0.4,0,0.8,0.3,0.8,0.7C-420.3,136.8-420.6,137.2-421,137.5
			 M-414.9,142.5L-414.9,142.5c-2.1-1-3.8-2.8-5.5-4.4c0.5-0.5,1-0.9,1-1.7c0-0.9-0.7-1.6-1.6-1.6c-0.9,0-1.8,0.6-1.8,1.6
			c0,0.6,0.5,1.2,0.9,1.6c-0.8,0.7-1.6,1.3-1.6,2.4c0,1.4,1.3,2.2,2.5,2.2c1.1,0,1.8-0.4,2.3-1.3c0.4,0.3,0.9,0.8,1.3,1
			c0.3,0.2,0.7,0.2,1.1,0.2L-414.9,142.5L-414.9,142.5z"/>
		<path id="path7607" class="st0" d="M-408.4,135.1L-408.4,135.1c0.6,0.2,0.5,1.1,0.5,1.6v4.3c0,0.5,0.1,1.3-0.5,1.5v0h2.2v0
			c-0.6-0.2-0.5-1-0.5-1.5v-5.1c0.3,0,0.5-0.1,0.8-0.1c0.8,0,1.5,0.4,1.5,1.3c0,1.1-1,1.5-2,1.6l1,1.6l1.4,1.7
			c0.3,0.4,0.7,0.6,1.3,0.6h1c-0.6-0.4-1.4-1-1.8-1.6l-1.6-2c0.9-0.2,1.8-1,1.8-2c0-1-0.8-1.8-2.3-1.8H-408.4L-408.4,135.1z"/>
		<path id="path7611" class="st0" d="M-397.3,138.9h0.8c0.3,0,0.8,0,1,0.3h0V138h0c-0.1,0.1-0.3,0.1-0.5,0.1h-1.3V136
			c0.4-0.1,0.8-0.1,1.1-0.1c0.5,0,1,0,1.3,0.5h0v-1.3h0c-0.1,0.1-0.3,0.1-0.5,0.1h-3.6v0c0.6,0.2,0.5,1,0.5,1.6v4.3
			c0,0.5,0.1,1.3-0.5,1.5v0h4.7l0.5-1.5h0c-0.6,0.5-1.3,0.7-2.1,0.7l-1.4-0.1L-397.3,138.9L-397.3,138.9z"/>
		<path id="path7615" class="st0" d="M-386.2,135.2c-0.5-0.2-1.1-0.2-1.7-0.2c-1.4,0-2.8,0.5-2.8,2c0,2.4,3.9,2.1,3.9,3.8
			c0,0.8-1,1.2-1.6,1.2c-0.9,0-1.8-0.4-2.5-0.9l0.3,1.4c0.6,0.2,1.3,0.3,2,0.3c1.8,0,3-1.1,3-2.3c0-2.1-3.9-2.1-3.9-3.6
			c0-0.8,0.8-1,1.5-1c0.6,0,1.3,0.3,1.8,0.7V135.2L-386.2,135.2z"/>
		<path id="path7619" class="st0" d="M-378.3,135.7c1.8,0,2.8,1.6,2.8,3.2c0,1.7-1.1,2.9-2.8,2.9c-1.8,0-2.9-1.6-2.9-3.2
			C-381.2,137-380.1,135.7-378.3,135.7 M-378.2,134.9c-2.4-0.1-4.2,1.7-4.2,3.9c0,2.3,1.9,3.9,4.1,3.9c2.2,0,4.1-1.7,4.1-4
			C-374.2,136.7-375.9,134.9-378.2,134.9"/>
		<path id="path7623" class="st0" d="M-371.1,135.1L-371.1,135.1c0.6,0.2,0.5,1.1,0.5,1.6v4.3c0,0.5,0.1,1.3-0.5,1.5v0h2.2v0
			c-0.6-0.2-0.5-1-0.5-1.5v-5.1c0.3,0,0.5-0.1,0.8-0.1c0.8,0,1.5,0.4,1.5,1.3c0,1.1-1,1.5-2,1.6l1,1.6l1.4,1.7
			c0.3,0.4,0.7,0.6,1.3,0.6h1c-0.6-0.4-1.4-1-1.8-1.6l-1.6-2c0.9-0.2,1.8-1,1.8-2c0-1-0.8-1.8-2.3-1.8H-371.1L-371.1,135.1z"/>
		<path id="path7627" class="st0" d="M-359.4,135.9h1c0.4,0,0.8,0.1,1,0.5h0l0.4-1.3h0c-0.1,0.1-0.3,0.1-0.5,0.1h-4.2h-0.3
			c-0.1,0-0.3,0-0.4-0.1h0l-0.4,1.3h0c0.3-0.3,0.9-0.5,1.3-0.5h1v5c0,0.5,0.1,1.3-0.5,1.5v0h2.2v0c-0.6-0.4-0.6-0.8-0.6-1.4
			L-359.4,135.9L-359.4,135.9z"/>
		<path id="path7631" class="st0" d="M-350.1,135.2c-0.5-0.2-1.1-0.2-1.7-0.2c-1.4,0-2.8,0.5-2.8,2c0,2.4,3.9,2.1,3.9,3.8
			c0,0.8-1,1.2-1.6,1.2c-0.9,0-1.8-0.4-2.5-0.9l0.3,1.4c0.6,0.2,1.3,0.3,2,0.3c1.8,0,3-1.1,3-2.3c0-2.1-3.9-2.1-3.9-3.6
			c0-0.8,0.8-1,1.5-1c0.6,0,1.3,0.3,1.8,0.7V135.2L-350.1,135.2z"/>
		<path id="path7635" class="st0" d="M-346.8,105.6v-0.9h0.6c0.3,0,0.6,0.1,0.6,0.4c0,0.4-0.3,0.5-0.7,0.5H-346.8L-346.8,105.6z
			 M-346.8,105.9h0.5l0.7,1.2h0.5l-0.8-1.2c0.4-0.1,0.7-0.3,0.7-0.8c0-0.6-0.3-0.8-1-0.8h-1.1v2.8h0.4V105.9z M-346.3,108.2
			c1.3,0,2.5-1,2.5-2.5c0-1.4-1.1-2.4-2.5-2.4c-1.4,0-2.5,1-2.5,2.4C-348.7,107.2-347.6,108.2-346.3,108.2 M-348.3,105.8
			c0-1.2,0.9-2,2-2c1.1,0,2,0.9,2,2c0,1.2-0.9,2.1-2,2.1C-347.4,107.8-348.3,106.9-348.3,105.8"/>
	</g>
</g>
</svg>
