<svg id="Layer_3" data-name="Layer 3" xmlns="http://www.w3.org/2000/svg" viewBox="0 0 249.37 250"><path d="M248.43,107.7A124.63,124.63,0,1,0,108.48,248.91,129.8,129.8,0,0,0,125.2,250a123.4,123.4,0,0,0,64.08-17.82,12.06,12.06,0,1,0-12.44-20.66A100.49,100.49,0,1,1,220,158.3a17.42,17.42,0,0,1-16.72,11.3,18,18,0,0,1-18-18V77.16a12.06,12.06,0,0,0-24.12,0v.11a60.29,60.29,0,1,0,4.35,92.63,42,42,0,0,0,37.73,23.82,41.53,41.53,0,0,0,39.5-27.53,124.8,124.8,0,0,0,5.62-58.49ZM125.06,161.56a36.17,36.17,0,1,1,36.17-36.17A36.17,36.17,0,0,1,125.06,161.56Z" transform="translate(-0.31)"/></svg>