<svg id="Layer_1" data-name="Layer 1" xmlns="http://www.w3.org/2000/svg" viewBox="0 0 250 250"><defs><style>.cls-1{fill-rule:evenodd;}</style></defs><path class="cls-1" d="M122.34,188.86c14.27-7,28.87-17.24,39.06-27.44,10-10,20.49-24.93,27.39-38.95,6.24-12.69,12.78-31.06,8.5-46.52-3.4-12.29-12.76-20.43-27.82-24.2a12.72,12.72,0,0,0-14.21,6l-13.5,23.38a12.67,12.67,0,0,0,2,15.46l7.32,7.33a4.82,4.82,0,0,1,1,5.57c-8.87,19.83-22.83,33.79-42.67,42.66a4.82,4.82,0,0,1-5.57-1l-7.32-7.33a12.67,12.67,0,0,0-15.46-2L57.75,155.28a12.7,12.7,0,0,0-6,14.21A54.42,54.42,0,0,0,54,176.57c-7.36,8.69-14.24,12-20.48,9.78-6.77-2.39-13.3-11-18.39-24.28-4.51-11.75-7.32-26-7.32-37.07A117.19,117.19,0,1,1,125,242.19a116,116,0,0,1-72-24.73,3.91,3.91,0,0,0-4.81,6.16,125,125,0,0,0,165.21-10.23A125,125,0,0,0,36.61,36.61,124.18,124.18,0,0,0,0,125c0,12,3,27.29,7.84,39.87,4.19,10.92,11.6,24.78,23.08,28.84,6.25,2.22,15.79,2.11,26.9-9.69a31,31,0,0,0,18.11,13.25,40.54,40.54,0,0,0,10.73,1.37c12.65,0,25.87-5,35.68-9.78Z"/></svg>