<svg id="Capa_1" data-name="Capa 1" xmlns="http://www.w3.org/2000/svg" viewBox="0 0 250 250"><path d="M125,0A125,125,0,1,0,250,125,125,125,0,0,0,125,0Zm14.38,166.52c-11.56,0-22.43-6.25-26.16-13.35,0,0-6.22,24.67-7.52,29.43-4.64,16.83-18.28,33.66-19.34,35a1.42,1.42,0,0,1-2.54-.61c-.29-2.15-3.78-23.38.32-40.69,2-8.7,13.77-58.35,13.77-58.35a41.26,41.26,0,0,1-3.41-16.94c0-15.87,9.19-27.72,20.65-27.72,9.73,0,14.43,7.31,14.43,16.08,0,9.79-6.23,24.43-9.44,38C117.45,138.76,125.83,148,137,148,157.32,148,171,122,171,91.09c0-23.46-15.79-41-44.54-41C94,50.06,73.7,74.28,73.7,101.34c0,9.33,2.76,15.91,7.07,21,2,2.34,2.26,3.28,1.54,6-.52,2-1.69,6.71-2.18,8.59a3.7,3.7,0,0,1-5.37,2.68c-15-6.11-21.92-22.49-21.92-40.91,0-30.41,25.65-66.89,76.53-66.89,40.88,0,67.79,29.58,67.79,61.34C197.16,135.14,173.8,166.52,139.38,166.52Z"/></svg>