<svg id="Glyph" enable-background="new 0 0 32 32" height="512" viewBox="0 0 32 32" width="512" xmlns="http://www.w3.org/2000/svg"><path id="XMLID_277_" d="m29.707 9.293-6-6c-.286-.286-.715-.37-1.09-.217-.374.155-.617.52-.617.924v3h-15c-1.657 0-3 1.343-3 3 0 1.657 1.343 3 3 3h15v3c0 .404.243.769.617.924.376.155.805.068 1.09-.217l6-6c.391-.39.391-1.024 0-1.414z"/><path id="XMLID_283_" d="m25 19h-15v-3c0-.404-.243-.769-.617-.924s-.803-.07-1.09.217l-6 6c-.39.39-.39 1.024 0 1.414l6 6c.285.285.714.372 1.09.217.374-.155.617-.52.617-.924v-3h15c1.657 0 3-1.343 3-3 0-1.657-1.343-3-3-3z"/></svg>