<svg id="Layer_1" data-name="Layer 1" xmlns="http://www.w3.org/2000/svg" viewBox="0 0 500 103"><defs><style>.cls-1{fill:#232f67;}.cls-2{fill:#ed1e24;}</style></defs><path class="cls-1" d="M53.22,0,56.3.37A48.58,48.58,0,0,1,71.79,5a50.11,50.11,0,0,1,20,17.5c.11.18.22.36.39.62-.7.07-1.32.14-1.94.19-2.66.21-5.32.42-8,.61a2,2,0,0,1-.68-.1q-5-1.39-10.07-2.83a1.88,1.88,0,0,1-.93-.66A47.51,47.51,0,0,0,53.94,5.61,43.13,43.13,0,0,0,41,1.12c-.17,0-.33-.09-.67-.18.51-.11.85-.19,1.2-.25s.71-.13,1.06-.17L46.44.1a2.13,2.13,0,0,0,.42-.1Z"/><path class="cls-1" d="M0,46.86c.13-1.11.24-2.23.4-3.33a1.6,1.6,0,0,1,.31-.8A88.94,88.94,0,0,1,23,24s.08,0,.2,0a4.29,4.29,0,0,1-.06.53,43.15,43.15,0,0,0-1.38,10.3c0,1.67.05,3.34.14,5,0,.5-.27.61-.58.77a80.88,80.88,0,0,0-10.7,6.59A36.46,36.46,0,0,0,.51,57.51L0,53.09Z"/><path class="cls-2" d="M70.82,29.82l1.1,5.38-4.5,1.34A190.12,190.12,0,0,0,35.59,48.9a82.72,82.72,0,0,0-16.3,10.4c-1.62,1.38-3,3-4.52,4.55a1,1,0,0,0-.17,1.35c5.77,12,15.08,19.7,28.14,22.17,14.4,2.73,26.79-1.51,36.66-12.44a36.59,36.59,0,0,0,9-19.17,44.6,44.6,0,0,0,.36-10.39c0-.4-.19-.51-.55-.52-1.57-.06-3.13-.16-4.7-.18-3.1-.05-6.2-.16-9.29,0q-5.8.23-11.59.82c-3.06.32-6.09.91-9.19,1.4,1.72-.82,3.4-1.66,5.12-2.41A131.31,131.31,0,0,1,82,36.94c3.48-.79,7-1.48,10.51-2.11,1.55-.27,3.15-.26,4.82-.39.59,2.34,1.19,4.6,1.72,6.88a38.64,38.64,0,0,1,1,9.58,49.47,49.47,0,0,1-13.5,33.77,49.43,49.43,0,0,1-26.3,15,48.69,48.69,0,0,1-14.15.95A48.61,48.61,0,0,1,21.53,92,49.3,49.3,0,0,1,2.75,67.29a9.09,9.09,0,0,1,.91-7.52,24.1,24.1,0,0,1,5.68-6.71A71.66,71.66,0,0,1,25.41,42.78a139,139,0,0,1,34.46-11.2c3.47-.68,7-1.18,10.45-1.76A4.12,4.12,0,0,1,70.82,29.82Z"/><path class="cls-1" d="M407.74,69.43A21.7,21.7,0,1,1,429.45,48,21.58,21.58,0,0,1,407.74,69.43Zm0-34.89a13.21,13.21,0,1,0,13.13,13.27A13.21,13.21,0,0,0,407.76,34.54Z"/><path class="cls-1" d="M434.76,26.48h17.36a13.18,13.18,0,0,1,5.8,24.92l-.25.14L470.12,69c-.24,0-.39,0-.55,0-3.1,0-6.19,0-9.29,0a1,1,0,0,1-.88-.46l-10.78-15.2a1.07,1.07,0,0,0-1-.54c-1.43,0-2.87,0-4.39,0V69h-8.44Zm8.46,17.83c2.86,0,5.66.07,8.44-.05a6.3,6.3,0,0,0,2.8-.91,4.29,4.29,0,0,0-.08-7.47,7.27,7.27,0,0,0-3.71-.89q-3.44,0-6.87,0l-.58,0Z"/><path class="cls-2" d="M173.74,51.56c4.14,5.8,8.27,11.57,12.45,17.41-.25,0-.4,0-.56,0-3.1,0-6.19,0-9.29,0a1,1,0,0,1-.88-.47c-3.56-5-7.15-10-10.7-15.09a1.3,1.3,0,0,0-1.24-.64c-1.39,0-2.79,0-4.26,0V69h-8.43V26.48h17.55a13.19,13.19,0,0,1,12.54,10.73c.86,5.63-1,10.16-5.68,13.45C174.79,51,174.3,51.23,173.74,51.56Zm-14.46-7.24c2.73,0,5.38,0,8,0a7.29,7.29,0,0,0,2.63-.63,4.14,4.14,0,0,0,2.7-4,4,4,0,0,0-2.64-4,7.86,7.86,0,0,0-2.69-.65c-2.58-.09-5.17,0-7.76,0a1.76,1.76,0,0,0-.27,0Z"/><path class="cls-1" d="M54.06,12.34a65,65,0,0,0-26,5.47c.45-1.14.8-2.12,1.21-3.08A60.06,60.06,0,0,1,36.6,2.18a2.75,2.75,0,0,1,2.55-.79A56.17,56.17,0,0,1,61.86,15a53.1,53.1,0,0,1,8.21,10.49c.07.11.13.22.24.42C54.63,28.08,39.49,32,25,38.69c0-1.78,0-3.45,0-5.11a51.91,51.91,0,0,1,1.67-11.22,1.18,1.18,0,0,1,.67-.83,96.37,96.37,0,0,1,24.7-8.67L54,12.44S54,12.4,54.06,12.34Z"/><path class="cls-1" d="M279.25,26.52h8.47v.78q0,11.94,0,23.87a11.63,11.63,0,0,0,.94,5.08,7.74,7.74,0,0,0,14.6-1,12.4,12.4,0,0,0,.52-3.37c0-8.17,0-16.34,0-24.51v-.79h8.52v.59c0,8.72.07,17.44,0,26.16-.08,7.68-4.65,13.91-12.07,15.62-5.8,1.34-11.22.46-15.81-3.62a15.11,15.11,0,0,1-4.91-9.58,32.59,32.59,0,0,1-.24-4.31q0-12,0-24.06Z"/><path class="cls-1" d="M362.74,52.83V69h-8.45V26.48h17.45a13.16,13.16,0,0,1,2.51,26,15.59,15.59,0,0,1-3,.31c-2.58,0-5.17,0-7.76,0Zm0-17.85V44.3l.28,0c2.55,0,5.09,0,7.64,0a6.31,6.31,0,0,0,3.58-1.13,4.32,4.32,0,0,0,1.35-5.58,4.71,4.71,0,0,0-3.8-2.45,39.89,39.89,0,0,0-4.38-.17C365.91,35,364.36,35,362.78,35Z"/><path class="cls-2" d="M213.58,52.83V69h-8.46V26.48H222.5a13.17,13.17,0,0,1,1.79,26.18,12.51,12.51,0,0,1-2.21.16c-2.59,0-5.18,0-7.76,0Zm0-8.54a2.67,2.67,0,0,0,.35.05c2.5,0,5,0,7.5,0A6.48,6.48,0,0,0,225,43.26a4.32,4.32,0,0,0,.93-6.4A5.51,5.51,0,0,0,221.68,35c-2.55-.09-5.09,0-7.64,0a3.71,3.71,0,0,0-.44,0Z"/><path class="cls-1" d="M319.7,69V26.48h17.38a13.17,13.17,0,0,1,1.78,26.18,14.51,14.51,0,0,1-2.47.16c-2.71,0-5.43,0-8.24,0V69Zm8.49-34v9.31a3.92,3.92,0,0,0,.42.05c2.41,0,4.83,0,7.25,0a8,8,0,0,0,2.06-.3,4.48,4.48,0,0,0,3.42-5.62,4.24,4.24,0,0,0-3.53-3.1,31.1,31.1,0,0,0-4.54-.31C331.6,35,329.92,35,328.19,35Z"/><path class="cls-1" d="M273.57,30.94l-5.14,6.45c-1.48-.75-2.86-1.54-4.31-2.16a8.39,8.39,0,0,0-5.84-.34,3.49,3.49,0,0,0-2.77,3.62,2.54,2.54,0,0,0,1.29,2.21,35.53,35.53,0,0,0,4.42,2.18,42.34,42.34,0,0,1,8.22,4,11,11,0,0,1,4.92,6.33,12.36,12.36,0,0,1-6.31,14.37c-5.07,2.69-10.27,2.41-15.44.22a20.62,20.62,0,0,1-7.23-5.41l6.33-5.85a16.31,16.31,0,0,0,6,3.9,7.66,7.66,0,0,0,6.05-.18,4,4,0,0,0,2.46-3.3,2.16,2.16,0,0,0-.72-2A14,14,0,0,0,262.76,53c-2.22-1.08-4.53-2-6.79-3a18.35,18.35,0,0,1-6.38-4.3A10.6,10.6,0,0,1,247,37.3a11.61,11.61,0,0,1,3-7,12.6,12.6,0,0,1,7.68-4c5.84-.86,10.92,1.07,15.59,4.39A2.35,2.35,0,0,1,273.57,30.94Z"/><path class="cls-1" d="M488.27,35V69h-8.54V35H468V26.52h31.87V35Z"/><path class="cls-2" d="M134.51,69H126V35H114.26V26.52h31.86V35H134.51Z"/><path class="cls-1" d="M20.71,64.23a31.51,31.51,0,0,1,5.65-4.33A40.29,40.29,0,0,1,42,54.28a49.39,49.39,0,0,1,9.26-.22c4.43.21,8.85.5,13.28.53A53.88,53.88,0,0,0,76.2,53.16c2.31-.49,4.61-1.08,6.91-1.63a1.44,1.44,0,0,1,.72,0c-.5.68-1,1.39-1.52,2A35.89,35.89,0,0,1,62.22,65.43a33.56,33.56,0,0,1-10.67.64,45.48,45.48,0,0,1-7.9-1.82,61.07,61.07,0,0,0-7.4-1.73,29,29,0,0,0-5.89-.06A46.06,46.06,0,0,0,20.71,64.23Z"/><path class="cls-2" d="M189.48,69V26.53h8.37V69Z"/><path class="cls-1" d="M1.43,38.26C4.9,22.34,18.17,6.92,36.27,2.05c-.75.72-1.53,1.42-2.25,2.17a44.06,44.06,0,0,0-9.09,14.56,1.63,1.63,0,0,1-.85.95A67.37,67.37,0,0,0,6.51,32.58C4.92,34.19,3.47,36,2,37.64Z"/><path class="cls-1" d="M80.34,62.05a13.59,13.59,0,0,1-2.14,5.72,22.63,22.63,0,0,1-10.61,8.68A30.7,30.7,0,0,1,58,78.69c-6.55.52-12.73-.94-18.75-3.35-3-1.21-6-2.3-9.07-3.43a11.11,11.11,0,0,0-4.71-.79,15.18,15.18,0,0,1,4.37-1.59c4.1-.89,8.1-.26,12.09.81,3,.81,6.11,1.54,9.2,2.11a35.4,35.4,0,0,0,10.38.28,28.35,28.35,0,0,0,10.35-3,20.6,20.6,0,0,0,8.28-7.51A1.77,1.77,0,0,1,80.34,62.05Z"/><path class="cls-1" d="M330.67,100.2c-1.45-6.07-2.88-12.12-4.34-18.25.22,0,.4,0,.58,0,1.1,0,2.21,0,3.31,0,.45,0,.62.12.7.58q1.13,6.47,2.29,12.92a.17.17,0,0,0,0,.07c.83-4.11,1.67-8.25,2.51-12.39.23-1.17.23-1.17,1.4-1.17h3.3c.81,4.41,1.61,8.81,2.44,13.36.14-.78.24-1.44.37-2.1.68-3.62,1.36-7.23,2.07-10.84a.61.61,0,0,1,.43-.4c1.27,0,2.54,0,3.9,0-.29,1.15-.55,2.23-.83,3.31-1.22,4.76-2.47,9.53-3.68,14.3-.14.55-.35.74-.93.71-1.25,0-2.5,0-3.83,0-.82-4.33-1.63-8.64-2.39-12.73-.85,4-1.75,8.1-2.65,12.25-.06.29-.12.5-.5.49C333.48,100.19,332.1,100.2,330.67,100.2Z"/><path class="cls-1" d="M302.17,81.93H306V100.2c-1.39,0-2.78,0-4.17,0-.14,0-.32-.24-.4-.4q-3.33-6.28-6.63-12.58l-.14-.19v13.14H291V81.9h1.8c.8,0,1.61,0,2.42,0a.85.85,0,0,1,.88.53c2.19,4,4.64,7.82,6.32,12C302.32,90.31,302.24,86.16,302.17,81.93Z"/><path class="cls-1" d="M216.46,82.13c3-.31,6-.68,9,0a6.65,6.65,0,0,1,2.71,1.41,3.89,3.89,0,0,1-.32,6,14,14,0,0,1-1.29.81,13.91,13.91,0,0,1,1.39.7,4.77,4.77,0,0,1-.41,8.11,8.7,8.7,0,0,1-4.24,1.15c-2.11,0-4.23-.06-6.34-.09-.41,0-.55-.14-.55-.55,0-5.71,0-11.41,0-17.11A3.21,3.21,0,0,1,216.46,82.13Zm4.14,15.28A30.15,30.15,0,0,0,224,97a2.19,2.19,0,0,0,1.61-2.19,2.29,2.29,0,0,0-1.56-2.24,8.38,8.38,0,0,0-3.46-.32Zm0-8.29a7.3,7.3,0,0,0,3.36-.37,1.91,1.91,0,0,0,1.19-2,1.68,1.68,0,0,0-1.44-1.69,28.17,28.17,0,0,0-3.11-.25Z"/><path class="cls-1" d="M249.11,91a30.59,30.59,0,0,1-.79,3.83,8.09,8.09,0,0,1-7.66,5.65c-5,.29-8.61-2.77-9.19-7.86a10.24,10.24,0,0,1,1.91-7.75,8.38,8.38,0,0,1,7.93-3.2c5,.47,7.69,4.47,7.65,9.3Zm-13.32.17A7.41,7.41,0,0,0,237,95.47a3.84,3.84,0,0,0,6.43,0,8.75,8.75,0,0,0,0-8.6,3.81,3.81,0,0,0-6.62.1A8,8,0,0,0,235.79,91.18Z"/><path class="cls-1" d="M267.81,90.43c0,3.19-.65,5.64-2.57,7.61a8.2,8.2,0,0,1-5.31,2.42,9.12,9.12,0,0,1-4.84-.71A8,8,0,0,1,250.58,94a10.58,10.58,0,0,1,1.34-8.71c2-2.92,4.87-3.94,8.28-3.63A8.33,8.33,0,0,1,267.81,90.43Zm-4.36,0a20.48,20.48,0,0,0-.8-2.95,3.85,3.85,0,0,0-7.22-.07,9.18,9.18,0,0,0-.72,2.73,7.32,7.32,0,0,0,1.38,5.65,3.82,3.82,0,0,0,5.93-.08C263.12,94.35,263.34,92.7,263.45,90.46Z"/><path class="cls-1" d="M315.83,100.53c-4.3-.07-6.9-3.63-7.45-7.38A10.44,10.44,0,0,1,310.13,85a8.4,8.4,0,0,1,8.07-3.31c5,.49,7.81,4.6,7.6,9.78-.13,3-1.06,5.57-3.54,7.41C320.65,100.07,318.79,100.51,315.83,100.53ZM321.38,91a7.29,7.29,0,0,0-1.17-4.24,3.79,3.79,0,0,0-6.51.12,7.59,7.59,0,0,0-1.06,3.87,7.83,7.83,0,0,0,.92,4.35,3.81,3.81,0,0,0,3.52,2.09A3.75,3.75,0,0,0,320.49,95,8.06,8.06,0,0,0,321.38,91Z"/><path class="cls-1" d="M284.66,81.9l-6.08,7.83,6.35,10.47c-1.64,0-3.18,0-4.71,0-.16,0-.35-.27-.45-.46-1.29-2.24-2.56-4.49-3.83-6.73l-.34-.59c-.47.58-.94,1.1-1.35,1.67a1.37,1.37,0,0,0-.15.71c0,1.78,0,3.56,0,5.38H270V81.91c1.28,0,2.56,0,3.85,0,.1,0,.26.37.27.57,0,2.21,0,4.42,0,6.62v.76l3.08-4.59c.68-1,1.35-2,2.06-3a1.09,1.09,0,0,1,.76-.39C281.49,81.88,283,81.9,284.66,81.9Z"/><path class="cls-2" d="M105.75,28.09,75.92,34.2l-1.66-8.49c1.35.37,2.62.71,3.88,1.07,1,.27,1.94.58,2.92.82a5.27,5.27,0,0,0,1.43.08c1.9-.13,3.8-.28,5.7-.43s3.8-.33,5.7-.46c2.44-.16,4.9-.33,7.35-.41A7.65,7.65,0,0,1,105.75,28.09Z"/><path class="cls-2" d="M499.87,82.16c0-1.51,0-3,0-4.52v-.59H354.24v25.26c0,.23,0,.46,0,.69H492.62a25.46,25.46,0,0,0,3.36-1,6.45,6.45,0,0,0,3.94-4.77s.05-.06.08-.09V82.89A3.87,3.87,0,0,1,499.87,82.16ZM375.41,91.68a11.12,11.12,0,0,1-4.91.76h-.74V99h-4.17v-.69q0-8.46,0-16.92c0-.6.17-.82.78-.83,2-.06,3.93-.24,5.89-.22a10.51,10.51,0,0,1,3,.54,5.23,5.23,0,0,1,3.64,4.74C379,88.59,377.84,90.62,375.41,91.68ZM391,99a.69.69,0,0,1-.47-.43c-.42-1.29-.79-2.59-1.2-3.88-.06-.19-.3-.46-.46-.46-1.68,0-3.35,0-5.07,0-.45,1.61-.89,3.19-1.34,4.78h-4.28c.35-1.17.69-2.31,1-3.45,1.48-4.85,3-9.7,4.43-14.55a.68.68,0,0,1,.79-.58c1.61,0,3.22,0,4.9,0l5.76,18.6C393.64,99.06,392.3,99.07,391,99Zm17-16.68c-1.57,2.78-3.15,5.56-4.7,8.36a2.48,2.48,0,0,0-.31,1.13c0,2.14,0,4.28,0,6.43V99h-4.17v-.66c0-2.1,0-4.21,0-6.31a2.72,2.72,0,0,0-.3-1.19c-1.71-3.24-3.45-6.46-5.17-9.69-.11-.2-.2-.41-.35-.7,1.54,0,3,0,4.45,0,.16,0,.38.29.46.49,1,2.34,2,4.68,2.95,7,.06.16.13.31.24.57.45-1.11.86-2.14,1.28-3.17.62-1.48,1.25-3,1.85-4.45a.66.66,0,0,1,.75-.49c1.33,0,2.66,0,4.1,0ZM427.21,99H415.65V80.51h4.12v15h7.44Zm13.67,0a.73.73,0,0,1-.47-.44c-.4-1.25-.78-2.5-1.14-3.76-.12-.43-.29-.62-.77-.6q-2.1,0-4.2,0a.65.65,0,0,0-.78.59c-.35,1.41-.77,2.8-1.16,4.21h-4.29c.53-1.74,1-3.45,1.56-5.15,1.31-4.27,2.62-8.53,3.9-12.8.15-.48.34-.66.87-.64,1.58,0,3.17,0,4.83,0,1.92,6.18,3.84,12.36,5.77,18.6C443.59,99.06,442.23,99.07,440.88,99Zm16.67-15.15h-5V99h-4.2V83.91h-5v-3.4h14.21ZM471.14,99H459.4V80.5h11.38v3.27c-.25,0-.47,0-.7,0-2,0-4,0-6,0-.46,0-.64.1-.62.6,0,1.09,0,2.19,0,3.36h6.83v3.39h-6.78V95.6h7.6Zm12.39,0c-.14,0-.34-.28-.4-.47-.38-1.28-.77-2.55-1.08-3.84-.61-2.61-1.52-3.27-4.3-3V99h-4.19v-.6q0-8.52,0-17c0-.54.16-.76.7-.78,2-.06,4-.25,6-.21a11.8,11.8,0,0,1,3.47.63,4.38,4.38,0,0,1,3.13,4.2,4.75,4.75,0,0,1-2.62,4.71,3.65,3.65,0,0,1-.34.18l-.39.2a4.72,4.72,0,0,1,2.5,3.37c.49,1.77,1,3.54,1.49,5.4C486.17,99.06,484.85,99.07,483.53,99Z"/><path class="cls-2" d="M481.09,83.6a7.83,7.83,0,0,0-3.34-.1v5.4a26.9,26.9,0,0,0,3.44-.55,2.31,2.31,0,0,0,1.59-2.41A2.34,2.34,0,0,0,481.09,83.6Z"/><path class="cls-2" d="M434.33,91.11h4.13l-2.14-7.58C435.64,86.12,435,88.61,434.33,91.11Z"/><path class="cls-2" d="M384.4,91.12h4.13c-.71-2.54-1.41-5-2.14-7.6C385.72,86.09,385.07,88.58,384.4,91.12Z"/><path class="cls-2" d="M372.52,83.55a23.11,23.11,0,0,0-2.77,0c0,1.85,0,3.58,0,5.32a.51.51,0,0,0,.29.37,6.18,6.18,0,0,0,3.24-.38,3,3,0,0,0,1.52-3.09A2.47,2.47,0,0,0,372.52,83.55Z"/></svg>