<svg id="Capa_1" enable-background="new 0 0 512 512" height="512" viewBox="0 0 512 512" width="512" xmlns="http://www.w3.org/2000/svg"><path d="m501.131 272.571-105-30c-2.695-.762-5.566-.762-8.262 0l-105 30c-6.416 1.846-10.869 7.735-10.869 14.429v70.796c0 71.016 47.666 134.194 115.898 153.633 1.348.381 2.725.571 4.102.571s2.754-.19 4.102-.571c68.232-19.439 115.898-82.617 115.898-153.633v-70.796c0-6.694-4.453-12.583-10.869-14.429zm-53.526 85.034-60 60c-2.93 2.93-6.768 4.395-10.605 4.395s-7.676-1.465-10.605-4.395l-30-30c-5.859-5.859-5.859-15.352 0-21.211s15.352-5.859 21.211 0l19.394 19.395 49.395-49.395c5.859-5.859 15.352-5.859 21.211 0s5.859 15.352-.001 21.211z"/><g><circle cx="106" cy="107" r="15"/><path d="m467 0h-422c-24.814 0-45 20.186-45 45v242c0 24.814 20.186 45 45 45h197v-45c0-19.951 13.389-37.734 32.578-43.257l105.059-30.015c4.072-1.157 8.203-1.728 12.363-1.728s8.291.571 12.275 1.699c43.274 12.541 95.452 26.862 107.725 31.284v-199.983c0-24.814-20.186-45-45-45zm-360 242h-30c-8.291 0-15-6.709-15-15s6.709-15 15-15h30c8.291 0 15 6.709 15 15s-6.709 15-15 15zm-1-90c-24.813 0-45-20.187-45-45s20.187-45 45-45 45 20.187 45 45-20.187 45-45 45zm91 90h-30c-8.291 0-15-6.709-15-15s6.709-15 15-15h30c8.291 0 15 6.709 15 15s-6.709 15-15 15zm240-120h-180c-8.291 0-15-6.709-15-15s6.709-15 15-15h180c8.291 0 15 6.709 15 15s-6.709 15-15 15z"/></g></svg>