<svg id="Capa_1" enable-background="new 0 0 512 512" height="512" viewBox="0 0 512 512" width="512" xmlns="http://www.w3.org/2000/svg"><g><g><path d="m381.793 256c0 74.997-50.797 135.794-125.794 135.794s-135.793-60.797-135.793-135.794 60.797-135.794 135.794-135.794 125.793 60.797 125.793 135.794z" fill="#fee45a"/><path d="m256 120.206c-5.071 0-10.074.287-15 .829 67.937 7.467 120.794 65.039 120.794 134.965s-52.857 127.498-120.794 134.965c4.926.542 9.929.829 15 .829 74.997 0 135.794-60.797 135.794-135.794s-60.798-135.794-135.794-135.794z" fill="#fed402"/><path d="m256 86.93h-24.558c-3.599 0-6.113-3.563-4.906-6.954l13.495-37.925 11.063-31.09c1.643-4.616 8.17-4.616 9.813 0l11.063 31.09 13.495 37.925c1.207 3.391-1.308 6.954-4.906 6.954z" fill="#fee45a"/><path d="m256 425.069h24.558c3.599 0 6.113 3.563 4.906 6.954l-13.495 37.925-11.063 31.09c-1.643 4.616-8.17 4.616-9.813 0l-11.063-31.09-13.495-37.925c-1.206-3.391 1.308-6.954 4.906-6.954z" fill="#fee45a"/><path d="m425.069 256v-24.558c0-3.599 3.563-6.113 6.954-4.906l37.925 13.495 31.09 11.063c4.616 1.643 4.616 8.17 0 9.813l-31.09 11.063-37.925 13.495c-3.39 1.207-6.954-1.308-6.954-4.906z" fill="#fed402"/><path d="m86.93 256v24.558c0 3.599-3.563 6.113-6.954 4.906l-37.925-13.495-31.09-11.063c-4.616-1.643-4.616-8.17 0-9.813l31.09-11.063 37.925-13.495c3.391-1.206 6.954 1.308 6.954 4.906z" fill="#fee45a"/><path d="m136.45 136.45-17.365 17.365c-2.545 2.545-6.842 1.803-8.386-1.448l-17.274-36.359-14.162-29.807c-2.103-4.425 2.513-9.041 6.939-6.939l29.807 14.161 36.359 17.275c3.251 1.544 3.992 5.842 1.448 8.386z" fill="#fee45a"/><path d="m375.55 375.55 17.365-17.365c2.545-2.545 6.842-1.803 8.386 1.448l17.275 36.359 14.161 29.807c2.102 4.425-2.513 9.041-6.939 6.939l-29.807-14.161-36.359-17.275c-3.251-1.544-3.992-5.842-1.448-8.386z" fill="#fed402"/><path d="m375.55 136.45-17.365-17.365c-2.545-2.545-1.803-6.842 1.448-8.386l36.359-17.275 29.807-14.161c4.425-2.103 9.041 2.513 6.939 6.939l-14.161 29.807-17.275 36.359c-1.544 3.251-5.842 3.992-8.386 1.448z" fill="#fed402"/><path d="m136.45 375.55 17.365 17.365c2.545 2.545 1.803 6.842-1.448 8.386l-36.359 17.275-29.807 14.161c-4.425 2.103-9.041-2.513-6.939-6.939l14.161-29.807 17.275-36.359c1.544-3.251 5.842-3.992 8.386-1.448z" fill="#fee45a"/></g><g><g><path d="m256 512c-5.447 0-10.146-3.316-11.972-8.447l-24.558-69.016c-1.383-3.885-.789-8.216 1.589-11.586 2.377-3.37 6.259-5.382 10.383-5.382h49.116c4.124 0 8.006 2.012 10.383 5.382s2.972 7.701 1.589 11.586l-24.558 69.015c-1.826 5.132-6.525 8.448-11.972 8.448zm-21.309-79.431 21.309 59.885 21.309-59.885zm45.867 0h.01z"/></g><g><path d="m430.283 293.264c-2.592 0-5.161-.792-7.332-2.323-3.37-2.377-5.382-6.259-5.382-10.383v-49.116c0-4.124 2.012-8.006 5.382-10.383 3.37-2.378 7.702-2.971 11.586-1.589l69.015 24.558c5.132 1.826 8.448 6.525 8.448 11.972s-3.316 10.146-8.447 11.972l-69.016 24.558c-1.382.492-2.822.734-4.254.734zm2.286-58.573v42.618l59.885-21.309z"/></g><g><path d="m81.717 293.264c-1.433 0-2.872-.242-4.255-.734l-69.014-24.558c-5.132-1.826-8.448-6.525-8.448-11.972s3.316-10.146 8.447-11.972l69.016-24.558c3.885-1.383 8.216-.788 11.586 1.589s5.382 6.259 5.382 10.383v49.116c0 4.124-2.012 8.006-5.382 10.383-2.171 1.532-4.74 2.323-7.332 2.323zm-62.171-37.264 59.885 21.309v-42.618z"/></g><g><path d="m115.396 162.839c-.717 0-1.438-.061-2.156-.185-4.064-.702-7.546-3.344-9.316-7.069l-31.436-66.166c-2.337-4.919-1.359-10.587 2.492-14.439 3.851-3.851 9.519-4.83 14.439-2.492l66.165 31.436c3.726 1.77 6.368 5.253 7.069 9.317.702 4.064-.621 8.231-3.537 11.147l-34.73 34.73c-2.399 2.401-5.649 3.721-8.99 3.721zm30.818-46.76-57.412-27.277 27.277 57.413z"/></g><g><path d="m428.083 440.768c-1.851 0-3.726-.412-5.503-1.256l-66.165-31.435c-3.726-1.77-6.369-5.253-7.07-9.318-.701-4.064.621-8.231 3.538-11.147l34.729-34.73c2.917-2.917 7.085-4.238 11.148-3.537 4.064.702 7.546 3.345 9.315 7.07l31.436 66.166c2.337 4.919 1.359 10.587-2.492 14.439-2.46 2.459-5.662 3.748-8.936 3.748zm-62.297-44.847 57.413 27.277-27.277-57.413z"/></g><g><path d="m396.603 162.839c-3.341 0-6.59-1.32-8.991-3.721l-34.73-34.73c-2.916-2.917-4.238-7.084-3.537-11.148.702-4.064 3.344-7.546 7.069-9.316l66.167-31.436c4.919-2.338 10.586-1.359 14.439 2.492 3.851 3.852 4.83 9.52 2.492 14.439l-31.436 66.166c-1.77 3.726-5.253 6.368-9.317 7.069-.718.125-1.439.185-2.156.185zm1.616-14.327h.01zm-2.298-2.298 27.277-57.413-57.413 27.277z"/></g><g><path d="m83.917 440.768c-3.274 0-6.476-1.288-8.937-3.748-3.851-3.852-4.83-9.52-2.492-14.439l31.435-66.165c1.77-3.726 5.253-6.368 9.317-7.069 4.062-.702 8.231.62 11.147 3.537l34.73 34.73c2.917 2.917 4.238 7.084 3.537 11.148-.702 4.064-3.344 7.546-7.069 9.316l-66.166 31.435c-1.776.843-3.651 1.255-5.502 1.255zm32.162-74.982-27.277 57.413 57.413-27.277zm32.432 32.432h.01z"/></g><g><path d="m280.558 94.431h-49.116c-4.124 0-8.006-2.012-10.383-5.382s-2.972-7.701-1.589-11.586l6.872-19.312c1.389-3.903 5.679-5.941 9.58-4.552 3.903 1.389 5.94 5.678 4.552 9.58l-5.783 16.252h42.618l-21.309-59.885-4.565 12.83c-1.389 3.902-5.681 5.938-9.58 4.552-3.903-1.389-5.94-5.678-4.552-9.58l6.725-18.899c1.826-5.133 6.525-8.449 11.972-8.449s10.146 3.316 11.972 8.447l24.558 69.016c1.383 3.885.789 8.216-1.589 11.586-2.377 3.37-6.259 5.382-10.383 5.382z"/></g><g><path d="m149.561 347.829c-2.21 0-4.4-.973-5.88-2.839-20.265-25.544-30.976-56.316-30.976-88.99 0-79.012 64.281-143.294 143.294-143.294 72.484 0 133.646 54.192 142.267 126.056.493 4.112-2.441 7.846-6.554 8.34-4.108.493-7.846-2.44-8.34-6.554-7.717-64.33-62.476-112.842-127.373-112.842-70.742 0-128.294 57.552-128.294 128.294 0 29.254 9.588 56.803 27.727 79.668 2.574 3.245 2.031 7.962-1.214 10.537-1.379 1.093-3.023 1.624-4.657 1.624z"/></g><g><path d="m255.999 399.293c-32.127 0-62.491-10.39-87.808-30.047-3.271-2.54-3.865-7.251-1.324-10.523 2.54-3.271 7.252-3.864 10.523-1.324 22.661 17.595 49.844 26.895 78.608 26.895 31.981 0 62.615-11.835 86.26-33.327 23.487-21.347 38.179-50.412 41.371-81.84.418-4.121 4.097-7.123 8.219-6.704 4.121.418 7.122 4.098 6.704 8.219-3.566 35.117-19.976 67.585-46.205 91.425-26.411 24.006-60.628 37.226-96.348 37.226z"/></g></g></g></svg>