<?xml version="1.0" encoding="utf-8"?>
<!-- Generator: Adobe Illustrator 26.0.3, SVG Export Plug-In . SVG Version: 6.00 Build 0)  -->
<svg version="1.1" id="layer" xmlns="http://www.w3.org/2000/svg" xmlns:xlink="http://www.w3.org/1999/xlink" x="0px" y="0px"
	 viewBox="0 0 300 127.2" style="enable-background:new 0 0 300 127.2;" xml:space="preserve">
<style type="text/css">
	.st0{fill:#9CA3AF;}
</style>
<g>
	<path class="st0" d="M35.9,85.7c11.4-5,28.8-32.4,32.3-39.9c-2,0-11.4,0.3-11.4,9c-1.5,0-3-1.8-2.9-3.9c0-3.5,3.5-7,15.5-7
		c5-8.2,12.9-19.2,18.2-22.9c2.2-1.5,2.3-1.2,0.9,0.4c-1.7,2.3-4.1,5.9-6.8,10.4c-4.3,7-8.8,16.6-14.4,26.2
		c-5.4,8.7-11.4,15.7-17.6,21c-5.7,4.6-11.4,7.6-15,8.3C33.2,87.6,33.4,86.5,35.9,85.7"/>
	<path class="st0" d="M121.6,18.7c-6.9,0-13.8-4-18-5.8c4.5-3.9,10.7-6.8,16.8-6.8C134.7,6,135.3,18.7,121.6,18.7 M120.6,4.5
		c-7,0-13.7,2.6-19.3,7.1c-7-3-21-11.7-36.2-11.7C47,0,35.5,11.5,35.5,23.8c0,10.1,8.6,16.9,18.2,16.9C68,40.7,70.1,30.5,70,29.2
		c0-0.7-0.2-2-0.8-2.5c-0.3-0.2-0.8-0.2-0.8,0.2c0,3.9-7.4,11.8-16.5,11.8c-21,0.1-12.4-36.9,10.7-36.9c12.7,0,26.1,8.4,35.8,12.7
		C92.2,21.1,85.6,30.1,76,49.1C63,75,45.9,91,26.9,91C16.4,91,5.7,84.2,5.7,67.7c0-27.9,37.1-35.6,37.1-6.9c0,11.7-8.1,17.9-14.8,18
		c-7.6,0-9.3-4.7-9.3-9.2c0-9.3,4.6-11.2,2.3-11.2c-8.3,0-10.3,22.1,8,22.1c11.7,0,18.7-10.3,18.9-20.3c0.1-9.5-6-18.8-20.5-18.8
		C9.4,41.2,0,54.3,0,67.3C0,80,9.2,92.6,28.3,92.6c15.3,0,25.2-6.5,33.7-14.5c9.4-8.7,15.2-20.3,20.1-31.5c1.7,0.3,5.2,0.8,6.4,0.4
		c-0.9,1.4-3.4,6.3-2.1,6.1c0.9-0.1,1.9-3.1,5.1-6.5c1.1-1.2,3.1-2.4,5.1-3.3c3.9-1.7,2.7-4.5,0.6-4.5c-4,0-5.8,6.3-10.5,6.3
		c-1.3,0-3-0.3-3.9-0.5c3-7.4,10.6-22.7,17.5-28.9c3,1.3,12.8,6.1,20.1,6.1C137.7,21.8,140,4.5,120.6,4.5"/>
	<path class="st0" d="M132.2,48.2c0-1.8-1.5-3.3-3.3-3.3c-1.8,0-3.3,1.5-3.3,3.3s1.5,3.3,3.3,3.3C130.7,51.5,132.2,50,132.2,48.2
		 M216.8,70.5c-3.8,5.7-8.9,9.5-10.9,8.1c-2-1.4-0.3-7.4,3.6-13.1c3.8-5.7,8.8-9.6,10.8-8.2C222.3,58.7,220.7,64.8,216.8,70.5
		 M84.9,78.4c-7.4,0,6.2-20.8,12.4-20.8C105.2,57.6,91.7,78.4,84.9,78.4 M299.9,46.6l-15.1,0c0,0,3.4-5.1,5.4-8.2
		c0.3-0.5,0.5-0.9-0.4-0.9c-4.5,0-9.9,9.1-9.9,9.1L220,46.9l2.8,2.7c0,0,49.9-1.1,56-1.2c-1.9,2.9-4.5,6.6-6.7,9.7
		c-6,8.5-11.1,15-16.6,18.7c-4.3,2.9-6,1.8-4-2.2c2.1-4.1,7.3-9.9,7.3-14.4c0-2-0.6-4.5-4.1-4.5c-5.4,0-10.9,5.8-11.7,6.5l4.2-6.3
		h-6.2c-0.4,0.6-0.8,1.2-1.3,1.9c-2.8,4.1-11.9,11.1-14.8,2.4c-0.7-2.7-2.6-5.2-5.9-5.2c-5.7,0-10.1,3.1-13.8,7.9
		c-0.2,0.3-10.6,15.4-16.3,15.4c-2.3,0-0.4-2.9,0.7-4.7c4-6.5,7-10.5,6.9-13.9c0-2.5-1.3-4-4.5-4c-5.3,0-9.8,5-10.7,6.2c0,0,0,0,0,0
		c0,0,2.8-6.2-3.5-6.2c-2.5,0-6.5,1.2-11.4,6.1l0,0l4.1-6h-6.4l-2.5,3.7c-1.7,2.5-4.7,3-6.1,3.3c2.7-1.8,3.2-7.6-2.2-7.6
		c-2.6,0-7.4,2.6-12,7l0,0l4.4-6.5h-6.2c0,0-1.3,2-3.3,5c-5.1,7.8-15.1,17.8-19.4,17.8c-2.1,0-2.5-3.1,0.8-7.6
		c4.1-6.2,10-15.1,10-15.1H121c0,0-2.6,3.8-5.7,8.5c-4.1,6.3-9.2,14.2-14.5,14.2c-3.1,0-1.6-4.8,0.6-8.3c3.2-4.9,9.5-14.3,9.5-14.3
		h-6c0,0-2,3-3,4.6c0-3.2-1.9-4.8-5.8-4.8c-14.7,0-24,24.6-11.4,24.6c5.6,0,10.2-6.1,10.9-7.4c0,0,0.1,0,0.1,0
		c-0.3,3.3,1.2,7.3,5.3,7.3c5.3,0,10.9-8,10.9-8c-0.7,3.6,0.5,8.1,4.5,8.1c4.7,0,12.5-8.7,12.9-9.1c0,0,0,0,0,0
		c-3.2,4.8-6,8.9-6,8.9h6.2c0,0,1.3-2,3.3-4.9c7.4-11.1,15.1-18.3,20.6-18.6c0,0,0,0,0,0c-1.1,0.2-3.3,1.6-3.3,4.3
		c0,2.5,1.7,3.4,3.5,3.4c2.2,0,4.9-1.1,5.6-1.3l-11.4,17.2h6.2c0,0,4.3-6.5,6.4-9.6c5.5-7.5,12.3-13.4,16.2-13.4
		c2.5,0,0.3,3.2-0.6,4.5c-1,1.5-12.3,18.6-12.3,18.6h6.2c3.3-4.9,3.2-5,4.8-7.3c3.7-5.6,5.5-8.7,10.2-12.7c2.3-1.8,4.3-2.9,6.1-2.9
		c0.8,0,1,0.7,1,1.3c0,3.5-9.3,11.5-9.3,16.7c0,3.3,2.3,5.1,4.8,5.1c4.5,0,9.3-4.3,14-10.4c-1.6,4.8,0,11.1,6.1,11.1
		c7.3,0,16.3-10.6,16.9-17.2c2.8,3.4,8.6,1.6,11.4-0.8c-0.2,0.3-11.4,17.1-11.4,17.1h6.2c0,0,4-6,8.2-11.6c2.1-2.9,4.9-6.4,10-9.5
		c1.7-1,3.1-1.8,4-1.8c5.6,0-8.3,11.4-8.3,18.7c0,2.5,1.8,4.5,5.1,4.5c6.3,0,12.5-8,14.1-9.8c0,0,0,0,0,0
		C259,77.9,252.7,88,264.8,88c1.4,0,3.5-0.3,4.5-1.4c1.8-1.8-0.7-1.3-1.5-1.3c-5.1,0-5.3-3.2-2.4-8.5c1.8-3.2,7.2-12,7.9-13
		c4.9-7.5,10.4-15.4,10.4-15.4l16.2-0.5L299.9,46.6L299.9,46.6z"/>
	<path class="st0" d="M23.4,122.5c0,1.2,0,2.3-0.9,3.3c-0.8,1-2,1.3-3.3,1.3c-1.2,0-2.4-0.2-3.3-1.2c-0.9-1-0.9-2.2-0.9-3.5v-7.7
		h1.5v7.8c0,0.7,0,1.7,0.4,2.3c0.5,0.7,1.5,0.9,2.3,0.9c0.8,0,1.6-0.2,2.2-0.8c0.6-0.7,0.6-1.6,0.6-2.4v-7.7h1.3V122.5z"/>
	<polygon class="st0" points="36.7,127 35.2,127 29,116.3 29,127 27.7,127 27.7,114.7 29.6,114.7 35.4,124.7 35.4,114.7 36.7,114.7 
			"/>
	<polygon class="st0" points="41.1,127 41.1,114.7 48.6,114.7 48.6,116.1 42.6,116.1 42.6,119.9 47.6,119.9 47.6,121.2 42.6,121.2 
		42.6,127 	"/>
	<path class="st0" d="M50.5,120.9c0-3,1.5-6.4,5-6.4c3.4,0,5,3.1,5,6.1s-1.5,6.4-5,6.4C52,127.1,50.5,124,50.5,120.9 M58.9,120.8
		c0-1.1-0.2-2.3-0.7-3.3c-0.5-0.9-1.5-1.6-2.6-1.6c-2.7,0-3.5,2.9-3.5,5.1c0,2.1,0.8,4.9,3.4,4.9C58.1,125.9,58.9,122.9,58.9,120.8"
		/>
	<path class="st0" d="M71.1,127l-2.2-5.3h-3.4v5.3h-1.5v-12.2h4.6c1,0,1.9,0.1,2.8,0.7c0.8,0.6,1.3,1.6,1.3,2.6
		c0,1.4-0.8,2.7-2.3,3.1l2.4,5.6L71.1,127L71.1,127z M68.3,120.4c0.8,0,1.5,0,2.1-0.7c0.4-0.4,0.6-1,0.6-1.6c0-0.7-0.2-1.3-0.8-1.7
		c-0.5-0.3-1-0.4-1.7-0.4h-3v4.3L68.3,120.4L68.3,120.4z"/>
	<path class="st0" d="M85.6,127.1h-0.9l-0.4-1.5c-0.7,1.1-2,1.6-3.4,1.6c-1.6,0-2.8-0.6-3.8-1.9c-0.9-1.2-1.3-2.7-1.3-4.3
		c0-3.2,1.6-6.4,5.3-6.4c2.3,0,3.8,1.3,4.4,3.5l-1.4,0.3c-0.3-1.5-1.5-2.6-3.1-2.6c-2.7,0-3.5,2.8-3.5,5c0,1,0.2,2.3,0.7,3.2
		c0.5,1,1.6,1.7,2.8,1.7c1.9,0,3-1.3,3-3.1V122h-3v-1.3h4.6L85.6,127.1L85.6,127.1z"/>
	<polygon class="st0" points="97.8,127 89.9,127 89.9,114.7 97.7,114.7 97.7,116.1 91.5,116.1 91.5,119.9 96.4,119.9 96.4,121.2 
		91.5,121.2 91.5,125.6 97.8,125.6 	"/>
	<polygon class="st0" points="105.6,127 104,127 104,116.1 100.6,116.1 100.6,114.7 109,114.7 109,116.1 105.6,116.1 	"/>
	<polygon class="st0" points="116.3,127 114.7,127 114.7,116.1 111.3,116.1 111.3,114.7 119.7,114.7 119.7,116.1 116.3,116.1 	"/>
	<path class="st0" d="M130.4,127h-1.6l-1.2-3.5H123l-1.1,3.5h-1.3l3.9-12.2h1.7L130.4,127z M125.4,116.4l-1.9,5.8h3.7L125.4,116.4z"
		/>
	<path class="st0" d="M133.2,127v-12.2h4.6c0.9,0,1.7,0,2.5,0.5c0.8,0.5,1.3,1.4,1.3,2.4c0,1.4-0.8,2.4-2.1,2.7v0
		c1.5,0.3,2.5,1.5,2.5,3.1c0,1-0.3,1.9-1.2,2.6c-0.9,0.7-1.9,0.8-3,0.8L133.2,127L133.2,127z M137.1,120c0.7,0,1.6,0,2.2-0.4
		c0.5-0.3,0.7-1,0.7-1.6c0-0.7-0.3-1.2-0.9-1.6c-0.5-0.3-1.1-0.3-1.7-0.3h-2.7v4L137.1,120L137.1,120z M137.8,125.7
		c0.7,0,1.4,0,1.9-0.5c0.5-0.4,0.7-1,0.7-1.6c0-0.7-0.3-1.4-0.9-1.9c-0.6-0.4-1.3-0.4-2-0.4h-2.8v4.5L137.8,125.7L137.8,125.7z"/>
	<polygon class="st0" points="152.9,127 145.8,127 145.8,114.7 147.3,114.7 147.3,125.6 152.9,125.6 	"/>
	<polygon class="st0" points="163.8,127 155.9,127 155.9,114.7 163.6,114.7 163.6,116.1 157.4,116.1 157.4,119.9 162.3,119.9 
		162.3,121.2 157.4,121.2 157.4,125.6 163.8,125.6 	"/>
	<rect x="166.7" y="125" class="st0" width="2" height="2"/>
	<path class="st0" d="M179.1,123.4c0.5,1.7,1.9,2.5,3.6,2.5c0.7,0,1.6-0.1,2.2-0.6c0.4-0.3,0.7-1,0.7-1.5c0-1.2-1-1.7-2.1-2l-2-0.5
		c-0.8-0.2-1.5-0.4-2.2-1c-0.6-0.5-1-1.4-1-2.2c0-2.3,2-3.3,4.1-3.3c2,0,3.7,1,4.3,3l-1.4,0.3c-0.2-1.3-1.7-2.1-3-2.1
		c-1.1,0-2.6,0.6-2.6,1.9c0,1.3,1,1.6,2.2,1.9l1.8,0.4c0.8,0.2,1.6,0.4,2.2,0.9c0.7,0.6,1.1,1.4,1.1,2.4c0,1.1-0.5,2.1-1.3,2.8
		c-0.9,0.7-2.1,0.9-3.2,0.9c-2.5,0-4.1-1.1-4.9-3.4L179.1,123.4z"/>
	<rect x="190.8" y="114.7" class="st0" width="1.5" height="12.2"/>
	<polygon class="st0" points="205.9,127 204.4,127 198.2,116.3 198.2,127 196.9,127 196.9,114.7 198.8,114.7 204.6,124.7 
		204.6,114.7 205.9,114.7 	"/>
	<path class="st0" d="M218.4,123.2c-0.5,2.3-1.9,4-4.5,4c-3.5,0-4.9-3.4-4.9-6.4c0-3.1,1.5-6.1,5.1-6.1c2.4,0,3.9,1.6,4.4,3.9
		l-1.4,0.2c-0.4-1.5-1.2-2.9-3-2.9c-2.6,0-3.3,2.9-3.3,5c0,0.9,0.1,2.1,0.5,3c0.5,1.1,1.4,1.9,2.7,1.9c1.8,0,2.7-1.4,3.1-3
		L218.4,123.2z"/>
	<polygon class="st0" points="229.7,127 221.8,127 221.8,114.7 229.5,114.7 229.5,116.1 223.3,116.1 223.3,119.9 228.2,119.9 
		228.2,121.2 223.3,121.2 223.3,125.6 229.7,125.6 	"/>
	<path class="st0" d="M247.4,127h-8.5v-1.1h3.6v-9.2c-1,1-2.1,1.9-3.3,2.6v-1.5c1.4-0.7,2.7-1.7,3.7-2.9h1.1v11.1h3.4V127z"/>
	<path class="st0" d="M251.1,124.3c0.4,1.1,1.4,1.6,2.6,1.6c2.8,0,3.5-3.1,3.5-5.4h0c-0.7,1.3-2,2.1-3.6,2.1c-2.3,0-4-1.7-4-4
		c0-2.3,1.8-4.1,4.2-4.1c3.6,0,4.8,2.9,4.8,6s-1.2,6.6-4.9,6.6c-1.7,0-3.2-0.7-3.8-2.4L251.1,124.3z M256.9,118.6
		c0-1.7-1.2-2.8-2.9-2.8c-1.7,0-2.9,1.2-2.9,2.9s1.3,2.7,2.9,2.7C255.5,121.5,256.9,120.2,256.9,118.6"/>
	<path class="st0" d="M261.1,120.9c0-2.8,1.2-6.3,4.5-6.3c1.7,0,2.8,0.7,3.6,2.1c0.7,1.2,1,2.8,1,4.2c0,2.7-1.3,6.2-4.6,6.2
		C262.4,127.1,261.1,123.7,261.1,120.9 M268.7,121.1c0-2-0.4-5.4-3.1-5.4c-2.5,0-3,3.1-3,5c0,2,0.5,5.2,3.1,5.2
		C268.2,126,268.7,123,268.7,121.1"/>
	<path class="st0" d="M274.4,127c0-4,1.7-7.9,4.3-10.9H272l0.1-1.3h8v0.9c-1.2,1.5-2.3,3.1-3,4.9c-0.7,1.7-1.3,4.1-1.3,5.9v0.4
		L274.4,127L274.4,127z"/>
	<rect x="280.6" y="125" class="st0" width="2" height="2"/>
</g>
</svg>
